<svg width="22" height="22" viewBox="0 0 22 22" fill="none" xmlns="http://www.w3.org/2000/svg">
<path d="M9.67626 6.41203C9.66989 6.20009 9.72698 5.99107 9.84022 5.81181C9.95346 5.63254 10.1177 5.4912 10.3118 5.40591C10.5059 5.32062 10.7211 5.29528 10.9297 5.33314C11.1384 5.37099 11.3309 5.47032 11.4827 5.61838C11.6345 5.76643 11.7386 5.95646 11.7816 6.16409C11.8247 6.37171 11.8047 6.58746 11.7243 6.78365C11.6438 6.97984 11.5066 7.14752 11.3302 7.26519C11.1538 7.38285 10.9463 7.44513 10.7343 7.44403C10.5966 7.44722 10.4598 7.4229 10.3317 7.3725C10.2036 7.32209 10.0868 7.24662 9.98826 7.15049C9.88972 7.05437 9.81136 6.93954 9.75778 6.81273C9.70421 6.68592 9.67649 6.54969 9.67626 6.41203ZM9.74826 8.25503H11.7243V15.694H9.74826V8.25503Z" fill="#204F38"/>
<path d="M10.739 1.445C12.8876 1.44588 14.9695 2.19166 16.6299 3.55531C18.2904 4.91896 19.4267 6.81611 19.8453 8.92357C20.2638 11.031 19.9388 13.2184 18.9255 15.1131C17.9123 17.0078 16.2734 18.4926 14.2882 19.3146C12.303 20.1365 10.0943 20.2447 8.03821 19.6208C5.98216 18.9969 4.20602 17.6794 3.01236 15.8929C1.81871 14.1063 1.28138 11.9612 1.49192 9.8229C1.70246 7.68461 2.64784 5.68545 4.167 4.166C5.02806 3.30036 6.0523 2.61414 7.1804 2.14707C8.3085 1.68001 9.51804 1.44138 10.739 1.445ZM10.739 4.6594e-08C8.61519 -0.000197739 6.53901 0.629407 4.77302 1.80919C3.00703 2.98898 1.63056 4.66596 0.817673 6.62805C0.00478631 8.59015 -0.208005 10.7492 0.206211 12.8323C0.620426 14.9153 1.64304 16.8287 3.14474 18.3306C4.64644 19.8324 6.55976 20.8552 8.64276 21.2696C10.7258 21.684 12.8849 21.4714 14.847 20.6587C16.8092 19.846 18.4863 18.4697 19.6663 16.7038C20.8462 14.9379 21.476 12.8618 21.476 10.738C21.4763 9.32788 21.1987 7.93151 20.6593 6.62867C20.1198 5.32582 19.3289 4.14201 18.3319 3.14486C17.3348 2.1477 16.1511 1.35673 14.8483 0.817133C13.5455 0.277533 12.1491 -0.000131323 10.739 4.6594e-08Z" fill="#204F38"/>
</svg>
