<svg width="32" height="32" viewBox="0 0 32 32" fill="none" xmlns="http://www.w3.org/2000/svg">
<path fill-rule="evenodd" clip-rule="evenodd" d="M12.729 4.96468C12.2705 4.96465 11.821 5.09234 11.431 5.33344C11.041 5.57454 10.7259 5.91952 10.521 6.32968L8.962 9.44668C8.89366 9.58338 8.78861 9.69835 8.65862 9.77872C8.52863 9.85908 8.37883 9.90166 8.226 9.90168H4.113C3.45845 9.90168 2.8307 10.1617 2.36786 10.6245C1.90502 11.0874 1.645 11.7151 1.645 12.3697V27.1777C1.645 27.8322 1.90502 28.46 2.36786 28.9228C2.8307 29.3857 3.45845 29.6457 4.113 29.6457H27.149C27.8036 29.6457 28.4313 29.3857 28.8941 28.9228C29.357 28.46 29.617 27.8322 29.617 27.1777V11.5467C29.6244 11.3335 29.7143 11.1315 29.8678 10.9834C30.0212 10.8352 30.2262 10.7524 30.4395 10.7524C30.6528 10.7524 30.8578 10.8352 31.0112 10.9834C31.1647 11.1315 31.2546 11.3335 31.262 11.5467V27.1777C31.262 28.2685 30.8287 29.3147 30.0573 30.086C29.286 30.8574 28.2398 31.2907 27.149 31.2907H4.113C3.02216 31.2907 1.97601 30.8574 1.20467 30.086C0.433333 29.3147 1.21577e-07 28.2685 1.21577e-07 27.1777V12.3697C-0.000131221 11.8295 0.106158 11.2945 0.312796 10.7954C0.519435 10.2963 0.822376 9.84274 1.20432 9.46071C1.58626 9.07867 2.03972 8.77562 2.53879 8.56886C3.03787 8.3621 3.57279 8.25568 4.113 8.25568H7.713L9.05 5.59368C9.39156 4.91038 9.91667 4.33571 10.5665 3.93406C11.2163 3.53242 11.9651 3.31968 12.729 3.31968H18.1C18.2104 3.31583 18.3205 3.33426 18.4236 3.37386C18.5268 3.41346 18.6209 3.47342 18.7004 3.55018C18.7799 3.62694 18.8431 3.71891 18.8863 3.82062C18.9294 3.92233 18.9517 4.03169 18.9517 4.14218C18.9517 4.25268 18.9294 4.36204 18.8863 4.46375C18.8431 4.56546 18.7799 4.65743 18.7004 4.73419C18.6209 4.81094 18.5268 4.87091 18.4236 4.91051C18.3205 4.95011 18.2104 4.96853 18.1 4.96468H12.729Z" fill="#204F38"/>
<path fill-rule="evenodd" clip-rule="evenodd" d="M15.6266 13.1917C14.4875 13.1917 13.3741 13.5294 12.427 14.1623C11.48 14.7951 10.7418 15.6945 10.3059 16.7468C9.87006 17.7991 9.75601 18.9571 9.97822 20.0742C10.2004 21.1913 10.7489 22.2175 11.5543 23.0229C12.3597 23.8283 13.3859 24.3768 14.503 24.599C15.6202 24.8212 16.7781 24.7072 17.8304 24.2713C18.8828 23.8354 19.7822 23.0973 20.415 22.1502C21.0478 21.2032 21.3856 20.0897 21.3856 18.9507C21.3856 17.4233 20.7788 15.9585 19.6988 14.8785C18.6188 13.7984 17.1539 13.1917 15.6266 13.1917ZM8.22656 18.9507C8.22656 17.4871 8.66056 16.0564 9.47369 14.8395C10.2868 13.6225 11.4425 12.6741 12.7947 12.114C14.1469 11.5539 15.6348 11.4073 17.0702 11.6929C18.5057 11.9784 19.8242 12.6832 20.8592 13.7181C21.8941 14.753 22.5988 16.0716 22.8844 17.507C23.1699 18.9425 23.0234 20.4304 22.4633 21.7825C21.9032 23.1347 20.9547 24.2904 19.7378 25.1036C18.5209 25.9167 17.0901 26.3507 15.6266 26.3507C13.664 26.3507 11.7817 25.571 10.394 24.1833C9.0062 22.7955 8.22656 20.9133 8.22656 18.9507ZM23.0346 4.14269C23.0346 3.92441 23.1213 3.71508 23.2756 3.56074C23.43 3.4064 23.6393 3.31969 23.8576 3.31969H30.4396C30.6527 3.32712 30.8547 3.41703 31.0029 3.57047C31.1511 3.72391 31.2339 3.92888 31.2339 4.14219C31.2339 4.35549 31.1511 4.56047 31.0029 4.7139C30.8547 4.86734 30.6527 4.95725 30.4396 4.96469H23.8576C23.6395 4.96469 23.4303 4.87812 23.276 4.72399C23.1217 4.56986 23.0348 4.36079 23.0346 4.14269Z" fill="#204F38"/>
<path fill-rule="evenodd" clip-rule="evenodd" d="M27.1487 8.25568C27.0403 8.25568 26.9329 8.23427 26.8328 8.19266C26.7327 8.15105 26.6418 8.09007 26.5653 8.01322C26.4889 7.93637 26.4283 7.84517 26.3872 7.74486C26.3461 7.64455 26.3252 7.5371 26.3257 7.42868V0.851684C26.3218 0.741258 26.3403 0.631188 26.3799 0.528036C26.4195 0.424884 26.4794 0.330762 26.5562 0.251282C26.6329 0.171802 26.7249 0.108592 26.8266 0.0654209C26.9283 0.0222492 27.0377 0 27.1482 0C27.2587 0 27.368 0.0222492 27.4698 0.0654209C27.5715 0.108592 27.6634 0.171802 27.7402 0.251282C27.817 0.330762 27.8769 0.424884 27.9165 0.528036C27.9561 0.631188 27.9745 0.741258 27.9707 0.851684V7.42868C27.9712 7.53701 27.9504 7.64438 27.9093 7.74463C27.8682 7.84488 27.8078 7.93603 27.7314 8.01287C27.655 8.0897 27.5643 8.1507 27.4643 8.19237C27.3643 8.23404 27.257 8.25555 27.1487 8.25568Z" fill="#204F38"/>
</svg>
