<svg width="31" height="25" viewBox="0 0 31 25" fill="none" xmlns="http://www.w3.org/2000/svg">
<path d="M22.4198 0.000359019C21.0965 0.00960686 19.7908 0.26744 18.5907 0.756505C17.3905 1.24557 16.3237 1.95452 15.462 2.83564C14.6003 1.95452 13.5335 1.24557 12.3333 0.756505C11.1331 0.26744 9.82748 0.00960686 8.50422 0.000359019C7.38442 -0.00932631 6.27365 0.177041 5.23694 0.548554C4.20022 0.920067 3.25838 1.46926 2.46652 2.16401C1.67465 2.85875 1.04868 3.68508 0.625237 4.59465C0.201789 5.50421 -0.0106301 6.47874 0.000409207 7.46121C0.000409207 12.5892 5.25697 16.7652 13.2205 23.1155L15.462 24.893L17.7035 23.1027C25.667 16.7672 30.9213 12.5892 30.9213 7.46121C30.9324 6.47891 30.72 5.50454 30.2967 4.59511C29.8734 3.68567 29.2476 2.85943 28.456 2.16471C27.6644 1.47 26.7228 0.920757 25.6864 0.549127C24.6499 0.177496 23.5394 -0.00906422 22.4198 0.000359019ZM15.6172 21.095L15.462 21.2312L15.3068 21.095C7.94832 15.2482 3.0925 11.3816 3.0925 7.46121C3.07506 6.83352 3.20311 6.20925 3.4689 5.62628C3.73469 5.04331 4.13267 4.51377 4.63872 4.06979C5.14476 3.62581 5.74832 3.27664 6.41278 3.04345C7.07725 2.81026 7.78878 2.69791 8.50422 2.71322C9.67945 2.71829 10.8275 3.02383 11.8079 3.59245C12.7883 4.16107 13.5585 4.9681 14.0242 5.91478H16.9154C17.376 4.96768 18.1428 4.15974 19.1211 3.59076C20.0993 3.02178 21.2461 2.7167 22.4198 2.71322C23.1352 2.69791 23.8467 2.81026 24.5112 3.04345C25.1757 3.27664 25.7792 3.62581 26.2853 4.06979C26.7913 4.51377 27.1893 5.04331 27.4551 5.62628C27.7209 6.20925 27.8489 6.83352 27.8315 7.46121C27.8315 11.3816 22.9768 15.2482 15.6172 21.095Z" fill="black"/>
</svg>
