<svg width="18" height="14" viewBox="0 0 18 14" fill="none" xmlns="http://www.w3.org/2000/svg">
<mask id="mask0_2_475" style="mask-type:luminance" maskUnits="userSpaceOnUse" x="0" y="0" width="18" height="14">
<path d="M0 0H18V13.5H0V0Z" fill="white"/>
</mask>
<g mask="url(#mask0_2_475)">
<path fill-rule="evenodd" clip-rule="evenodd" d="M-1.125 0H19.125V13.5H-1.125V0Z" fill="#199D00"/>
<path fill-rule="evenodd" clip-rule="evenodd" d="M3.9778 3.82699C3.9548 4.14199 3.9268 4.69699 4.1948 4.75399C4.5188 4.78499 4.3398 4.20499 4.4578 4.09999C4.4798 4.04799 4.5208 4.04798 4.5238 4.11298V4.60499C4.52152 4.66021 4.53869 4.71447 4.57231 4.75833C4.60593 4.80219 4.65388 4.83286 4.7078 4.84499C4.7928 4.83799 4.8498 4.84499 4.8828 4.92399L4.9228 5.77499C4.9228 5.77499 5.1228 5.83099 5.1298 5.29699C5.10955 5.08497 5.10287 4.87186 5.1098 4.65899C5.1098 4.59899 5.1878 4.59498 5.2408 4.62498C5.3258 4.68498 5.3628 4.75899 5.4948 4.72499C5.6948 4.66999 5.8158 4.57198 5.8188 4.41898C5.81347 4.26856 5.7827 4.12013 5.7278 3.97999C5.7368 3.95299 5.6888 3.87999 5.6978 3.85799C5.7338 3.91399 5.7888 3.90999 5.7978 3.85799C5.77555 3.75049 5.71382 3.65523 5.6248 3.59099C5.5538 3.52899 5.4498 3.54099 5.4118 3.67199C5.4067 3.84455 5.46465 4.01306 5.5748 4.14599C5.60889 4.21971 5.62303 4.30109 5.6158 4.38199C5.58912 4.39768 5.55763 4.40308 5.52725 4.39719C5.49687 4.39129 5.46968 4.37451 5.4508 4.34999C5.4508 4.34999 5.2918 4.22999 5.2918 4.20399C5.3299 4.08035 5.32497 3.94746 5.2778 3.82699C5.25899 3.7504 5.22271 3.67921 5.1718 3.61899C5.1318 3.57699 5.0778 3.57699 5.0518 3.61899C4.9958 3.78178 5.00041 3.95932 5.0648 4.11899C5.1018 4.22699 5.1578 4.29499 5.1308 4.29499C5.1088 4.35599 5.0638 4.34199 5.0308 4.27099C4.9918 4.12048 4.97297 3.96546 4.9748 3.80999C4.9608 3.68899 4.9448 3.42999 4.8658 3.36399C4.8168 3.29799 4.7448 3.32998 4.7198 3.39098C4.71294 3.50834 4.71562 3.62606 4.7278 3.74299C4.77516 3.92857 4.80859 4.11742 4.8278 4.30798C4.8348 4.57498 4.6738 4.42399 4.6808 4.29098C4.71551 4.1222 4.71347 3.94791 4.6748 3.77998C4.6488 3.71098 4.6178 3.69399 4.5538 3.70599C4.4898 3.71799 4.3728 3.84599 4.3358 4.08199C4.31661 4.15777 4.30159 4.23456 4.2908 4.31199C4.2728 4.43399 4.1908 4.51999 4.1358 4.29499C4.0868 4.13099 4.0568 3.72698 3.9758 3.82198L3.9778 3.82699Z" fill="white"/>
<path fill-rule="evenodd" clip-rule="evenodd" d="M4.85963 5.121C4.57363 5.261 4.29662 5.391 4.01562 5.526C4.0695 5.38491 4.15961 5.26052 4.27689 5.16536C4.39417 5.0702 4.53446 5.00765 4.68362 4.98401C4.85762 4.98401 4.81363 5.052 4.85963 5.121Z" fill="white"/>
<path fill-rule="evenodd" clip-rule="evenodd" d="M4.71642 5.38501C4.27142 6.53201 5.75842 6.69101 5.92442 5.43201C5.94042 5.38001 6.00242 5.33201 6.01342 5.41301C5.97942 6.55301 4.86342 6.63201 4.67442 6.27301C4.62962 6.14964 4.60727 6.01925 4.60841 5.88801C4.58041 5.66401 4.46242 5.75001 4.44442 5.97301C4.43051 6.06464 4.42582 6.15744 4.43042 6.25001C4.49042 7.15001 5.93042 6.76401 6.15942 6.02001C6.28342 5.60801 6.13941 5.30401 6.20641 5.30601C6.34941 5.46001 6.54742 5.32601 6.59142 5.27301C6.5967 5.26493 6.60376 5.25815 6.61204 5.25318C6.62032 5.2482 6.62962 5.24517 6.63924 5.2443C6.64886 5.24344 6.65855 5.24477 6.66759 5.24818C6.67662 5.25159 6.68477 5.257 6.69141 5.26401C6.71974 5.28427 6.75228 5.29786 6.7866 5.30377C6.82092 5.30967 6.85612 5.30775 6.88959 5.29814C6.92306 5.28852 6.95392 5.27146 6.97987 5.24823C7.00581 5.22501 7.02616 5.19621 7.03941 5.16401C7.06489 5.02259 7.0806 4.87959 7.08642 4.73601C6.99542 4.76401 6.92842 4.78301 6.92242 4.82101L6.90342 4.94301C6.89542 4.98201 6.81742 4.98401 6.81442 4.93401C6.78042 4.77701 6.63741 4.75701 6.55141 5.00001C6.49341 5.04701 6.38842 5.05601 6.37742 4.98601C6.39142 4.82301 6.32542 4.80101 6.19442 4.87801C6.15242 4.55501 6.10941 4.24701 6.06741 3.92401C6.12241 3.92401 6.16742 3.96301 6.22242 3.90001C6.17591 3.70621 6.09642 3.52186 5.98742 3.35501C5.95642 3.31701 5.92942 3.34101 5.88742 3.35501C5.86677 3.36055 5.84742 3.37016 5.83051 3.38326C5.81361 3.39636 5.79949 3.4127 5.78897 3.43131C5.77845 3.44993 5.77175 3.47046 5.76925 3.4917C5.76675 3.51294 5.7685 3.53446 5.77441 3.55501C5.85541 4.05001 5.90942 4.42701 5.99042 4.92201C6.00342 4.98001 5.95442 5.05701 5.89042 5.04901C5.78342 4.97701 5.75742 4.83101 5.57542 4.83801C5.50225 4.84787 5.434 4.88034 5.3802 4.93091C5.32641 4.98147 5.28977 5.04759 5.27541 5.12001C5.24958 5.22647 5.24958 5.33755 5.27541 5.44401C5.31118 5.48647 5.35943 5.51657 5.41328 5.53003C5.46714 5.5435 5.52388 5.53964 5.57542 5.51901C5.65542 5.48601 5.72142 5.40601 5.74942 5.42501C5.77742 5.44401 5.74942 5.71201 5.37342 5.91401C5.14342 6.01401 4.95942 6.04101 4.86142 5.85301C4.80042 5.73601 4.86142 5.28901 4.71542 5.39201L4.71642 5.38501Z" fill="white"/>
<path fill-rule="evenodd" clip-rule="evenodd" d="M6.59765 4.21999C6.78243 4.06223 6.95369 3.88929 7.10965 3.70299L7.04665 3.65099C7.04149 3.64775 7.03723 3.64326 7.03428 3.63792C7.03133 3.63259 7.02978 3.62659 7.02978 3.6205C7.02978 3.6144 7.03133 3.6084 7.03428 3.60306C7.03723 3.59773 7.04149 3.59323 7.04665 3.58999C7.06639 3.57552 7.0827 3.55689 7.09444 3.53542C7.10617 3.51395 7.11305 3.49016 7.11457 3.46574C7.1161 3.44132 7.11224 3.41685 7.10327 3.39409C7.0943 3.37132 7.08043 3.3508 7.06265 3.33399C7.02725 3.3163 6.98823 3.30709 6.94865 3.30709C6.90908 3.30709 6.87005 3.3163 6.83465 3.33399C6.79866 3.36472 6.77536 3.40771 6.76927 3.45464C6.76317 3.50157 6.77471 3.54909 6.80165 3.58799C6.85765 3.61499 6.91466 3.67199 6.87666 3.70299C6.70366 3.88799 6.22965 4.20299 6.28465 4.21799C6.38833 4.23397 6.49378 4.23464 6.59765 4.21999ZM4.04665 5.933C3.97585 6.04177 3.93131 6.16552 3.91656 6.29447C3.9018 6.42342 3.91724 6.55403 3.96165 6.67599C3.98329 6.70123 4.01136 6.72014 4.04287 6.7307C4.07439 6.74127 4.10818 6.74309 4.14065 6.73599C4.18779 6.69877 4.22388 6.6494 4.24502 6.59318C4.26617 6.53697 4.27157 6.47605 4.26065 6.41699C4.22765 6.36499 4.20165 6.35699 4.16765 6.40099C4.09765 6.54299 4.06765 6.44599 4.06265 6.36599C4.05467 6.23233 4.06138 6.09819 4.08265 5.96599C4.09765 5.85299 4.07965 5.889 4.04665 5.933ZM10.8257 5.53299C10.6727 5.20299 10.4597 4.87699 10.3927 4.75099C10.3257 4.62499 9.81465 3.88499 9.73965 3.80199C9.57365 3.60199 10.0087 3.88399 9.68465 3.49299L9.45165 3.29299C9.39965 3.25599 9.27365 3.19299 9.25166 3.29999C9.24102 3.37768 9.24475 3.45666 9.26266 3.53299C9.29639 3.60566 9.34052 3.67303 9.39365 3.73299C9.93485 4.44872 10.4098 5.2122 10.8127 6.01399C10.8827 5.98099 10.8667 5.58799 10.8257 5.53299Z" fill="white"/>
<path fill-rule="evenodd" clip-rule="evenodd" d="M10.1487 6.636C10.1187 6.67 10.2227 6.815 10.3587 6.815C10.4944 6.79287 10.6221 6.73616 10.7295 6.65033C10.8368 6.5645 10.9203 6.45246 10.9717 6.325C11.0466 6.21215 11.0942 6.08342 11.1108 5.949C11.1345 5.30959 11.0834 4.66958 10.9587 4.042C10.9512 3.99775 10.9533 3.9524 10.9648 3.909C10.9798 3.891 11.0298 3.909 11.0558 3.866C11.0818 3.823 10.9557 3.498 10.8717 3.371C10.8427 3.314 10.8327 3.277 10.7857 3.378C10.7281 3.48859 10.7005 3.61239 10.7058 3.737C10.8138 4.488 10.8477 5.145 10.9187 5.896C10.9305 5.97344 10.9115 6.0524 10.8658 6.116C10.6661 6.338 10.4218 6.51522 10.1487 6.636ZM13.2207 6.636C13.0577 6.73 13.0578 6.836 13.1898 6.843C13.3211 6.84799 13.4517 6.82102 13.5703 6.76441C13.6889 6.7078 13.792 6.62325 13.8708 6.51801C13.9359 6.38665 13.9737 6.24341 13.9818 6.097C14.0135 5.46665 13.9719 4.83475 13.8578 4.214C13.8444 4.15051 13.837 4.08589 13.8358 4.021C13.8508 3.983 13.9247 4.021 13.9507 3.982C13.9767 3.943 13.7587 3.646 13.6777 3.519C13.6487 3.462 13.6387 3.425 13.5917 3.526C13.5383 3.63762 13.5215 3.76327 13.5437 3.885C13.6657 4.59641 13.7421 5.31487 13.7727 6.036C13.7662 6.1017 13.7511 6.16625 13.7278 6.228C13.6631 6.32279 13.5879 6.41 13.5038 6.488C13.4298 6.543 13.2717 6.595 13.2207 6.636Z" fill="white"/>
<path fill-rule="evenodd" clip-rule="evenodd" d="M13.3427 5.89701C13.3427 5.70601 13.3427 5.54201 13.3427 5.39701C13.341 5.27301 13.3134 5.15074 13.2617 5.03801C13.2358 4.93635 13.2224 4.83192 13.2217 4.72701C13.1997 4.61201 13.2057 4.43901 13.1727 4.30201C13.1567 4.22259 13.1474 4.14198 13.1447 4.06101C13.1577 4.02301 13.2097 4.06101 13.2347 4.01801C13.2059 3.80516 13.1326 3.60074 13.0197 3.41801C12.9887 3.36201 12.9337 3.38101 12.8647 3.47201C12.8007 3.53101 12.8247 3.67201 12.8487 3.79601C13.0261 4.5947 13.1127 5.41088 13.1067 6.22901C13.0957 6.30101 13.3447 6.02701 13.3427 5.89701ZM12.1367 4.84101C12.0367 4.84101 11.8187 4.64101 11.7567 4.52501C11.747 4.49752 11.7431 4.46833 11.7452 4.43926C11.7472 4.41019 11.7552 4.38186 11.7687 4.35601C11.8067 4.33101 11.8687 4.30401 11.9087 4.33001C11.9087 4.33001 11.9537 4.39301 11.9457 4.40101C12.0017 4.42801 12.0257 4.41201 12.0307 4.39001C12.0307 4.35001 12.0137 4.32601 12.0137 4.28201C12.0162 4.2586 12.0256 4.23646 12.0407 4.21838C12.0558 4.20031 12.0759 4.18713 12.0985 4.18049C12.1211 4.17385 12.1451 4.17406 12.1676 4.1811C12.1901 4.18814 12.2099 4.20167 12.2247 4.22001C12.2608 4.28457 12.2804 4.35705 12.2817 4.43101C12.2817 4.46501 12.2257 4.42501 12.1947 4.43101C12.1637 4.43701 12.1557 4.47501 12.1537 4.50801C12.1477 4.59401 12.1377 4.73301 12.1357 4.83801L12.1367 4.84101ZM10.2427 6.10801C10.2547 5.81666 10.2504 5.52487 10.2297 5.23401C10.2197 4.87301 10.1607 4.17501 10.1297 4.05801C10.0977 3.83801 10.2197 4.08201 10.2027 3.95801C10.1481 3.74769 10.0454 3.55292 9.9027 3.38901C9.8567 3.32401 9.8577 3.31001 9.7867 3.40501C9.73977 3.54886 9.7433 3.70443 9.79671 3.84601C9.89408 4.26831 9.95792 4.69765 9.98769 5.13001C10.0183 5.56036 10.0219 5.9922 9.99871 6.42301C10.0757 6.42301 10.1987 6.29801 10.2437 6.11101L10.2427 6.10801Z" fill="white"/>
<path fill-rule="evenodd" clip-rule="evenodd" d="M13.6935 5.694C13.5125 5.394 13.2394 5.062 13.1664 4.939C13.0934 4.816 12.4764 4.021 12.3974 3.939C12.1714 3.702 12.4974 3.9 12.3544 3.717C12.275 3.62072 12.1855 3.53322 12.0874 3.456C12.0344 3.422 12.0015 3.356 11.9875 3.468C11.978 3.5677 11.9753 3.66794 11.9794 3.768C11.9927 3.83601 12.0234 3.89941 12.0685 3.952C12.6762 4.64197 13.2201 5.38569 13.6935 6.174C13.7595 6.135 13.7365 5.748 13.6935 5.694Z" fill="white"/>
<path fill-rule="evenodd" clip-rule="evenodd" d="M5.48231 5.13402C5.46931 5.15702 5.4403 5.18601 5.4503 5.21701C5.45762 5.22872 5.46802 5.23819 5.48038 5.24437C5.49273 5.25054 5.50654 5.25319 5.5203 5.25201C5.5493 5.25201 5.5903 5.25902 5.5993 5.24202C5.60934 5.23017 5.61602 5.21586 5.61866 5.20056C5.6213 5.18526 5.61979 5.16953 5.6143 5.15501C5.6095 5.14232 5.60142 5.13114 5.5909 5.12257C5.58038 5.11401 5.56779 5.10838 5.55439 5.10624C5.54099 5.10411 5.52727 5.10555 5.51461 5.11043C5.50195 5.1153 5.49081 5.12345 5.48231 5.13402Z" fill="#1BA400"/>
<path fill-rule="evenodd" clip-rule="evenodd" d="M11.5889 9.55899C11.8309 9.56799 11.9889 9.56999 12.2049 9.59599C12.2049 9.59599 12.3909 9.57799 12.4569 9.56799C12.7369 9.54099 12.7499 9.96799 12.7499 9.96799C12.7499 10.218 12.6499 10.231 12.5269 10.258C12.4569 10.267 12.4189 10.216 12.3819 10.158C12.3219 10.178 12.2578 10.1822 12.1959 10.17C12.0959 10.164 11.9959 10.164 11.8959 10.158C11.7959 10.152 11.7319 10.169 11.6249 10.158C11.6029 10.193 11.5739 10.241 11.5089 10.225C11.4439 10.209 11.3899 10.066 11.4089 9.94999C11.4479 9.86699 11.4379 9.89299 11.4329 9.85699C10.4439 9.83199 9.44485 9.78799 8.47385 9.79999C7.71485 9.79999 6.96485 9.83499 6.21485 9.86599C6.04233 9.88818 5.867 9.86498 5.70618 9.79869C5.54537 9.7324 5.40462 9.6253 5.29785 9.48799C5.31685 9.48799 6.31885 9.54499 6.61185 9.52599C7.15385 9.51999 7.64885 9.47599 8.19985 9.45999C9.28685 9.47899 10.3649 9.47899 11.4519 9.55499C11.4253 9.53903 11.4043 9.51535 11.3915 9.4871C11.3788 9.45886 11.375 9.4274 11.3807 9.39694C11.3863 9.36649 11.4012 9.33849 11.4232 9.31669C11.4452 9.29489 11.4733 9.28034 11.5039 9.27499C11.5179 9.26599 11.5249 9.35899 11.5489 9.35699C11.6769 9.34699 11.6208 9.52099 11.5928 9.55699L11.5889 9.55899ZM7.22385 3.56699C7.05885 4.03799 7.31786 4.55299 7.49786 4.50299C7.62786 4.55699 7.70986 4.30999 7.76286 4.03999C7.79886 3.96399 7.82686 3.95599 7.84486 3.99499C7.84486 4.35399 7.87085 4.43399 7.96285 4.54299C8.01635 4.59045 8.08505 4.61724 8.15656 4.61852C8.22807 4.61981 8.29768 4.5955 8.35285 4.54999L8.51286 4.38999C8.53035 4.37241 8.55375 4.36197 8.57851 4.36068C8.60327 4.35939 8.62762 4.36734 8.64685 4.38299C8.69585 4.42799 8.68885 4.50399 8.79385 4.55799C8.84858 4.57615 8.90715 4.57943 8.96356 4.56748C9.01997 4.55553 9.07219 4.52878 9.11485 4.48999C9.17385 4.38999 9.18785 4.35399 9.21485 4.31599C9.25685 4.25999 9.32885 4.28499 9.32885 4.30299C9.32885 4.32099 9.27985 4.36499 9.30885 4.42199C9.35885 4.45899 9.36986 4.43499 9.39986 4.42699C9.49986 4.37699 9.58286 4.14999 9.58286 4.14999C9.58286 4.06499 9.53985 4.07199 9.50885 4.08999C9.47785 4.10799 9.46585 4.12199 9.42585 4.14699C9.37485 4.15499 9.27585 4.18799 9.22585 4.11299C9.19066 4.01098 9.16095 3.90717 9.13686 3.80199C9.13686 3.79499 9.07086 3.65699 9.13686 3.64799C9.16786 3.65399 9.23685 3.67099 9.24485 3.61499C9.27785 3.55999 9.17485 3.40599 9.10485 3.32799C9.09109 3.31153 9.07401 3.29817 9.05472 3.28879C9.03543 3.27941 9.01436 3.27421 8.99292 3.27355C8.97148 3.27289 8.95015 3.27678 8.93031 3.28495C8.91048 3.29313 8.8926 3.30541 8.87785 3.32099C8.82085 3.37399 8.82886 3.43199 8.81786 3.48799C8.80841 3.52734 8.80829 3.56835 8.81749 3.60776C8.82669 3.64717 8.84496 3.68389 8.87085 3.71499C8.96646 3.84876 9.01147 4.01213 8.99786 4.17599C8.97991 4.20348 8.95501 4.22574 8.92567 4.2405C8.89634 4.25525 8.86363 4.26197 8.83086 4.25999C8.78686 4.24999 8.71485 4.23199 8.67685 3.94899C8.64785 3.73499 8.68385 3.43599 8.59285 3.29599C8.55985 3.21099 8.53586 3.12899 8.45586 3.27399C8.42156 3.31918 8.39926 3.37231 8.39104 3.42844C8.38283 3.48457 8.38895 3.54187 8.40885 3.59499C8.47973 3.68818 8.51434 3.80396 8.50625 3.92076C8.49815 4.03757 8.44791 4.14746 8.36485 4.22999C8.34003 4.25727 8.30644 4.275 8.26991 4.28012C8.23338 4.28523 8.19622 4.2774 8.16486 4.25799C8.13195 4.24194 8.10361 4.21786 8.08247 4.18797C8.06132 4.15809 8.04804 4.12336 8.04385 4.08699C8.05933 3.90289 8.05296 3.71759 8.02486 3.53499C8.01889 3.51901 8.00892 3.50481 7.99592 3.49377C7.98291 3.48272 7.9673 3.47519 7.95056 3.47188C7.93382 3.46857 7.91652 3.46961 7.90029 3.47488C7.88406 3.48015 7.86946 3.48948 7.85786 3.50199C7.70184 3.6773 7.59793 3.89275 7.55785 4.12399C7.51085 4.27499 7.45785 4.23199 7.42585 4.17099C7.34085 4.09099 7.33485 3.47099 7.23185 3.57099L7.22385 3.56699Z" fill="white"/>
<path fill-rule="evenodd" clip-rule="evenodd" d="M7.72034 4.58999C7.79534 4.53699 7.76034 4.5 7.87234 4.612C8.01554 4.86442 8.09901 5.1463 8.11634 5.436C8.11034 5.504 8.15834 5.547 8.18034 5.536C8.19334 5.377 8.58034 5.156 8.93434 5.123C8.98834 5.111 8.96234 5.007 8.97134 4.954C8.96167 4.90759 8.96233 4.85961 8.97327 4.81348C8.98422 4.76735 9.00519 4.7242 9.03469 4.68709C9.06419 4.64997 9.10151 4.61981 9.14397 4.59874C9.18644 4.57766 9.23303 4.5662 9.28043 4.56515C9.32782 4.56411 9.37487 4.57351 9.41823 4.59269C9.46158 4.61187 9.50019 4.64036 9.5313 4.67614C9.5624 4.71192 9.58525 4.7541 9.59822 4.7997C9.61119 4.8453 9.61397 4.89321 9.60635 4.94C9.57935 5.333 9.16935 5.4 8.93935 5.432C8.90435 5.445 8.88935 5.462 8.93935 5.481H9.90434L9.95335 5.509C9.95935 5.532 9.93934 5.50899 9.90134 5.57599C9.8479 5.66813 9.81387 5.77023 9.80135 5.876C9.51175 5.96052 9.21473 6.01711 8.91434 6.045C8.80934 6.098 8.75734 6.169 8.77934 6.245C8.80134 6.321 9.04734 6.422 9.04734 6.426C9.09134 6.454 9.14735 6.518 9.03535 6.651C8.84487 6.66175 8.65501 6.62099 8.48573 6.533C8.31645 6.44502 8.174 6.31306 8.07334 6.151C8.03534 6.121 7.99435 6.151 7.96835 6.189C7.80433 6.44078 7.56798 6.63704 7.29034 6.752C7.20605 6.77393 7.11725 6.77138 7.03436 6.74463C6.95147 6.71789 6.87792 6.66806 6.82234 6.601C6.76234 6.531 6.76435 6.454 6.74235 6.438C6.64235 6.483 5.77235 6.852 5.88235 6.68C6.16317 6.44796 6.46439 6.24179 6.78234 6.064C6.80534 5.989 6.84834 5.736 6.97534 5.653C6.98234 5.653 6.95534 5.802 6.95834 5.864C6.96134 5.926 6.95835 5.935 6.96535 5.922C7.13093 5.803 7.28021 5.6628 7.40935 5.505C7.44735 5.451 7.42034 5.313 7.42034 5.305C7.34634 5.115 7.24335 5.099 7.20535 5.005C7.17135 4.88 7.18635 4.737 7.25835 4.697C7.27251 4.68357 7.28928 4.67319 7.30761 4.66649C7.32594 4.65979 7.34545 4.65691 7.36494 4.65803C7.38442 4.65916 7.40347 4.66426 7.42091 4.67303C7.43835 4.68179 7.45382 4.69403 7.46635 4.709C7.5514 4.79521 7.61033 4.90372 7.63634 5.022C7.62234 5.063 7.53634 4.995 7.50134 5.015C7.55218 5.07137 7.58674 5.1405 7.60134 5.21499C7.64972 5.35906 7.64403 5.51581 7.58534 5.656C7.45689 5.91665 7.24981 6.13037 6.99335 6.267C6.98998 6.29436 6.99428 6.32213 7.00575 6.3472C7.01723 6.37227 7.03543 6.39366 7.05834 6.40899C7.09702 6.42638 7.13894 6.43537 7.18134 6.43537C7.22375 6.43537 7.26567 6.42638 7.30434 6.40899C7.55841 6.2679 7.76377 6.05313 7.89334 5.793C7.91519 5.59632 7.89334 5.39725 7.82935 5.21C7.75235 5.033 7.66235 4.781 7.66235 4.777C7.66235 4.667 7.66835 4.629 7.71635 4.577L7.72034 4.58999ZM5.19434 3.571C5.30534 3.624 5.51434 3.601 5.50534 3.422C5.50534 3.406 5.50534 3.353 5.49934 3.338C5.47634 3.285 5.41435 3.298 5.39935 3.353C5.39935 3.371 5.40734 3.39999 5.39134 3.40899C5.37534 3.41799 5.34634 3.409 5.34834 3.363C5.34623 3.34715 5.33964 3.33223 5.32935 3.32C5.32231 3.31523 5.3138 3.3131 5.30534 3.314C5.28934 3.314 5.29034 3.314 5.28134 3.332C5.27646 3.34518 5.27344 3.35898 5.27235 3.373C5.27235 3.391 5.26334 3.397 5.25034 3.399C5.23734 3.401 5.23934 3.399 5.22734 3.393C5.21534 3.387 5.21134 3.382 5.21134 3.369C5.21136 3.35406 5.209 3.3392 5.20435 3.325C5.19729 3.3171 5.18778 3.31181 5.17735 3.31C5.11635 3.31 5.11234 3.379 5.11634 3.41C5.11434 3.413 5.10734 3.536 5.19434 3.571Z" fill="white"/>
<path fill-rule="evenodd" clip-rule="evenodd" d="M8.4502 4.94998C8.5612 5.00298 8.82519 4.97199 8.76119 4.80099C8.76119 4.78499 8.7612 4.73199 8.7552 4.71699C8.7322 4.66399 8.6712 4.67699 8.6552 4.73199C8.6552 4.74999 8.66319 4.77899 8.64719 4.78799C8.63119 4.79699 8.60219 4.78798 8.60419 4.74198C8.60208 4.72614 8.59549 4.71122 8.5852 4.69899C8.57816 4.69421 8.56965 4.69209 8.5612 4.69299C8.5452 4.69299 8.54619 4.69299 8.53719 4.71099C8.53231 4.72417 8.52928 4.73797 8.52819 4.75199C8.52819 4.76999 8.5192 4.77599 8.5062 4.77799C8.4932 4.77999 8.49519 4.77799 8.48319 4.77199C8.47119 4.76599 8.4672 4.76099 8.4672 4.74799C8.46721 4.73304 8.46485 4.71819 8.4602 4.70399C8.45314 4.69609 8.44364 4.69081 8.4332 4.68899C8.3722 4.68899 8.3682 4.75799 8.3722 4.78899C8.3702 4.79399 8.3672 4.91498 8.4502 4.94998ZM10.3502 4.37999C10.4612 4.43299 10.6702 4.40999 10.6612 4.23099C10.6612 4.21499 10.6612 4.16199 10.6552 4.14699C10.6322 4.09399 10.5702 4.10699 10.5552 4.16199C10.5552 4.17999 10.5632 4.20899 10.5472 4.21799C10.5312 4.22699 10.5022 4.21798 10.5042 4.17198C10.5021 4.15614 10.4955 4.14122 10.4852 4.12899C10.4782 4.12421 10.4697 4.12209 10.4612 4.12299C10.4452 4.12299 10.4462 4.12299 10.4372 4.14099C10.4323 4.15417 10.4293 4.16797 10.4282 4.18199C10.4282 4.19999 10.4192 4.20599 10.4062 4.20799C10.3932 4.20999 10.3952 4.20799 10.3832 4.20199C10.3712 4.19599 10.3672 4.19099 10.3672 4.17799C10.3672 4.16304 10.3648 4.14819 10.3602 4.13399C10.3531 4.12609 10.3436 4.12081 10.3332 4.11899C10.2722 4.11899 10.2682 4.18799 10.2722 4.21899C10.2682 4.22099 10.2662 4.34499 10.3482 4.37899L10.3502 4.37999ZM11.3332 5.81299C11.2672 5.90786 11.2266 6.01809 11.2154 6.13313C11.2042 6.24817 11.2227 6.36416 11.2692 6.46999C11.3131 6.58697 11.3981 6.684 11.5082 6.74299C11.5258 6.75898 11.5466 6.77105 11.5691 6.77842C11.5917 6.78579 11.6156 6.78828 11.6393 6.78573C11.6629 6.78318 11.6857 6.77564 11.7062 6.76362C11.7267 6.7516 11.7444 6.73537 11.7582 6.71599C11.8722 6.59799 11.8732 6.29699 11.9272 6.23699C11.9308 6.21795 11.9398 6.20036 11.9531 6.18634C11.9665 6.17233 11.9837 6.1625 12.0025 6.15805C12.0214 6.15361 12.0411 6.15472 12.0593 6.16128C12.0776 6.16784 12.0935 6.17955 12.1052 6.19499C12.1467 6.25442 12.2024 6.30255 12.2672 6.33499C12.3137 6.3819 12.3756 6.4103 12.4415 6.4149C12.5074 6.4195 12.5727 6.39999 12.6252 6.35999C12.7159 6.30907 12.7841 6.22589 12.8162 6.12699C12.8561 5.71446 12.8604 5.29926 12.8292 4.88599C12.8292 4.85399 12.7192 4.32699 12.7192 4.32099C12.7192 4.31499 12.7052 4.05199 12.6932 3.98899C12.6932 3.96399 12.6852 3.95599 12.7112 3.95899C12.7256 3.97315 12.7425 3.98436 12.7612 3.99198C12.7902 3.99698 12.8152 3.94899 12.7982 3.90399L12.5332 3.41499C12.5122 3.39399 12.4842 3.37099 12.4512 3.42099C12.4306 3.43911 12.4142 3.46144 12.403 3.48645C12.3918 3.51146 12.386 3.53858 12.3862 3.56599C12.3942 3.68199 12.4142 3.79999 12.4222 3.91499L12.5282 4.50999C12.5612 4.93399 12.5702 5.28099 12.6032 5.70499C12.6032 5.88399 12.5432 6.04099 12.4902 6.06399C12.4902 6.06399 12.4102 6.10999 12.3572 6.06399C12.2839 5.98444 12.2189 5.89766 12.1632 5.80499C12.1522 5.79048 12.138 5.77872 12.1217 5.77063C12.1054 5.76253 12.0874 5.75832 12.0692 5.75832C12.051 5.75832 12.033 5.76253 12.0167 5.77063C12.0004 5.77872 11.9862 5.79048 11.9752 5.80499C11.8365 5.99788 11.7248 6.20883 11.6432 6.43199C11.6162 6.47499 11.5432 6.51199 11.4532 6.43199C11.3377 6.24735 11.2946 6.0265 11.3322 5.81198L11.3332 5.81299ZM10.4002 3.34099C10.453 3.37971 10.4944 3.43184 10.5203 3.49197C10.5461 3.5521 10.5554 3.61805 10.5472 3.68299C10.5272 3.80499 10.4742 3.93599 10.4362 3.91899C10.3982 3.90199 10.4642 3.79798 10.4242 3.68698C10.4022 3.61498 10.2662 3.48699 10.2812 3.44399C10.2512 3.36099 10.3372 3.32499 10.3982 3.33999L10.4002 3.34099Z" fill="white"/>
<path fill-rule="evenodd" clip-rule="evenodd" d="M11.6521 5.93199C11.6609 5.75438 11.6539 5.57634 11.6311 5.39999C11.6251 5.25799 11.4701 4.17199 11.4391 4.06499C11.4011 3.86499 11.5891 4.03798 11.5691 3.91898C11.5041 3.76998 11.3421 3.55198 11.2911 3.41898C11.2601 3.36298 11.2731 3.31899 11.2051 3.40399C11.1459 3.56566 11.125 3.73888 11.1441 3.90999C11.3345 4.6859 11.4352 5.4811 11.4441 6.27998C11.5211 6.27998 11.6111 6.10299 11.6441 5.92699L11.6521 5.93199ZM13.3521 3.68298C13.4431 3.72798 13.4961 3.98299 13.4861 4.05299C13.4681 4.18499 13.4201 4.32698 13.3861 4.30898C13.3521 4.29098 13.3941 4.10898 13.3751 4.05798C13.3551 3.97998 13.2311 3.83698 13.2441 3.79498C13.2383 3.77974 13.2369 3.76316 13.2402 3.74718C13.2435 3.7312 13.2512 3.71648 13.2626 3.70474C13.2739 3.69299 13.2883 3.68472 13.3042 3.68086C13.32 3.67701 13.3366 3.67775 13.3521 3.68298ZM6.61107 5.47399C6.69807 5.50699 6.74907 5.69299 6.73907 5.74599C6.72207 5.84599 6.67607 5.94598 6.63907 5.93398C6.60207 5.92198 6.64607 5.78999 6.62907 5.74899C6.62207 5.64899 6.50107 5.59899 6.50407 5.55599C6.48207 5.47699 6.55408 5.46299 6.60408 5.47399H6.61107Z" fill="white"/>
<path fill-rule="evenodd" clip-rule="evenodd" d="M8.70731 5.753C8.81931 5.76 8.87531 5.848 8.77031 5.885C8.66531 5.922 8.57032 5.948 8.57032 6.098C8.60832 6.306 8.51831 6.23501 8.46331 6.20701C8.39171 6.16592 8.33039 6.10909 8.28397 6.04084C8.23754 5.97259 8.20723 5.89468 8.19532 5.813C8.19521 5.79879 8.19813 5.78472 8.20389 5.77174C8.20965 5.75875 8.2181 5.74714 8.2287 5.73768C8.2393 5.72822 8.2518 5.72112 8.26535 5.71687C8.27891 5.71261 8.29321 5.7113 8.30731 5.71301C8.43949 5.73694 8.57312 5.75198 8.70731 5.758V5.753Z" fill="#1B9D00"/>
<path fill-rule="evenodd" clip-rule="evenodd" d="M4.29123 3.28C4.41923 3.319 4.42723 3.50701 4.41723 3.56201C4.40023 3.66201 4.35523 3.77101 4.32223 3.75701C4.28923 3.74301 4.32223 3.608 4.30423 3.566C4.28523 3.506 4.17723 3.398 4.18923 3.366C4.16523 3.297 4.23923 3.268 4.29123 3.28ZM6.81923 4.167C6.77168 4.19874 6.73765 4.24705 6.72379 4.30251C6.70992 4.35798 6.71721 4.41662 6.74423 4.467C6.76243 4.49063 6.78739 4.50816 6.81578 4.51727C6.84418 4.52638 6.87468 4.52663 6.90323 4.518C7.00323 4.53 7.05623 4.338 7.05623 4.338C7.05623 4.338 7.05623 4.284 6.94523 4.386C6.89723 4.395 6.89123 4.377 6.87923 4.35C6.86777 4.2997 6.87304 4.24703 6.89423 4.2C6.91223 4.155 6.87523 4.134 6.82123 4.167H6.81923ZM7.55623 3.207C7.51463 3.23589 7.47964 3.2733 7.45361 3.31675C7.42757 3.3602 7.41108 3.40869 7.40523 3.459C7.40523 3.525 7.39023 3.525 7.43323 3.567C7.47623 3.609 7.49623 3.608 7.55923 3.575C7.57497 3.56516 7.58851 3.55217 7.59901 3.53686C7.60951 3.52155 7.61673 3.50423 7.62023 3.486C7.63523 3.411 7.54123 3.52201 7.52923 3.43801C7.51723 3.35401 7.56923 3.329 7.62923 3.253C7.62823 3.205 7.62723 3.165 7.55623 3.205V3.207ZM8.15023 3.31201C8.12665 3.40775 8.11225 3.50553 8.10723 3.60401C8.09023 3.67701 8.18423 3.704 8.22623 3.614C8.26833 3.51276 8.29139 3.40461 8.29423 3.295C8.27523 3.185 8.19923 3.18901 8.15023 3.31201ZM11.8922 5.212C11.9052 5.199 12.4192 4.834 12.4192 4.834C12.4712 4.816 12.4602 5.02301 12.4362 5.02101C12.2766 5.17572 12.0929 5.30339 11.8922 5.399C11.8662 5.417 11.8412 5.257 11.8922 5.212ZM12.3612 5.212C12.4522 5.257 12.4882 5.522 12.4782 5.595C12.4782 5.735 12.3912 5.848 12.3562 5.829C12.3212 5.81 12.3562 5.655 12.3412 5.599C12.3212 5.521 12.2412 5.374 12.2572 5.332C12.2513 5.31682 12.2496 5.3003 12.2524 5.28423C12.2552 5.26816 12.2623 5.25317 12.2731 5.24088C12.2838 5.2286 12.2977 5.2195 12.3132 5.21459C12.3288 5.20967 12.3454 5.20812 12.3612 5.212ZM9.30123 6.355C9.3444 6.30531 9.3946 6.26218 9.45023 6.227C9.4669 6.22066 9.48496 6.21889 9.50254 6.22188C9.52013 6.22487 9.53659 6.23251 9.55023 6.244C9.55823 6.295 9.51823 6.344 9.53023 6.411C9.54123 6.438 9.54923 6.469 9.60023 6.457C9.66906 6.40576 9.75352 6.37997 9.83923 6.384C9.90223 6.384 9.90423 6.494 9.86423 6.495C9.75215 6.52241 9.64297 6.56059 9.53823 6.609C9.52348 6.61839 9.50591 6.62232 9.48857 6.62013C9.47122 6.61794 9.45519 6.60976 9.44323 6.597C9.43305 6.58261 9.42685 6.56577 9.42527 6.54821C9.42369 6.53065 9.42678 6.51298 9.43423 6.497C9.43423 6.443 9.41623 6.413 9.37123 6.419C9.32623 6.425 9.30723 6.45001 9.29023 6.41001C9.27323 6.37001 9.27923 6.373 9.30023 6.356L9.30123 6.355ZM12.9012 6.498C12.9084 6.5042 12.9142 6.51187 12.9181 6.5205C12.9221 6.52913 12.9242 6.53851 12.9242 6.548C12.9242 6.55749 12.9221 6.56687 12.9181 6.5755C12.9142 6.58413 12.9084 6.5918 12.9012 6.598C12.8652 6.631 12.8392 6.649 12.8012 6.682C12.7842 6.711 12.7732 6.755 12.8252 6.769C12.9252 6.796 13.1442 6.652 13.1442 6.649C13.1554 6.63977 13.1634 6.6273 13.1671 6.61334C13.1709 6.59937 13.1702 6.58458 13.1652 6.571C13.1442 6.547 13.0972 6.561 13.0652 6.557C13.0502 6.557 13.0002 6.549 13.0242 6.505C13.0413 6.4811 13.0548 6.45482 13.0642 6.427C13.0792 6.394 13.0642 6.37201 13.0122 6.35401C12.9665 6.34651 12.9199 6.34651 12.8742 6.35401C12.8412 6.36101 12.8302 6.376 12.8242 6.416C12.8272 6.478 12.8642 6.475 12.9022 6.499L12.9012 6.498Z" fill="white"/>
<path fill-rule="evenodd" clip-rule="evenodd" d="M9.31996 5.003C9.30596 5.027 9.25795 5.026 9.21295 5.003C9.16795 4.98 9.14296 4.93601 9.15796 4.91201C9.17296 4.88801 9.21996 4.88901 9.26496 4.91201C9.30996 4.93501 9.33396 4.979 9.31996 5.003ZM6.97096 3.59001C6.95399 3.59073 6.93724 3.58597 6.92319 3.57642C6.90914 3.56687 6.89854 3.55305 6.89296 3.53701C6.87696 3.50101 6.88496 3.467 6.91196 3.46C6.92893 3.45928 6.94568 3.46404 6.95973 3.47359C6.97378 3.48314 6.98439 3.49696 6.98996 3.513C7.00196 3.549 7.00196 3.585 6.97096 3.585V3.59001Z" fill="#259F00"/>
<path fill-rule="evenodd" clip-rule="evenodd" d="M11.6173 9.88699C11.8643 9.89899 12.0953 9.88701 12.3423 9.90201C12.3873 9.94001 12.3553 10.033 12.3253 10.027L12.1183 10.021C12.1183 9.942 11.9184 9.955 11.9184 10.021C11.8136 10.0269 11.7086 10.0242 11.6043 10.013C11.5753 9.976 11.5753 9.90399 11.6173 9.88699Z" fill="#209000"/>
</g>
</svg>
