<svg width="21" height="21" viewBox="0 0 21 21" fill="none" xmlns="http://www.w3.org/2000/svg">
<path d="M17.996 8.00022H3.00516C2.70184 8.00085 2.40256 8.06989 2.12961 8.20218C1.85666 8.33448 1.61706 8.52662 1.42864 8.76433C1.24148 9.00173 1.11067 9.27854 1.04609 9.57387C0.981508 9.8692 0.984836 10.1753 1.05582 10.4692L2.66315 17.0504C2.89545 17.8985 3.40081 18.6464 4.10102 19.1784C4.80147 19.7114 5.65906 20 6.54129 20H14.4578C15.34 20 16.1976 19.7114 16.8981 19.1784C17.5983 18.6464 18.1036 17.8985 18.3359 17.0504L19.9433 10.4702C20.0515 10.0266 20.004 9.55928 19.8088 9.14647C19.6136 8.73367 19.2825 8.40043 18.871 8.20254C18.5976 8.06989 18.2978 8.00073 17.9939 8.00022M6.48172 11.9995V15.9997M10.5006 11.9995V15.9997M14.5194 11.9995V15.9997M17.5338 8.00022C17.5335 7.08005 17.3513 6.16902 16.9977 5.31949C16.6441 4.46995 16.1261 3.69867 15.4735 3.04995C14.152 1.73625 12.364 0.999219 10.5006 1C8.63712 0.999219 6.84917 1.73625 5.5276 3.04995C4.87518 3.69875 4.3574 4.47008 4.00401 5.31961C3.65061 6.16913 3.46858 7.08012 3.46836 8.00022" stroke="#204F38" stroke-width="2" stroke-linecap="round" stroke-linejoin="round"/>
</svg>
