<svg width="40" height="23" viewBox="0 0 40 23" fill="none" xmlns="http://www.w3.org/2000/svg">
<path d="M39.5 3.25834C39.4974 2.39491 39.1215 1.56755 38.4547 0.957014C37.7878 0.34648 36.8841 0.00241586 35.941 0H3.559C2.61591 0.00241586 1.71219 0.34648 1.04532 0.957014C0.378451 1.56755 0.00263878 2.39491 0 3.25834V19.2259C0.00263878 20.0894 0.378451 20.9167 1.04532 21.5273C1.71219 22.1378 2.61591 22.4819 3.559 22.4843H35.941C36.8841 22.4819 37.7878 22.1378 38.4547 21.5273C39.1215 20.9167 39.4974 20.0894 39.5 19.2259V3.25834ZM38.077 19.2259C38.0754 19.7439 37.85 20.2402 37.4499 20.6065C37.0499 20.9727 36.5078 21.1791 35.942 21.1806H3.559C2.99308 21.1794 2.45069 20.9731 2.05043 20.6068C1.65017 20.2405 1.42458 19.744 1.423 19.2259V3.25834C1.42458 2.74038 1.65003 2.24405 2.05008 1.8778C2.45012 1.51155 2.99225 1.30515 3.558 1.3037H35.941C36.5068 1.30515 37.0489 1.51155 37.4489 1.8778C37.849 2.24405 38.0744 2.74038 38.076 3.25834L38.077 19.2259Z" fill="#3B97D3"/>
<path d="M7.57977 2.50976C7.57977 2.31384 7.54377 1.96045 7.54377 1.96045H6.83477C6.89282 2.13844 6.91684 2.32428 6.90577 2.50976C6.91147 3.009 6.80875 3.5043 6.60357 3.96689C6.3984 4.42947 6.09487 4.85012 5.71061 5.20439C5.32635 5.55866 4.86902 5.83949 4.3652 6.03056C3.86137 6.22163 3.3211 6.31914 2.77577 6.31741C2.57328 6.32472 2.3708 6.30278 2.17577 6.25241V6.90426C2.37018 6.95741 2.57317 6.9794 2.77577 6.96926C4.05814 6.95934 5.28391 6.48437 6.18441 5.64844C7.08491 4.81251 7.58669 3.68382 7.57977 2.50976ZM2.73477 15.2483C2.52077 15.2483 2.13477 15.2813 2.13477 15.2813V15.9304C2.32918 15.8772 2.53217 15.8552 2.73477 15.8654C3.85144 15.8832 4.91529 16.3039 5.69503 17.0359C6.47478 17.7679 6.90737 18.7522 6.89877 19.7746C6.89877 20.0026 6.82776 20.1656 6.79177 20.4915H7.50377C7.53976 20.1656 7.57477 19.9706 7.57477 19.7746C7.58335 18.5881 7.07954 17.4464 6.17303 16.5983C5.26652 15.7502 4.03073 15.2643 2.73477 15.2465V15.2483ZM36.0428 6.25607C35.4973 6.26117 34.9561 6.16695 34.4508 5.97889C33.9454 5.79082 33.486 5.51266 33.0991 5.16058C32.7122 4.80851 32.4056 4.38953 32.1971 3.92801C31.9887 3.4665 31.8825 2.97164 31.8848 2.47222C31.8768 2.28684 31.9007 2.10147 31.9558 1.92291H31.2438C31.2047 2.10368 31.1926 2.28847 31.2078 2.47222C31.2018 3.05715 31.3227 3.63735 31.5634 4.17921C31.8041 4.72108 32.1598 5.21383 32.6099 5.62895C33.0601 6.04406 33.5958 6.37328 34.1859 6.59753C34.776 6.82179 35.4088 6.93662 36.0478 6.93539C36.3723 6.92407 36.6945 6.88048 37.0088 6.80538V6.12149C36.6983 6.21233 36.3737 6.25624 36.0478 6.25149L36.0428 6.25607ZM36.0428 15.8993C36.3687 15.8945 36.6933 15.9384 37.0038 16.0293V15.3124C36.6883 15.2477 36.3661 15.2148 36.0428 15.2144C34.7385 15.2342 33.4954 15.7243 32.5835 16.5783C31.6716 17.4324 31.1647 18.5813 31.1728 19.7756C31.1728 20.0035 31.2088 20.1665 31.2438 20.4924H31.9558C31.9198 20.1665 31.8488 19.9715 31.8488 19.7756C31.8736 18.7599 32.323 17.7916 33.1044 17.0703C33.8858 16.349 34.9396 15.9295 36.0488 15.8983L36.0428 15.8993Z" fill="#3B97D3"/>
<path d="M19.5715 3.32361C17.8965 3.32361 16.2591 3.77835 14.8664 4.63032C13.4737 5.48229 12.3882 6.69322 11.7472 8.11C11.1062 9.52677 10.9385 11.0858 11.2653 12.5898C11.592 14.0938 12.3986 15.4754 13.5831 16.5597C14.7675 17.6441 16.2765 18.3825 17.9193 18.6817C19.5621 18.9809 21.265 18.8273 22.8125 18.2405C24.36 17.6536 25.6827 16.6599 26.6133 15.3848C27.5438 14.1097 28.0405 12.6107 28.0405 11.0772C28.0408 10.0589 27.8219 9.05053 27.3964 8.10971C26.9709 7.1689 26.3471 6.31406 25.5606 5.59403C24.7741 4.874 23.8404 4.30289 22.8128 3.91332C21.7852 3.52375 20.6838 3.32337 19.5715 3.32361ZM19.5715 18.2127C18.0326 18.2158 16.5272 17.8007 15.2461 17.0199C13.965 16.2391 12.9658 15.1279 12.3751 13.8268C11.7844 12.5258 11.6287 11.0935 11.9278 9.71138C12.2268 8.32926 12.9672 7.05949 14.055 6.06288C15.1429 5.06626 16.5294 4.38764 18.0388 4.11297C19.5483 3.83829 21.1128 3.97991 22.5343 4.51989C23.9558 5.05987 25.1702 5.97393 26.0239 7.14628C26.8775 8.31864 27.3319 9.69656 27.3295 11.1055C27.3261 12.9887 26.5078 14.7939 25.0538 16.126C23.5998 17.458 21.6285 18.2084 19.5715 18.2127Z" fill="#2C3E50"/>
<path d="M18.8604 14.2376C18.3446 14.1794 17.8477 14.0235 17.4014 13.7799L17.8644 12.7728C18.2777 13.0528 18.7736 13.2124 19.2874 13.2305C19.9994 13.2305 20.3554 13.0026 20.3554 12.5467C20.3455 12.3155 20.2442 12.0956 20.0704 11.9278C19.774 11.6532 19.4239 11.4321 19.0384 11.2759C18.6663 11.125 18.319 10.9275 18.0064 10.6891C17.8255 10.5338 17.6803 10.3471 17.5794 10.1397C17.4779 9.92407 17.4294 9.69059 17.4374 9.45586C17.4203 9.08647 17.5605 8.72544 17.8284 8.44878C18.1215 8.17021 18.49 7.96773 18.8964 7.86193V7.16797H19.9964V7.85186C20.4493 7.87172 20.8896 7.99476 21.2774 8.20983L20.9214 9.15465C20.534 8.88085 20.0587 8.73184 19.5694 8.73076C19.4536 8.72263 19.3373 8.73577 19.2272 8.76941C19.1172 8.80306 19.0155 8.85654 18.9284 8.92669C18.7857 9.0682 18.7089 9.25509 18.7144 9.44762C18.7144 9.80559 19.1414 10.1645 20.0314 10.5554C20.3893 10.698 20.7255 10.8827 21.0314 11.1047C21.2355 11.263 21.3944 11.4644 21.4944 11.6916C21.599 11.9407 21.6473 12.2067 21.6364 12.4734C21.6414 12.8576 21.4891 13.2297 21.2094 13.5162C20.8697 13.7954 20.4697 14.0063 20.0354 14.1351V14.9819H18.9674V14.233L18.8604 14.2376Z" fill="#3B97D3"/>
</svg>
