<svg width="39" height="23" viewBox="0 0 39 23" fill="none" xmlns="http://www.w3.org/2000/svg">
<path d="M38.2203 2.28521V20.5956C38.2192 21.0113 38.0384 21.4096 37.7174 21.7035C37.3964 21.9974 36.9613 22.1629 36.5073 22.1639H2.49328C2.26821 22.1643 2.04528 22.1239 1.83727 22.0453C1.62926 21.9666 1.44027 21.8511 1.28112 21.7054C1.12198 21.5597 0.995812 21.3866 0.909866 21.1962C0.823919 21.0058 0.779881 20.8017 0.780276 20.5956V2.28521C0.779881 2.07916 0.823919 1.87506 0.909866 1.68462C0.995812 1.49419 1.12198 1.32116 1.28112 1.17545C1.44027 1.02975 1.62926 0.914248 1.83727 0.835563C2.04528 0.756877 2.26821 0.71656 2.49328 0.716921H36.5073C36.9601 0.721444 37.3929 0.888126 37.7131 1.18126C38.0333 1.4744 38.2153 1.87068 38.2203 2.28521Z" fill="#F05B76"/>
<path opacity="0.1" d="M38.2203 2.28338V20.5938C38.2192 21.0094 38.0384 21.4078 37.7174 21.7017C37.3964 21.9956 36.9613 22.1611 36.5073 22.1621H2.49328C2.26805 22.1624 2.04495 22.1221 1.83681 22.0433C1.62867 21.9645 1.43959 21.8488 1.28042 21.7029C1.12124 21.557 0.995122 21.3838 0.909294 21.1931C0.823466 21.0025 0.779622 20.7982 0.780281 20.592V19.9255H13.5643C19.3633 19.9089 24.9618 17.9811 29.3353 14.4947C33.7088 11.0083 36.5647 6.19666 37.3803 0.940308C37.6368 1.07695 37.8494 1.27301 37.9969 1.50878C38.1443 1.74454 38.2214 2.0117 38.2203 2.28338Z" fill="#010101"/>
<path d="M38.2203 4.84576H0.780273V9.18533H38.2203V4.84576Z" fill="#3F5176"/>
<path d="M13.4761 13.1212H5.13109C5.03129 13.1212 4.93246 13.1392 4.84025 13.1742C4.74805 13.2091 4.66426 13.2604 4.59369 13.325C4.52312 13.3896 4.46714 13.4663 4.42895 13.5507C4.39075 13.6352 4.37109 13.7256 4.37109 13.817V18.1767C4.37109 18.3613 4.45116 18.5382 4.59369 18.6687C4.73622 18.7992 4.92953 18.8725 5.13109 18.8725H13.4761C13.6777 18.8725 13.871 18.7992 14.0135 18.6687C14.156 18.5382 14.2361 18.3613 14.2361 18.1767V13.817C14.2361 13.6325 14.156 13.4555 14.0135 13.325C13.871 13.1945 13.6777 13.1212 13.4761 13.1212Z" fill="#F5C560"/>
<path d="M34.6294 16.9371V18.5622C34.6286 18.6443 34.5926 18.7228 34.5292 18.7808C34.4658 18.8389 34.38 18.8718 34.2904 18.8725H21.2094C21.1642 18.8732 21.1193 18.8656 21.0773 18.8503C21.0353 18.8351 20.997 18.8124 20.9646 18.7835C20.9322 18.7547 20.9063 18.7203 20.8884 18.6824C20.8705 18.6444 20.861 18.6035 20.8604 18.5622V16.9371C20.861 16.8958 20.8705 16.8549 20.8884 16.817C20.9063 16.779 20.9322 16.7446 20.9646 16.7158C20.997 16.687 21.0353 16.6643 21.0773 16.649C21.1193 16.6337 21.1642 16.6262 21.2094 16.6268H34.2914C34.3808 16.6277 34.4664 16.6608 34.5296 16.7188C34.5927 16.7768 34.6286 16.8552 34.6294 16.9371ZM34.6294 12.8173V14.4423C34.6286 14.5244 34.5926 14.603 34.5292 14.661C34.4658 14.7191 34.38 14.752 34.2904 14.7527H26.3394C26.2942 14.7533 26.2493 14.7458 26.2073 14.7305C26.1653 14.7152 26.127 14.6925 26.0946 14.6637C26.0622 14.6349 26.0363 14.6005 26.0184 14.5625C26.0005 14.5245 25.991 14.4837 25.9904 14.4423V12.8136C25.991 12.7723 26.0005 12.7314 26.0184 12.6935C26.0363 12.6555 26.0622 12.6211 26.0946 12.5923C26.127 12.5634 26.1653 12.5408 26.2073 12.5255C26.2493 12.5102 26.2942 12.5027 26.3394 12.5033H34.2914C34.3808 12.5042 34.4664 12.5373 34.5296 12.5953C34.5927 12.6533 34.6286 12.7317 34.6294 12.8136V12.8173Z" fill="#DAEAF8"/>
<path d="M36.5059 0.5L36.707 0.509766C37.1733 0.553221 37.6059 0.741677 37.9307 1.03906C38.3001 1.37744 38.4987 1.8264 38.5 2.28418V20.5938C38.4976 21.0506 38.2987 21.4984 37.9297 21.8359C37.5588 22.1752 37.0474 22.3726 36.5059 22.374H2.49414C1.95208 22.3726 1.44033 22.1747 1.06934 21.835C0.746014 21.5388 0.553669 21.158 0.509766 20.7607L0.5 20.5898V2.28223C0.501883 1.82486 0.701043 1.37699 1.07031 1.03906C1.39495 0.742088 1.8271 0.553183 2.29297 0.509766L2.49414 0.5H36.5059ZM37.9404 2.28125C37.9396 1.90785 37.7763 1.56003 37.5039 1.31055C37.2328 1.06239 36.8738 0.92845 36.5078 0.927734H2.49219C2.12616 0.92845 1.76715 1.06239 1.49609 1.31055C1.22374 1.56003 1.06044 1.90785 1.05957 2.28125V20.5938C1.06044 20.9673 1.22357 21.3159 1.49609 21.5654C1.76714 21.8135 2.12621 21.9465 2.49219 21.9473H36.5078C36.8738 21.9465 37.2329 21.8135 37.5039 21.5654C37.7764 21.3159 37.9396 20.9673 37.9404 20.5938V2.28125Z" fill="#2A3D66"/>
<path d="M36.5059 0.5L36.707 0.509766C37.1733 0.553221 37.6059 0.741677 37.9307 1.03906C38.3001 1.37744 38.4987 1.8264 38.5 2.28418V20.5938C38.4976 21.0506 38.2987 21.4984 37.9297 21.8359C37.5588 22.1752 37.0474 22.3726 36.5059 22.374H2.49414C1.95208 22.3726 1.44033 22.1747 1.06934 21.835C0.746014 21.5388 0.553669 21.158 0.509766 20.7607L0.5 20.5898V2.28223C0.501883 1.82486 0.701043 1.37699 1.07031 1.03906C1.39495 0.742088 1.8271 0.553183 2.29297 0.509766L2.49414 0.5H36.5059ZM37.9404 2.28125C37.9396 1.90785 37.7763 1.56003 37.5039 1.31055C37.2328 1.06239 36.8738 0.92845 36.5078 0.927734H2.49219C2.12616 0.92845 1.76715 1.06239 1.49609 1.31055C1.22374 1.56003 1.06044 1.90785 1.05957 2.28125V20.5938C1.06044 20.9673 1.22357 21.3159 1.49609 21.5654C1.76714 21.8135 2.12621 21.9465 2.49219 21.9473H36.5078C36.8738 21.9465 37.2329 21.8135 37.5039 21.5654C37.7764 21.3159 37.9396 20.9673 37.9404 20.5938V2.28125Z" stroke="black"/>
<path d="M36.5059 0.5L36.707 0.509766C37.1733 0.553221 37.6059 0.741677 37.9307 1.03906C38.3001 1.37744 38.4987 1.8264 38.5 2.28418V20.5938C38.4976 21.0506 38.2987 21.4984 37.9297 21.8359C37.5588 22.1752 37.0474 22.3726 36.5059 22.374H2.49414C1.95208 22.3726 1.44033 22.1747 1.06934 21.835C0.746014 21.5388 0.553669 21.158 0.509766 20.7607L0.5 20.5898V2.28223C0.501883 1.82486 0.701043 1.37699 1.07031 1.03906C1.39495 0.742088 1.8271 0.553183 2.29297 0.509766L2.49414 0.5H36.5059ZM37.9404 2.28125C37.9396 1.90785 37.7763 1.56003 37.5039 1.31055C37.2328 1.06239 36.8738 0.92845 36.5078 0.927734H2.49219C2.12616 0.92845 1.76715 1.06239 1.49609 1.31055C1.22374 1.56003 1.06044 1.90785 1.05957 2.28125V20.5938C1.06044 20.9673 1.22357 21.3159 1.49609 21.5654C1.76714 21.8135 2.12621 21.9465 2.49219 21.9473H36.5078C36.8738 21.9465 37.2329 21.8135 37.5039 21.5654C37.7764 21.3159 37.9396 20.9673 37.9404 20.5938V2.28125Z" stroke="black" stroke-opacity="0.2"/>
</svg>
