<svg width="18" height="22" viewBox="0 0 18 22" fill="none" xmlns="http://www.w3.org/2000/svg">
<path d="M1.278 18.7169C1.27985 19.3369 1.54959 19.9309 2.02832 20.3694C2.50705 20.8078 3.15585 21.055 3.833 21.057H14.056C14.7333 21.0553 15.3824 20.8082 15.8613 20.3697C16.3403 19.9312 16.6102 19.337 16.612 18.7169V4.67923H1.278V18.7169ZM4.421 10.3857L6.221 8.73773L8.943 11.2179L11.652 8.73773L13.452 10.3857L10.743 12.8658L13.452 15.346L11.652 16.9939L8.943 14.5137L6.234 16.9939L4.434 15.346L7.143 12.8658L4.421 10.3857ZM13.421 1.16729L12.139 0H5.75L4.472 1.17004H0V3.50919H17.889V1.17004L13.421 1.16729Z" fill="black"/>
</svg>
