<svg width="21" height="13" viewBox="0 0 21 13" fill="none" xmlns="http://www.w3.org/2000/svg">
<path d="M5.5559 10.8244C5.52333 10.8244 5.49109 10.8185 5.461 10.8071C5.43091 10.7957 5.40357 10.779 5.38054 10.7579C5.35751 10.7368 5.33925 10.7117 5.32678 10.6842C5.31432 10.6566 5.3079 10.6272 5.3079 10.5974C5.30791 10.0901 5.15482 9.59264 4.86553 9.15999C4.57624 8.72733 4.162 8.37628 3.66854 8.14556C3.17507 7.91484 2.62156 7.81343 2.06912 7.85253C1.51667 7.89163 0.986773 8.0697 0.537905 8.36712C0.484699 8.39734 0.420975 8.40803 0.35953 8.39702C0.298085 8.386 0.243463 8.35413 0.206629 8.30778C0.169796 8.26142 0.153482 8.20404 0.160952 8.14713C0.168422 8.09021 0.199125 8.03799 0.246905 8.00095C0.76955 7.65336 1.38707 7.44495 2.03109 7.39885C2.67511 7.35275 3.3205 7.47072 3.8958 7.73971C4.4711 8.0087 4.95387 8.41821 5.29064 8.92289C5.62742 9.42758 5.80506 10.0077 5.8039 10.5991C5.80338 10.659 5.77701 10.7163 5.73056 10.7585C5.68411 10.8007 5.62133 10.8244 5.5559 10.8244ZM13.4139 12.7351C13.0132 12.7348 12.6181 12.6488 12.26 12.4841C11.9019 12.3194 11.5908 12.0805 11.3514 11.7864C11.1119 11.4922 10.9508 11.1509 10.8807 10.7897C10.8107 10.4285 10.8337 10.0573 10.9479 9.70564C10.9632 9.65891 10.9944 9.61788 11.0371 9.58869C11.0798 9.5595 11.1316 9.54372 11.1849 9.5436H15.6429C15.6962 9.54372 15.748 9.5595 15.7907 9.58869C15.8334 9.61788 15.8647 9.65891 15.8799 9.70564C15.9941 10.0573 16.0171 10.4285 15.9471 10.7897C15.877 11.1509 15.7159 11.4922 15.4764 11.7864C15.237 12.0805 14.9259 12.3194 14.5678 12.4841C14.2097 12.6488 13.8146 12.7348 13.4139 12.7351ZM11.3779 9.99767C11.3159 10.2742 11.3218 10.5599 11.3953 10.8341C11.4689 11.1082 11.6081 11.364 11.803 11.5828C11.9979 11.8016 12.2435 11.9779 12.522 12.099C12.8006 12.2201 13.105 12.2829 13.4134 12.2829C13.7218 12.2829 14.0263 12.2201 14.3048 12.099C14.5833 11.9779 14.829 11.8016 15.0238 11.5828C15.2187 11.364 15.358 11.1082 15.4315 10.8341C15.505 10.5599 15.5109 10.2742 15.4489 9.99767H11.3779Z" fill="#204F38"/>
<path d="M13.4128 11.2655C13.1889 11.2656 12.9719 11.1945 12.7988 11.0644C12.6257 10.9344 12.5073 10.7534 12.4638 10.5524C12.4202 10.3513 12.4543 10.1426 12.56 9.96195C12.6658 9.78128 12.8367 9.63982 13.0437 9.56169C13.0735 9.55032 13.1055 9.54443 13.1377 9.54431H13.6867C13.719 9.54443 13.7509 9.55032 13.7807 9.56169C13.9877 9.63982 14.1587 9.78128 14.2644 9.96195C14.3702 10.1426 14.4042 10.3513 14.3607 10.5524C14.3171 10.7534 14.1987 10.9344 14.0257 11.0644C13.8526 11.1945 13.6356 11.2656 13.4117 11.2655H13.4128ZM13.1927 9.99838C13.0997 10.0434 13.0258 10.1156 12.9828 10.2035C12.9398 10.2914 12.9303 10.3899 12.9556 10.4834C12.9809 10.5769 13.0397 10.6599 13.1225 10.7193C13.2054 10.7786 13.3076 10.8109 13.4128 10.8109C13.518 10.8109 13.6201 10.7786 13.703 10.7193C13.7858 10.6599 13.8446 10.5769 13.8699 10.4834C13.8952 10.3899 13.8856 10.2914 13.8426 10.2035C13.7996 10.1156 13.7257 10.0434 13.6327 9.99838H13.1927Z" fill="#204F38"/>
<path d="M18.402 9.99851H9.14599C9.08022 9.99851 9.01715 9.97456 8.97064 9.93198C8.92413 9.8894 8.89801 9.83166 8.89801 9.77144V8.74972C8.89907 7.99027 9.22905 7.26219 9.81562 6.72517C10.4022 6.18816 11.1975 5.88603 12.027 5.88506H12.399C13.6207 5.89978 14.8121 6.23498 15.832 6.85093C17.0062 7.55787 17.9654 8.52583 18.62 9.66432C18.6402 9.69887 18.6503 9.73761 18.6493 9.77678C18.6483 9.81595 18.6362 9.85423 18.6143 9.88787C18.5923 9.92151 18.5612 9.94937 18.524 9.96875C18.4868 9.98814 18.4448 9.9984 18.402 9.99851ZM9.39399 9.54075H17.976C17.4247 8.61356 16.6221 7.83178 15.6454 7.27061C14.6687 6.70944 13.5507 6.38775 12.399 6.33642H12.027C11.3289 6.33715 10.6597 6.59135 10.1661 7.04326C9.67245 7.49518 9.39479 8.10789 9.39399 8.74699V9.54075ZM2.706 7.86441H2.69C2.62436 7.86064 2.56305 7.83317 2.51954 7.78802C2.47603 7.74287 2.4539 7.68372 2.458 7.62362C2.55221 6.19858 2.92017 4.79991 3.54499 3.49188C3.65699 3.21722 3.77201 2.938 3.89801 2.62123C3.92055 2.56465 3.96671 2.51859 4.02635 2.49318C4.08598 2.46777 4.1542 2.46508 4.216 2.48572C4.27779 2.50636 4.32811 2.54864 4.35586 2.60324C4.38362 2.65783 4.38654 2.7203 4.36399 2.77688C4.23699 3.09548 4.121 3.37836 4.009 3.65119C3.39963 4.91821 3.04203 6.27459 2.953 7.65659C2.9487 7.71391 2.92082 7.7676 2.87498 7.80685C2.82914 7.8461 2.76876 7.86797 2.706 7.86807V7.86441ZM4.63301 8.74333H4.613C4.54751 8.73842 4.48682 8.70992 4.44426 8.66409C4.4017 8.61826 4.38075 8.55885 4.386 8.49888C4.41184 7.4059 4.61817 6.32278 4.998 5.28632C5.058 5.10322 5.127 4.89445 5.206 4.65184C5.32484 4.30066 5.35426 3.92926 5.292 3.56606C5.26021 3.42467 5.19505 3.29133 5.10109 3.17541C5.00712 3.05949 4.8866 2.96379 4.748 2.89498C4.69139 2.86829 4.64817 2.82267 4.62728 2.7676C4.6064 2.71254 4.60944 2.65222 4.63578 2.59916C4.66213 2.54609 4.70976 2.50434 4.76881 2.48254C4.82786 2.46074 4.89381 2.46057 4.953 2.48206C5.15981 2.57792 5.3406 2.7149 5.48213 2.88297C5.62366 3.05103 5.72235 3.24594 5.77099 3.45343C5.857 3.89654 5.82581 4.35205 5.68 4.78184C5.601 5.02629 5.532 5.23504 5.472 5.42272C5.10276 6.42825 4.90314 7.47944 4.88 8.54007C4.87459 8.59579 4.8469 8.64773 4.80224 8.68591C4.75758 8.72409 4.69909 8.74585 4.638 8.74699L4.63301 8.74333Z" fill="#204F38"/>
<path d="M9.14386 9.99842H5.46486C5.39855 9.99842 5.33495 9.97429 5.28807 9.93137C5.24119 9.88844 5.21486 9.83025 5.21486 9.76954C5.21486 9.70884 5.24119 9.65061 5.28807 9.60769C5.33495 9.56476 5.39855 9.54066 5.46486 9.54066H9.14285C9.20916 9.54066 9.27274 9.56476 9.31963 9.60769C9.36651 9.65061 9.39285 9.70884 9.39285 9.76954C9.39285 9.83025 9.36651 9.88844 9.31963 9.93137C9.27274 9.97429 9.20916 9.99842 9.14285 9.99842H9.14386ZM4.64386 2.92876H3.54385C3.44537 2.92852 3.351 2.89252 3.28145 2.82868C3.2119 2.76483 3.17285 2.67834 3.17285 2.58818V1.10322C3.17285 1.01305 3.2119 0.926561 3.28145 0.862717C3.351 0.798874 3.44537 0.762881 3.54385 0.762638H4.64386C4.95761 0.762638 5.25851 0.87675 5.48036 1.07986C5.70222 1.28298 5.82686 1.55847 5.82686 1.84571C5.82686 2.13296 5.70222 2.40842 5.48036 2.61153C5.25851 2.81465 4.95761 2.92876 4.64386 2.92876ZM3.66486 2.471H4.64386C4.82606 2.471 5.0008 2.40475 5.12964 2.28679C5.25848 2.16884 5.33086 2.00884 5.33086 1.84202C5.33086 1.67521 5.25848 1.51524 5.12964 1.39728C5.0008 1.27933 4.82606 1.21308 4.64386 1.21308H3.66486V2.471ZM18.7888 5.40067H13.6228C13.5118 5.40074 13.4021 5.37862 13.3014 5.33591C13.2006 5.2932 13.1112 5.23089 13.0395 5.15333C12.9677 5.07577 12.9153 4.98485 12.8858 4.88684C12.8563 4.78883 12.8505 4.68611 12.8689 4.58585L13.5968 0.585027C13.6261 0.421386 13.718 0.272637 13.8562 0.165432C13.9944 0.0582269 14.1697 -0.000431142 14.3508 2.38596e-06H19.5168C19.6279 -5.9044e-05 19.7376 0.0220524 19.8383 0.0647661C19.9391 0.10748 20.0285 0.169763 20.1003 0.247323C20.172 0.324882 20.2245 0.415831 20.2539 0.513837C20.2834 0.611843 20.2892 0.71457 20.2709 0.814829L19.5428 4.81565C19.514 4.97938 19.4224 5.12834 19.2844 5.23575C19.1464 5.34315 18.971 5.40193 18.7899 5.40157L18.7888 5.40067ZM14.3508 0.456841C14.2873 0.456702 14.2257 0.47725 14.1772 0.514815C14.1287 0.55238 14.0963 0.604544 14.0858 0.661944L13.3578 4.66276C13.3515 4.698 13.3535 4.73408 13.3639 4.76852C13.3743 4.80295 13.3927 4.83491 13.4179 4.86217C13.4431 4.88943 13.4745 4.91135 13.5099 4.9264C13.5453 4.94145 13.5838 4.94926 13.6228 4.94931H18.7888C18.8525 4.94964 18.9141 4.92916 18.9627 4.89156C19.0113 4.85396 19.0436 4.80172 19.0538 4.74424L19.7818 0.743416C19.7884 0.708154 19.7865 0.672001 19.7762 0.637497C19.7659 0.602994 19.7474 0.570976 19.7222 0.543677C19.697 0.516377 19.6655 0.494468 19.63 0.479472C19.5945 0.464475 19.5559 0.456733 19.5168 0.456841H14.3508Z" fill="#204F38"/>
<path d="M17.688 8.97662C17.6302 8.97657 17.5743 8.95803 17.5298 8.92424C17.4853 8.89044 17.4552 8.84349 17.4445 8.79149C17.4338 8.7395 17.4433 8.68572 17.4714 8.63945C17.4994 8.59318 17.5442 8.55733 17.598 8.53808C17.6904 8.49793 17.7687 8.43488 17.8241 8.35609C17.8794 8.27729 17.9095 8.18588 17.911 8.09223C17.8933 7.85848 17.8203 7.63105 17.697 7.42573L16.634 5.26785C16.6175 5.24029 16.6075 5.20988 16.6046 5.17859C16.6016 5.14729 16.6058 5.11577 16.6168 5.08602C16.6278 5.05627 16.6454 5.02896 16.6686 5.00578C16.6917 4.9826 16.7199 4.96407 16.7513 4.95135C16.7827 4.93864 16.8166 4.93203 16.8509 4.93194C16.8852 4.93184 16.9192 4.93826 16.9506 4.9508C16.9821 4.96333 17.0103 4.98172 17.0337 5.00477C17.057 5.02783 17.0748 5.05505 17.086 5.08474L18.149 7.23988C18.3051 7.50678 18.3933 7.80255 18.407 8.10505C18.4025 8.28784 18.3408 8.46561 18.2293 8.61732C18.1179 8.76903 17.9612 8.88832 17.778 8.96106C17.7493 8.97136 17.7188 8.97664 17.688 8.97662ZM9.156 8.74682C9.09576 8.74684 9.03757 8.72677 8.9923 8.69038C8.94703 8.65399 8.91778 8.60376 8.91 8.54906C8.887 8.38976 8.872 8.2076 8.856 8.01534C8.82041 7.08183 8.59205 6.16293 8.183 5.30722C8.10108 5.14577 8.06498 4.96799 8.07802 4.79037C8.09106 4.61275 8.15282 4.44103 8.2576 4.29106C8.36239 4.1411 8.5068 4.01774 8.67747 3.93243C8.84813 3.84712 9.03955 3.80262 9.234 3.80301H13.199C13.2653 3.80301 13.3289 3.82712 13.3758 3.87004C13.4227 3.91296 13.449 3.97119 13.449 4.03189C13.449 4.0926 13.4227 4.15082 13.3758 4.19375C13.3289 4.23667 13.2653 4.26077 13.199 4.26077H9.234C9.12221 4.26051 9.01219 4.28625 8.91424 4.33557C8.81629 4.38489 8.73362 4.45619 8.674 4.54277C8.61368 4.62741 8.57813 4.72481 8.57078 4.82565C8.56342 4.9265 8.5845 5.02739 8.632 5.11863C9.06768 6.02316 9.31134 6.99535 9.35 7.98329C9.367 8.17738 9.381 8.34948 9.402 8.49321C9.40621 8.52279 9.40402 8.55284 9.39554 8.58164C9.38707 8.61044 9.37247 8.63744 9.3526 8.66107C9.33272 8.68471 9.30796 8.70454 9.27971 8.71941C9.25147 8.73428 9.22031 8.7439 9.188 8.74774L9.156 8.74682ZM19.919 1.60577H13.706C13.6397 1.60577 13.5761 1.58164 13.5292 1.53872C13.4823 1.49579 13.456 1.43759 13.456 1.37689C13.456 1.31619 13.4823 1.25796 13.5292 1.21504C13.5761 1.17211 13.6397 1.14801 13.706 1.14801H19.919C19.9853 1.14801 20.0489 1.17211 20.0958 1.21504C20.1427 1.25796 20.169 1.31619 20.169 1.37689C20.169 1.43759 20.1427 1.49579 20.0958 1.53872C20.0489 1.58164 19.9853 1.60577 19.919 1.60577ZM2.3 12.7C1.8451 12.7 1.40043 12.5765 1.02219 12.3452C0.643959 12.1138 0.349159 11.7849 0.175077 11.4001C0.000995845 11.0154 -0.0445509 10.592 0.0441951 10.1836C0.132941 9.77509 0.351998 9.39988 0.673658 9.10539C0.995319 8.81091 1.40514 8.61036 1.85129 8.52912C2.29745 8.44787 2.7599 8.48957 3.18017 8.64895C3.60044 8.80832 3.95965 9.07821 4.21238 9.42449C4.4651 9.77077 4.6 10.1779 4.6 10.5943C4.6 11.1528 4.35768 11.6884 3.92634 12.0833C3.49501 12.4782 2.91 12.7 2.3 12.7ZM2.3 8.94092C1.94305 8.94092 1.59411 9.03782 1.2973 9.21936C1.00049 9.4009 0.769136 9.65891 0.63249 9.96082C0.495845 10.2627 0.460042 10.5949 0.529608 10.9155C0.599173 11.236 0.770987 11.5305 1.02332 11.7616C1.27565 11.9927 1.59718 12.1502 1.94725 12.2141C2.29732 12.2779 2.66021 12.2454 2.99005 12.1204C3.31989 11.9955 3.60186 11.7838 3.80031 11.5122C3.99877 11.2406 4.1048 10.9211 4.105 10.5943C4.10315 10.157 3.91223 9.73814 3.57398 9.42933C3.23573 9.12051 2.77769 8.9469 2.3 8.94642V8.94092Z" fill="#204F38"/>
<path d="M2.29999 11.4066C2.12535 11.4066 1.95463 11.3592 1.80942 11.2704C1.66421 11.1815 1.55104 11.0553 1.48421 10.9075C1.41737 10.7598 1.39989 10.5973 1.43396 10.4405C1.46803 10.2836 1.55212 10.1396 1.67561 10.0266C1.7991 9.9135 1.95645 9.83652 2.12773 9.80533C2.29902 9.77414 2.47655 9.79013 2.63789 9.85132C2.79924 9.91251 2.93715 10.0161 3.03418 10.149C3.1312 10.282 3.18298 10.4383 3.18298 10.5982C3.18272 10.8125 3.08961 11.018 2.92407 11.1696C2.75853 11.3211 2.53409 11.4064 2.29999 11.4066ZM2.29999 10.2439C2.22345 10.2439 2.14862 10.2647 2.08498 10.3036C2.02133 10.3425 1.97173 10.3978 1.94244 10.4626C1.91315 10.5273 1.90549 10.5986 1.92042 10.6673C1.93536 10.736 1.97221 10.7992 2.02634 10.8487C2.08046 10.8983 2.14942 10.932 2.22449 10.9457C2.29956 10.9593 2.37737 10.9524 2.44809 10.9255C2.5188 10.8987 2.57924 10.8533 2.62176 10.795C2.66429 10.7367 2.687 10.6683 2.687 10.5982C2.68673 10.5043 2.64587 10.4143 2.57335 10.3479C2.50083 10.2815 2.40254 10.2441 2.29999 10.2439Z" fill="#204F38"/>
<path d="M6.59619 2.53878C6.55951 2.53881 6.52326 2.53132 6.49017 2.51682L5.47317 2.07462C5.41633 2.04748 5.37317 2.00124 5.35275 1.9456C5.33234 1.88995 5.33625 1.82923 5.36368 1.77617C5.3911 1.72312 5.43991 1.68183 5.49985 1.661C5.55979 1.64018 5.62621 1.64143 5.68518 1.66447L6.70218 2.10664C6.75299 2.12874 6.7941 2.16603 6.81872 2.21233C6.84335 2.25864 6.85003 2.31122 6.83771 2.36148C6.82538 2.41173 6.79478 2.45666 6.75088 2.48888C6.70699 2.5211 6.65245 2.53869 6.59619 2.53878Z" fill="#204F38"/>
</svg>
