<svg width="22" height="24" viewBox="0 0 22 24" fill="none" xmlns="http://www.w3.org/2000/svg">
<path d="M20.489 7.58843C20.2334 7.29584 20.0249 6.97119 19.87 6.62439C19.7667 6.24503 19.7229 5.85415 19.74 5.46351C19.8062 4.82137 19.6525 4.17628 19.3 3.61782C18.824 3.13487 18.1944 2.80088 17.5 2.66293C17.0936 2.55809 16.7054 2.40121 16.347 2.19693C16.0283 1.95228 15.7506 1.66601 15.523 1.34732C15.161 0.781429 14.6149 0.333286 13.961 0.0655955C13.2811 -0.0642544 12.5741 -0.000354373 11.935 0.2487C11.5275 0.386463 11.1004 0.469716 10.667 0.49589C10.2342 0.471396 9.80748 0.389996 9.4 0.254193C8.76214 0.000901976 8.05365 -0.0631297 7.374 0.0710886C6.71906 0.33731 6.17248 0.785816 5.812 1.35282C5.58151 1.6695 5.30421 1.95542 4.988 2.20242C4.63004 2.40754 4.24174 2.56448 3.835 2.66842C3.14188 2.80935 2.51322 3.14284 2.035 3.62331C1.68549 4.18072 1.5335 4.82367 1.6 5.46351C1.61646 5.85414 1.57269 6.24494 1.47 6.62439C1.31592 6.97156 1.1074 7.29632 0.850998 7.58843C0.370418 8.08418 0.072658 8.70596 0 9.36545C0.0743184 10.024 0.373095 10.6444 0.854 11.1388C1.10964 11.4314 1.3181 11.7561 1.473 12.1029C1.57628 12.4822 1.62005 12.8731 1.603 13.2637C1.53645 13.9058 1.68988 14.5509 2.042 15.1094C2.51803 15.5924 3.14761 15.9264 3.842 16.0643C4.24839 16.1692 4.63656 16.326 4.995 16.5303C5.31371 16.775 5.59136 17.0612 5.819 17.3799C5.994 17.5951 6.168 17.8093 6.363 18.0061V22.0775C6.36286 22.2974 6.42579 22.5135 6.54551 22.7042C6.66522 22.8948 6.83751 23.0534 7.04516 23.164C7.25281 23.2745 7.48853 23.3333 7.72875 23.3343C7.96897 23.3353 8.20526 23.2785 8.414 23.1697L10.371 22.1507C10.4652 22.1013 10.5719 22.0753 10.6805 22.0753C10.7891 22.0753 10.8958 22.1013 10.99 22.1507L12.947 23.1697C13.1541 23.2772 13.3879 23.334 13.626 23.3345C13.9902 23.3321 14.3386 23.1982 14.5957 22.962C14.8528 22.7258 14.9977 22.4063 14.999 22.0729V17.9979C15.194 17.8011 15.368 17.5868 15.543 17.3717C15.7735 17.055 16.0508 16.7691 16.367 16.5221C16.725 16.317 17.1133 16.16 17.52 16.0561C18.2131 15.9152 18.8418 15.5817 19.32 15.1012C19.6721 14.5426 19.8256 13.8975 19.759 13.2555C19.7426 12.8649 19.7863 12.4741 19.889 12.0946C20.0431 11.7474 20.2516 11.4227 20.508 11.1306C20.9889 10.6362 21.2877 10.0157 21.362 9.35721C21.2787 8.70068 20.9775 8.08333 20.499 7.58843H20.489ZM14.24 22.0747C14.2397 22.1747 14.2109 22.2728 14.1564 22.3594C14.1019 22.446 14.0236 22.5181 13.9293 22.5684C13.835 22.6187 13.728 22.6456 13.6188 22.6464C13.5096 22.6472 13.4021 22.6218 13.307 22.5728L11.35 21.5538C11.1431 21.4459 10.9091 21.3892 10.671 21.3892C10.4329 21.3892 10.1989 21.4459 9.992 21.5538L8.035 22.5728C7.93986 22.6218 7.83237 22.6472 7.72321 22.6464C7.61404 22.6456 7.50699 22.6187 7.41268 22.5684C7.31837 22.5181 7.24008 22.446 7.18559 22.3594C7.13109 22.2728 7.10227 22.1747 7.102 22.0747V18.5555C7.18932 18.596 7.27952 18.6312 7.372 18.6607C7.56383 18.7174 7.76444 18.7452 7.966 18.7431C8.45675 18.7179 8.94085 18.6272 9.403 18.474C9.81049 18.3362 10.2376 18.253 10.671 18.2268C11.1044 18.253 11.5315 18.3362 11.939 18.474C12.5769 18.7273 13.2854 18.7913 13.965 18.6571C14.0583 18.6295 14.1487 18.5943 14.235 18.5518V22.0701L14.24 22.0747ZM19.88 10.7387C19.5783 11.0856 19.3359 11.4724 19.161 11.8859C19.0332 12.3298 18.9776 12.7885 18.996 13.2473C19.0529 13.7474 18.9508 14.2519 18.702 14.7002C18.3104 15.0602 17.8128 15.308 17.27 15.4134C16.7917 15.5379 16.3359 15.7257 15.917 15.9709C15.5364 16.2558 15.205 16.5916 14.934 16.967C14.654 17.411 14.2397 17.7712 13.741 18.0043C13.206 18.0773 12.6595 18.0106 12.164 17.812C11.6842 17.6535 11.1814 17.5609 10.672 17.5374C10.1626 17.5614 9.6599 17.6539 9.18 17.812C8.68529 18.0131 8.13793 18.0798 7.603 18.0043C7.10335 17.7725 6.68867 17.4119 6.41 16.967C6.13606 16.5937 5.80501 16.2582 5.427 15.9709C5.00858 15.7249 4.55262 15.537 4.074 15.4134C3.53124 15.307 3.03362 15.0594 2.641 14.7002C2.39218 14.2519 2.29009 13.7474 2.347 13.2473C2.3654 12.7885 2.3098 12.3298 2.182 11.8859C2.00626 11.4728 1.7639 11.0861 1.463 10.7387C1.08058 10.354 0.832017 9.87366 0.749001 9.35905C0.833006 8.8447 1.08144 8.36463 1.463 7.97936C1.76467 7.63247 2.0071 7.24569 2.182 6.83221C2.3098 6.38831 2.3654 5.92958 2.347 5.47083C2.29009 4.9707 2.39218 4.46617 2.641 4.0179C3.03286 3.65778 3.5308 3.40996 4.074 3.30471C4.55227 3.18023 5.0081 2.9924 5.427 2.74716C5.80757 2.46233 6.13898 2.12651 6.41 1.75107C6.68945 1.30818 7.10267 0.948622 7.6 0.715615C7.71628 0.682646 7.83727 0.665676 7.959 0.665262C8.37381 0.693308 8.7822 0.77499 9.172 0.907875C9.65177 1.06645 10.1546 1.15901 10.664 1.18253C11.1734 1.15856 11.6761 1.06601 12.156 0.907875C12.6507 0.706801 13.1981 0.640068 13.733 0.715615C14.2326 0.947464 14.6473 1.30802 14.926 1.7529C15.1999 2.12626 15.531 2.46171 15.909 2.74899C16.3274 2.99504 16.7834 3.18293 17.262 3.30654C17.8048 3.41288 18.3024 3.66055 18.695 4.01973C18.9438 4.46802 19.0459 4.97254 18.989 5.47266C18.9706 5.93141 19.0262 6.39014 19.154 6.83404C19.3297 7.24715 19.5721 7.63383 19.873 7.98119C20.2554 8.36594 20.504 8.84626 20.587 9.36088C20.5084 9.87491 20.262 10.3552 19.88 10.7387ZM10.671 2.24179C9.13331 2.24197 7.63019 2.65954 6.35168 3.4417C5.07316 4.22386 4.07665 5.33551 3.48811 6.6361C2.89957 7.93669 2.74542 9.36784 3.04517 10.7486C3.34492 12.1294 4.08509 13.3978 5.17213 14.3935C6.25916 15.3893 7.64424 16.0675 9.15228 16.3427C10.6603 16.6178 12.2236 16.4774 13.6445 15.9393C15.0654 15.4011 16.2802 14.4894 17.1351 13.3193C17.9901 12.1492 18.447 10.7732 18.448 9.36545C18.4467 7.47715 17.627 5.66647 16.1689 4.33089C14.7109 2.99532 12.7335 2.24397 10.671 2.24179ZM10.671 15.7915C9.28065 15.7913 7.9216 15.4136 6.76579 14.7061C5.60998 13.9986 4.70934 12.9932 4.17783 11.817C3.64632 10.6408 3.50781 9.34665 3.77983 8.09835C4.05185 6.85006 4.72217 5.70368 5.706 4.80426C6.68982 3.90483 7.94293 3.29276 9.3068 3.0455C10.6707 2.79824 12.084 2.92689 13.368 3.41517C14.652 3.90346 15.7489 4.72944 16.52 5.78861C17.2911 6.84779 17.7018 8.09256 17.7 9.36545C17.6963 11.0707 16.9544 12.7051 15.6369 13.9105C14.3193 15.1158 12.5336 15.7939 10.671 15.7961V15.7915ZM13.187 6.57861L7.926 11.3906C7.85656 11.4552 7.81764 11.5421 7.81764 11.6327C7.81764 11.7234 7.85656 11.8103 7.926 11.8749C7.96073 11.9067 8.00196 11.9319 8.04735 11.9491C8.09273 11.9664 8.14137 11.9752 8.1905 11.9752C8.23962 11.9752 8.28827 11.9664 8.33365 11.9491C8.37903 11.9319 8.42027 11.9067 8.455 11.8749L13.716 7.06292C13.7507 7.03112 13.7783 6.99337 13.7971 6.95182C13.8159 6.91027 13.8256 6.86574 13.8256 6.82076C13.8256 6.77579 13.8159 6.73126 13.7971 6.68971C13.7783 6.64816 13.7507 6.61041 13.716 6.57861C13.6813 6.54681 13.64 6.52158 13.5946 6.50437C13.5493 6.48716 13.5006 6.47831 13.4515 6.47831C13.4024 6.47831 13.3537 6.48716 13.3084 6.50437C13.263 6.52158 13.2217 6.54681 13.187 6.57861ZM11.4 10.0246C11.2674 10.1455 11.1625 10.2894 11.0915 10.4479C11.0204 10.6063 10.9845 10.7762 10.986 10.9475C10.9853 11.2931 11.1342 11.6249 11.4 11.8703C11.532 11.9917 11.6892 12.0877 11.8623 12.1528C12.0354 12.2179 12.2209 12.2507 12.408 12.2493C12.7855 12.25 13.1479 12.1137 13.416 11.8703C13.5486 11.7494 13.6535 11.6055 13.7245 11.4471C13.7956 11.2886 13.8315 11.1188 13.83 10.9475C13.8305 10.6895 13.7474 10.4372 13.5911 10.2226C13.4348 10.0079 13.2125 9.84059 12.9522 9.74175C12.692 9.64292 12.4055 9.61704 12.1292 9.6674C11.8529 9.71775 11.5991 9.84208 11.4 10.0246ZM12.878 11.3796C12.8164 11.4376 12.7427 11.4837 12.6613 11.5151C12.5798 11.5466 12.4924 11.5627 12.404 11.5627C12.3156 11.5632 12.228 11.5472 12.1465 11.5157C12.065 11.4842 11.9913 11.4379 11.93 11.3796C11.804 11.2644 11.7322 11.1087 11.73 10.9456C11.7295 10.8647 11.747 10.7845 11.7814 10.7099C11.8157 10.6353 11.8663 10.5679 11.93 10.5117C12.0563 10.3976 12.2266 10.3337 12.404 10.3337C12.5814 10.3337 12.7517 10.3976 12.878 10.5117C12.9413 10.5681 12.9917 10.6356 13.026 10.7101C13.0604 10.7847 13.078 10.8647 13.078 10.9456C13.0785 11.0266 13.061 11.1068 13.0266 11.1814C12.9923 11.256 12.9417 11.3234 12.878 11.3796ZM8.94 9.08073C9.31734 9.08054 9.67944 8.94439 9.948 8.7017C10.0806 8.58081 10.1855 8.43692 10.2565 8.27846C10.3276 8.12 10.3635 7.95015 10.362 7.77886C10.3627 7.43323 10.2138 7.10143 9.948 6.85601C9.81595 6.73465 9.65879 6.63861 9.48571 6.57353C9.31263 6.50845 9.1271 6.47563 8.94 6.47699C8.56926 6.48599 8.217 6.62714 7.95826 6.8704C7.69951 7.11365 7.55472 7.43977 7.55472 7.77931C7.55472 8.11885 7.69951 8.44498 7.95826 8.68823C8.217 8.93149 8.56926 9.07264 8.94 9.08164V9.08073ZM8.466 7.34124C8.52763 7.28326 8.60133 7.23719 8.68274 7.20573C8.76416 7.17428 8.85163 7.1581 8.94 7.15813C9.02843 7.15768 9.11605 7.17367 9.19753 7.20515C9.279 7.23662 9.35265 7.28292 9.414 7.34124C9.47733 7.39766 9.52766 7.46513 9.56201 7.53967C9.59636 7.61421 9.61404 7.69429 9.614 7.7752C9.6145 7.85616 9.59702 7.93637 9.56264 8.01096C9.52827 8.08556 9.47769 8.15299 9.414 8.20915C9.35237 8.26713 9.27867 8.31321 9.19725 8.34466C9.11584 8.37611 9.02836 8.39229 8.94 8.39226C8.85156 8.39271 8.76395 8.37672 8.68247 8.34524C8.60099 8.31377 8.52735 8.26747 8.466 8.20915C8.40332 8.15251 8.35353 8.08505 8.31952 8.01067C8.28551 7.93629 8.26795 7.85648 8.26785 7.77584C8.26776 7.69521 8.28513 7.61536 8.31897 7.54092C8.35281 7.46648 8.40245 7.39892 8.465 7.34215L8.466 7.34124Z" fill="#E82828"/>
</svg>
