<svg width="20" height="13" viewBox="0 0 20 13" fill="none" xmlns="http://www.w3.org/2000/svg">
<path d="M20 0H0V13H20V0Z" fill="black"/>
<path d="M19.2131 0.662994H0.663086V1.58099H19.2131V0.662994Z" fill="#B22234"/>
<path d="M19.2131 1.57999H0.663086V2.49799H19.2131V1.57999Z" fill="white"/>
<path d="M19.2131 2.49799H0.663086V3.41599H19.2131V2.49799Z" fill="#B22234"/>
<path d="M19.2131 3.41501H0.663086V4.33301H19.2131V3.41501Z" fill="white"/>
<path d="M19.2131 4.33301H0.663086V5.25101H19.2131V4.33301Z" fill="#B22234"/>
<path d="M19.2131 5.25H0.663086V6.168H19.2131V5.25Z" fill="white"/>
<path d="M19.2131 6.168H0.663086V7.086H19.2131V6.168Z" fill="#B22234"/>
<path d="M19.2131 7.08499H0.663086V8.00299H19.2131V7.08499Z" fill="white"/>
<path d="M19.2131 8.00299H0.663086V8.92099H19.2131V8.00299Z" fill="#B22234"/>
<path d="M19.2131 8.92099H0.663086V9.83899H19.2131V8.92099Z" fill="white"/>
<path d="M19.2131 9.83801H0.663086V10.756H19.2131V9.83801Z" fill="#B22234"/>
<path d="M19.2131 10.756H0.663086V11.674H19.2131V10.756Z" fill="white"/>
<path d="M9.93809 0.662994H0.663086V7.08599H9.93809V0.662994Z" fill="#3C3B6E"/>
<path d="M1.65564 1.648L1.44064 1.804L1.52164 1.551L1.30664 1.391H1.57364L1.65664 1.142L1.73964 1.391H2.00564L1.79064 1.551L1.87164 1.804L1.65564 1.648Z" fill="white"/>
<path d="M3.11267 1.648L2.89767 1.804L2.97867 1.551L2.76367 1.391H3.03067L3.11367 1.142L3.19667 1.391H3.46267L3.24767 1.551L3.32867 1.804L3.11267 1.648Z" fill="white"/>
<path d="M4.57068 1.648L4.35568 1.804L4.43668 1.551L4.22168 1.391H4.48868L4.57168 1.142L4.65468 1.391H4.92068L4.70568 1.551L4.78668 1.804L4.57068 1.648Z" fill="white"/>
<path d="M6.02771 1.648L5.81271 1.804L5.89371 1.551L5.67871 1.391H5.94571L6.02871 1.142L6.11171 1.391H6.37771L6.16271 1.551L6.24371 1.804L6.02771 1.648Z" fill="white"/>
<path d="M7.48572 1.648L7.27072 1.804L7.35172 1.551L7.13672 1.391H7.40272L7.48572 1.142L7.56872 1.391H7.83472L7.61972 1.551L7.70072 1.804L7.48572 1.648Z" fill="white"/>
<path d="M8.94275 1.648L8.72775 1.804L8.80875 1.551L8.59375 1.391H8.85975L8.94275 1.142L9.02575 1.391H9.29175L9.07675 1.551L9.15775 1.804L8.94275 1.648Z" fill="white"/>
<path d="M2.38511 2.44899L2.17011 2.60399L2.25111 2.35199L2.03711 2.19099H2.30311L2.38611 1.94199L2.46911 2.19099H2.73511L2.52011 2.35199L2.60111 2.60399L2.38511 2.44899Z" fill="white"/>
<path d="M3.84214 2.44899L3.62714 2.60399L3.70814 2.35199L3.49414 2.19099H3.76014L3.84314 1.94199L3.92614 2.19099H4.19214L3.97714 2.35199L4.05814 2.60399L3.84214 2.44899Z" fill="white"/>
<path d="M5.30015 2.44899L5.08515 2.60399L5.16615 2.35199L4.95215 2.19099H5.21815L5.30115 1.94199L5.38415 2.19099H5.65015L5.43515 2.35199L5.51615 2.60399L5.30015 2.44899Z" fill="white"/>
<path d="M6.75718 2.44899L6.54218 2.60399L6.62318 2.35199L6.40918 2.19099H6.67518L6.75818 1.94199L6.84118 2.19099H7.10718L6.89218 2.35199L6.97318 2.60399L6.75718 2.44899Z" fill="white"/>
<path d="M8.21521 2.44899L8.00021 2.60399L8.08121 2.35199L7.86621 2.19099H8.13221L8.21521 1.94199L8.29821 2.19099H8.56421L8.34921 2.35199L8.43021 2.60399L8.21521 2.44899Z" fill="white"/>
<path d="M1.65564 3.25L1.44064 3.403L1.52164 3.15L1.30664 2.989H1.57364L1.65664 2.741L1.73964 2.989H2.00564L1.79064 3.15L1.87164 3.403L1.65564 3.25Z" fill="white"/>
<path d="M3.11365 3.25L2.89865 3.403L2.97965 3.15L2.76465 2.989H3.03165L3.11465 2.741L3.19765 2.989H3.46365L3.24865 3.15L3.32965 3.403L3.11365 3.25Z" fill="white"/>
<path d="M4.57068 3.25L4.35568 3.403L4.43668 3.15L4.22168 2.989H4.48868L4.57168 2.741L4.65468 2.989H4.92068L4.70568 3.15L4.78668 3.403L4.57068 3.25Z" fill="white"/>
<path d="M6.02869 3.25L5.81369 3.403L5.89469 3.15L5.67969 2.989H5.94669L6.02969 2.741L6.11269 2.989H6.37869L6.16369 3.15L6.24469 3.403L6.02869 3.25Z" fill="white"/>
<path d="M7.48572 3.24999L7.27072 3.40599L7.35172 3.15299L7.13672 2.99199H7.40272L7.48572 2.74399L7.56872 2.99199H7.83472L7.61972 3.15299L7.70072 3.40599L7.48572 3.24999Z" fill="white"/>
<path d="M8.94275 3.24999L8.72775 3.40599L8.80875 3.15299L8.59375 2.99199H8.85975L8.94275 2.74399L9.02575 2.99199H9.29175L9.07675 3.15299L9.15775 3.40599L8.94275 3.24999Z" fill="white"/>
<path d="M2.38511 4.05002L2.17011 4.20602L2.25111 3.95302L2.03711 3.79502H2.30311L2.38611 3.54602L2.46911 3.79502H2.73511L2.52011 3.95502L2.60111 4.20802L2.38511 4.05002Z" fill="white"/>
<path d="M3.84312 4.05002L3.62812 4.20602L3.70912 3.95302L3.49512 3.79502H3.76112L3.84412 3.54602L3.92712 3.79502H4.19312L3.97812 3.95502L4.05912 4.20802L3.84312 4.05002Z" fill="white"/>
<path d="M5.30015 4.05002L5.08515 4.20602L5.16615 3.95302L4.95215 3.79502H5.21815L5.30115 3.54602L5.38415 3.79502H5.65015L5.43515 3.95502L5.51615 4.20802L5.30015 4.05002Z" fill="white"/>
<path d="M6.75816 4.05002L6.54316 4.20602L6.62416 3.95302L6.41016 3.79502H6.67616L6.75916 3.54602L6.84216 3.79502H7.10816L6.89316 3.95502L6.97416 4.20802L6.75816 4.05002Z" fill="white"/>
<path d="M8.21521 4.05001L8.00021 4.20601L8.08121 3.95301L7.86621 3.79301H8.13221L8.21521 3.54401L8.29821 3.79301H8.56421L8.34921 3.95301L8.43021 4.20601L8.21521 4.05001Z" fill="white"/>
<path d="M1.65564 4.84999L1.44064 5.00499L1.52164 4.75299L1.30664 4.59199H1.57364L1.65664 4.34299L1.73964 4.59199H2.00564L1.79064 4.75299L1.87164 5.00499L1.65564 4.84999Z" fill="white"/>
<path d="M3.11365 4.84999L2.89865 5.00499L2.97965 4.75299L2.76465 4.59199H3.03165L3.11465 4.34299L3.19765 4.59199H3.46365L3.24865 4.75299L3.32965 5.00499L3.11365 4.84999Z" fill="white"/>
<path d="M4.57068 4.84999L4.35568 5.00499L4.43668 4.75299L4.22168 4.59199H4.48868L4.57168 4.34299L4.65468 4.59199H4.92068L4.70568 4.75299L4.78668 5.00499L4.57068 4.84999Z" fill="white"/>
<path d="M6.02869 4.84999L5.81369 5.00499L5.89469 4.75299L5.67969 4.59199H5.94669L6.02969 4.34299L6.11269 4.59199H6.37869L6.16369 4.75299L6.24469 5.00499L6.02869 4.84999Z" fill="white"/>
<path d="M7.48572 4.84999L7.27072 5.00499L7.35172 4.75299L7.13672 4.59199H7.40272L7.48572 4.34299L7.56872 4.59199H7.83472L7.61972 4.75299L7.70072 5.00499L7.48572 4.84999Z" fill="white"/>
<path d="M8.94275 4.84999L8.72775 5.00499L8.80875 4.75299L8.59375 4.59199H8.85975L8.94275 4.34299L9.02575 4.59199H9.29175L9.07675 4.75299L9.15775 5.00499L8.94275 4.84999Z" fill="white"/>
<path d="M1.65564 6.45201L1.44064 6.60801L1.52164 6.35501L1.30664 6.19501H1.57364L1.65664 5.94601L1.73964 6.19501H2.00564L1.79064 6.35501L1.87164 6.60801L1.65564 6.45201Z" fill="white"/>
<path d="M3.11365 6.45201L2.89865 6.60801L2.97965 6.35501L2.76465 6.19501H3.03165L3.11465 5.94601L3.19765 6.19501H3.46365L3.24865 6.35501L3.32965 6.60801L3.11365 6.45201Z" fill="white"/>
<path d="M4.57068 6.45201L4.35568 6.60801L4.43668 6.35501L4.22168 6.19501H4.48868L4.57168 5.94601L4.65468 6.19501H4.92068L4.70568 6.35501L4.78668 6.60801L4.57068 6.45201Z" fill="white"/>
<path d="M6.02869 6.45201L5.81369 6.60801L5.89469 6.35501L5.67969 6.19501H5.94669L6.02969 5.94601L6.11269 6.19501H6.37869L6.16369 6.35501L6.24469 6.60801L6.02869 6.45201Z" fill="white"/>
<path d="M7.48572 6.45201L7.27072 6.60801L7.35172 6.35501L7.13672 6.19501H7.40272L7.48572 5.94601L7.56872 6.19501H7.83472L7.61972 6.35501L7.70072 6.60801L7.48572 6.45201Z" fill="white"/>
<path d="M8.94275 6.45201L8.72775 6.60801L8.80875 6.35501L8.59375 6.19501H8.85975L8.94275 5.94601L9.02575 6.19501H9.29175L9.07675 6.35501L9.15775 6.60801L8.94275 6.45201Z" fill="white"/>
<path d="M2.38513 5.65099L2.17013 5.80699L2.25113 5.55399L2.03613 5.39299H2.30313L2.38613 5.14499L2.46913 5.39299H2.73513L2.52013 5.55399L2.60113 5.80699L2.38513 5.65099Z" fill="white"/>
<path d="M3.84314 5.65099L3.62814 5.80699L3.70914 5.55399L3.49414 5.39299H3.76114L3.84414 5.14499L3.92714 5.39299H4.19314L3.97814 5.55399L4.05914 5.80699L3.84314 5.65099Z" fill="white"/>
<path d="M5.30017 5.65099L5.08517 5.80699L5.16617 5.55399L4.95117 5.39299H5.21817L5.30117 5.14499L5.38417 5.39299H5.65017L5.43517 5.55399L5.51617 5.80699L5.30017 5.65099Z" fill="white"/>
<path d="M6.75818 5.65099L6.54318 5.80699L6.62418 5.55399L6.40918 5.39299H6.67618L6.75918 5.14499L6.84218 5.39299H7.10818L6.89318 5.55399L6.97418 5.80699L6.75818 5.65099Z" fill="white"/>
<path d="M8.21521 5.65099L8.00021 5.80699L8.08121 5.55399L7.86621 5.39299H8.13221L8.21521 5.14499L8.29821 5.39299H8.56421L8.34921 5.55399L8.43021 5.80699L8.21521 5.65099Z" fill="white"/>
<path d="M19.2131 11.673H0.663086V12.587H19.2131V11.673Z" fill="#B22234"/>
</svg>
