<svg width="50" height="50" viewBox="0 0 50 50" fill="none" xmlns="http://www.w3.org/2000/svg">
<rect x="0.274805" y="0.274988" width="48.55" height="48.55" rx="24.275" stroke="black" stroke-width="0.55"/>
<path fill-rule="evenodd" clip-rule="evenodd" d="M14.5498 24.55C14.55 22.6256 15.1054 20.742 16.1495 19.1255C17.1936 17.5089 18.682 16.2279 20.4361 15.4363C22.1901 14.6446 24.1354 14.3759 26.0384 14.6623C27.9413 14.9488 29.7213 15.7783 31.1645 17.0512C32.6078 18.3242 33.6531 19.9866 34.175 21.8389C34.6969 23.6912 34.6733 25.6547 34.1069 27.494C33.5406 29.3332 32.4555 30.9699 30.982 32.2077C29.5085 33.4456 27.7091 34.2319 25.7998 34.4725V27.05H28.2998C28.6313 27.05 28.9493 26.9183 29.1837 26.6839C29.4181 26.4495 29.5498 26.1315 29.5498 25.8C29.5498 25.4685 29.4181 25.1505 29.1837 24.9161C28.9493 24.6817 28.6313 24.55 28.2998 24.55H25.7998V22.05C25.7998 21.7185 25.9315 21.4005 26.1659 21.1661C26.4003 20.9317 26.7183 20.8 27.0498 20.8H27.6748C28.0063 20.8 28.3243 20.6683 28.5587 20.4339C28.7931 20.1995 28.9248 19.8815 28.9248 19.55C28.9248 19.2185 28.7931 18.9005 28.5587 18.6661C28.3243 18.4317 28.0063 18.3 27.6748 18.3H27.0498C26.0552 18.3 25.1014 18.6951 24.3982 19.3983C23.6949 20.1016 23.2998 21.0554 23.2998 22.05V24.55H20.7998C20.4683 24.55 20.1503 24.6817 19.9159 24.9161C19.6815 25.1505 19.5498 25.4685 19.5498 25.8C19.5498 26.1315 19.6815 26.4495 19.9159 26.6839C20.1503 26.9183 20.4683 27.05 20.7998 27.05H23.2998V34.4725C20.8832 34.1678 18.6608 32.9916 17.0498 31.1647C15.4388 29.3378 14.5498 26.9858 14.5498 24.55ZM24.5498 37.05C31.4536 37.05 37.0498 31.4537 37.0498 24.55C37.0498 17.6462 31.4536 12.05 24.5498 12.05C17.6461 12.05 12.0498 17.6462 12.0498 24.55C12.0498 31.4537 17.6461 37.05 24.5498 37.05Z" fill="#4285F4"/>
</svg>
