<svg width="47" height="47" viewBox="0 0 47 47" fill="none" xmlns="http://www.w3.org/2000/svg">
<path d="M29.5745 10.0004C28.4192 10.01 27.2792 10.2895 26.2313 10.8199C25.1835 11.3504 24.2521 12.1195 23.5 13.0754C22.7478 12.1194 21.8163 11.3502 20.7683 10.8197C19.7202 10.2893 18.5801 10.0099 17.4246 10.0004C16.447 9.98991 15.4772 10.1921 14.5721 10.595C13.667 10.998 12.8447 11.5937 12.1534 12.3472C11.4621 13.1007 10.9156 13.997 10.5459 14.9835C10.1762 15.9701 9.99073 17.0271 10.0004 18.0927C10.0004 23.6549 14.5897 28.1871 21.5423 35.0727L23.5 37L25.4577 35.0578C32.4094 28.1861 36.9996 23.6549 36.9996 18.0927C37.0093 17.027 36.8238 15.9699 36.454 14.9833C36.0843 13.9967 35.5377 13.1004 34.8463 12.3469C34.1549 11.5933 33.3325 10.9976 32.4273 10.5947C31.5221 10.1918 30.5523 9.98978 29.5745 10.0004ZM23.6346 32.8809L23.5 33.0277L23.3654 32.8809C16.9393 26.5393 12.7006 22.3454 12.7006 18.0927C12.6853 17.4119 12.7971 16.7347 13.0291 16.1023C13.2612 15.47 13.6086 14.8956 14.0505 14.414C14.4923 13.9324 15.0193 13.5537 15.5994 13.3008C16.1796 13.0479 16.8008 12.9261 17.4255 12.9427C18.4515 12.9482 19.4537 13.2795 20.3097 13.8962C21.1656 14.5129 21.838 15.3882 22.2446 16.415H24.7691C25.171 15.3883 25.8399 14.5124 26.6933 13.8954C27.5466 13.2783 28.5471 12.9472 29.5711 12.9427C30.1958 12.9261 30.817 13.0479 31.3972 13.3008C31.9773 13.5537 32.5043 13.9324 32.9461 14.414C33.3879 14.8956 33.7354 15.47 33.9674 16.1023C34.1995 16.7347 34.3112 17.4119 34.2959 18.0927C34.2994 22.3454 30.0599 26.5393 23.6346 32.8809Z" fill="white"/>
</svg>
