<svg width="27" height="25" viewBox="0 0 27 25" fill="none" xmlns="http://www.w3.org/2000/svg">
<path d="M0.651015 4.00134H5.08702C5.23669 4.80047 5.69014 5.52543 6.36722 6.04807C7.0443 6.5707 7.9014 6.85736 8.78701 6.85736C9.67263 6.85736 10.5297 6.5707 11.2068 6.04807C11.8839 5.52543 12.3373 4.80047 12.487 4.00134H25.687C25.7713 4.00442 25.8553 3.99189 25.9341 3.9645C26.013 3.93712 26.0849 3.89543 26.1457 3.84195C26.2065 3.78847 26.2549 3.7243 26.288 3.65328C26.321 3.58226 26.338 3.50587 26.338 3.42868C26.338 3.35149 26.321 3.27509 26.288 3.20408C26.2549 3.13306 26.2065 3.06889 26.1457 3.01541C26.0849 2.96193 26.013 2.92024 25.9341 2.89285C25.8553 2.86546 25.7713 2.85294 25.687 2.85602H12.487C12.3373 2.05688 11.8839 1.33192 11.2068 0.809288C10.5297 0.286653 9.67263 0 8.78701 0C7.9014 0 7.0443 0.286653 6.36722 0.809288C5.69014 1.33192 5.23669 2.05688 5.08702 2.85602H0.651015C0.489449 2.86194 0.336651 2.92486 0.224623 3.0316C0.112596 3.13835 0.0500298 3.28064 0.0500298 3.42868C0.0500298 3.57671 0.112596 3.71901 0.224623 3.82575C0.336651 3.9325 0.489449 3.99542 0.651015 4.00134ZM8.78502 1.13759C9.27947 1.13759 9.76282 1.27182 10.1739 1.52332C10.5851 1.77482 10.9055 2.13228 11.0947 2.5505C11.2839 2.96873 11.3334 3.42893 11.237 3.87291C11.1405 4.3169 10.9024 4.72472 10.5528 5.04482C10.2032 5.36491 9.75769 5.5829 9.27274 5.67121C8.78779 5.75953 8.28512 5.7142 7.82831 5.54097C7.37149 5.36773 6.98104 5.07437 6.70634 4.69798C6.43164 4.32159 6.28502 3.87907 6.28502 3.42639C6.28502 2.81936 6.54841 2.2372 7.01725 1.80796C7.48609 1.37873 8.12197 1.13759 8.78502 1.13759ZM25.685 11.4491H21.244C21.0943 10.65 20.6409 9.925 19.9638 9.40236C19.2867 8.87973 18.4296 8.59308 17.544 8.59308C16.6584 8.59308 15.8013 8.87973 15.1242 9.40236C14.4471 9.925 13.9937 10.65 13.844 11.4491H0.651015C0.566769 11.446 0.48271 11.4585 0.403883 11.4859C0.325055 11.5133 0.253083 11.555 0.192285 11.6085C0.131487 11.662 0.083116 11.7261 0.0500739 11.7972C0.0170318 11.8682 0 11.9446 0 12.0218C0 12.0989 0.0170318 12.1753 0.0500739 12.2464C0.083116 12.3174 0.131487 12.3815 0.192285 12.435C0.253083 12.4885 0.325055 12.5302 0.403883 12.5576C0.48271 12.585 0.566769 12.5975 0.651015 12.5944H13.851C14.0007 13.3935 14.4541 14.1185 15.1312 14.6411C15.8083 15.1638 16.6654 15.4504 17.551 15.4504C18.4366 15.4504 19.2937 15.1638 19.9708 14.6411C20.6479 14.1185 21.1013 13.3935 21.251 12.5944H25.688C25.7723 12.5975 25.8563 12.585 25.9351 12.5576C26.014 12.5302 26.0859 12.4885 26.1467 12.435C26.2075 12.3815 26.2559 12.3174 26.289 12.2464C26.322 12.1753 26.339 12.0989 26.339 12.0218C26.339 11.9446 26.322 11.8682 26.289 11.7972C26.2559 11.7261 26.2075 11.662 26.1467 11.6085C26.0859 11.555 26.014 11.5133 25.9351 11.4859C25.8563 11.4585 25.7723 11.446 25.688 11.4491H25.685ZM17.55 14.3138C17.0556 14.3138 16.5722 14.1795 16.1611 13.928C15.75 13.6765 15.4295 13.3191 15.2403 12.9008C15.0511 12.4826 15.0016 12.0224 15.0981 11.5784C15.1945 11.1345 15.4326 10.7266 15.7822 10.4065C16.1319 10.0864 16.5773 9.86845 17.0623 9.78014C17.5472 9.69182 18.0499 9.73715 18.5067 9.91038C18.9635 10.0836 19.354 10.377 19.6287 10.7534C19.9034 11.1298 20.05 11.5723 20.05 12.025C20.05 12.3258 19.9852 12.6238 19.8593 12.9017C19.7334 13.1796 19.5489 13.4321 19.3164 13.6447C19.0838 13.8573 18.8077 14.0258 18.504 14.1406C18.2002 14.2554 17.8747 14.3142 17.546 14.3138H17.55ZM25.685 20.0422H12.485C12.3353 19.243 11.8819 18.5181 11.2048 17.9954C10.5277 17.4728 9.67063 17.1862 8.78502 17.1862C7.8994 17.1862 7.0423 17.4728 6.36522 17.9954C5.68814 18.5181 5.23469 19.243 5.08502 20.0422H0.651015C0.489449 20.0481 0.336651 20.111 0.224623 20.2178C0.112596 20.3245 0.0500298 20.4668 0.0500298 20.6148C0.0500298 20.7629 0.112596 20.9052 0.224623 21.0119C0.336651 21.1187 0.489449 21.1816 0.651015 21.1875H5.08702C5.23669 21.9866 5.69014 22.7116 6.36722 23.2342C7.0443 23.7569 7.9014 24.0435 8.78701 24.0435C9.67263 24.0435 10.5297 23.7569 11.2068 23.2342C11.8839 22.7116 12.3373 21.9866 12.487 21.1875H25.687C25.7713 21.1906 25.8553 21.178 25.9341 21.1507C26.013 21.1233 26.0849 21.0816 26.1457 21.0281C26.2065 20.9746 26.2549 20.9104 26.288 20.8394C26.321 20.7684 26.338 20.692 26.338 20.6148C26.338 20.5376 26.321 20.4612 26.288 20.3902C26.2549 20.3192 26.2065 20.255 26.1457 20.2016C26.0849 20.1481 26.013 20.1064 25.9341 20.079C25.8553 20.0516 25.7713 20.0391 25.687 20.0422H25.685ZM8.78502 22.9068C8.29056 22.9068 7.80721 22.7726 7.39609 22.5211C6.98497 22.2696 6.66454 21.9121 6.47532 21.4939C6.2861 21.0757 6.23659 20.6155 6.33305 20.1715C6.42951 19.7275 6.66762 19.3197 7.01725 18.9996C7.36688 18.6795 7.81234 18.4615 8.29729 18.3732C8.78224 18.2849 9.28491 18.3302 9.74172 18.5035C10.1985 18.6767 10.589 18.9701 10.8637 19.3464C11.1384 19.7228 11.285 20.1654 11.285 20.618C11.285 21.2251 11.0216 21.8072 10.5528 22.2365C10.0839 22.6657 9.44806 22.9068 8.78502 22.9068Z" fill="#204F38"/>
</svg>
