<svg width="23" height="23" viewBox="0 0 23 23" fill="none" xmlns="http://www.w3.org/2000/svg">
<path d="M22.3282 11.6457C22.3419 10.8626 22.2613 10.0806 22.0882 9.31674H11.3882V13.5447H17.6662C17.5478 14.2867 17.2804 14.997 16.8801 15.6329C16.4798 16.2688 15.955 16.8171 15.3372 17.2447L15.3162 17.3867L18.6982 20.0067L18.9322 20.0297C20.0519 18.9476 20.9323 17.6427 21.5166 16.1993C22.1008 14.7559 22.3759 13.2061 22.3242 11.6497" fill="#4285F4"/>
<path d="M11.3894 22.7847C14.1642 22.8631 16.8638 21.8759 18.9334 20.0257L15.3384 17.2407C14.1722 18.0207 12.7917 18.4174 11.3894 18.3757C9.94875 18.3674 8.54737 17.9055 7.38403 17.0558C6.2207 16.206 5.35451 15.0115 4.90835 13.6417L4.77436 13.6527L1.26035 16.3757L1.21436 16.5037C2.16094 18.3914 3.61389 19.9785 5.41079 21.0877C7.20768 22.1969 9.27768 22.7845 11.3894 22.7847Z" fill="#34A853"/>
<path d="M4.91024 13.6467C4.66129 12.9215 4.53292 12.1605 4.53025 11.3937C4.53537 10.6278 4.65986 9.86732 4.89925 9.13972L4.89325 8.98873L1.33125 6.22372L1.21525 6.27872C0.416207 7.86504 0 9.61653 0 11.3927C0 13.1689 0.416207 14.9204 1.21525 16.5067L4.91525 13.6457" fill="#FBBC05"/>
<path d="M11.3894 4.40574C13.0223 4.3814 14.6011 4.99072 15.7944 6.10574L19.0094 2.96674C16.9479 1.03085 14.2171 -0.0320536 11.3894 0.000736723C9.27799 0.000678348 7.20821 0.587793 5.41135 1.69646C3.61449 2.80513 2.16135 4.39166 1.21436 6.27874L4.89835 9.13974C5.34875 7.7706 6.21741 6.57731 7.38192 5.72801C8.54643 4.87872 9.94808 4.41623 11.3894 4.40574Z" fill="#EB4335"/>
</svg>
