<svg width="50" height="50" viewBox="0 0 50 50" fill="none" xmlns="http://www.w3.org/2000/svg">
<rect x="0.274805" y="0.274988" width="48.55" height="48.55" rx="24.275" stroke="black" stroke-width="0.55"/>
<path d="M31.1904 12.05H17.9092C14.6731 12.05 12.0498 14.6733 12.0498 17.9094V31.1906C12.0498 34.4267 14.6731 37.05 17.9092 37.05H31.1904C34.4265 37.05 37.0498 34.4267 37.0498 31.1906V17.9094C37.0498 14.6733 34.4265 12.05 31.1904 12.05Z" fill="url(#paint0_radial_1_3254)"/>
<path d="M31.1904 12.05H17.9092C14.6731 12.05 12.0498 14.6733 12.0498 17.9094V31.1906C12.0498 34.4267 14.6731 37.05 17.9092 37.05H31.1904C34.4265 37.05 37.0498 34.4267 37.0498 31.1906V17.9094C37.0498 14.6733 34.4265 12.05 31.1904 12.05Z" fill="url(#paint1_radial_1_3254)"/>
<path d="M24.5507 14.7844C21.8985 14.7844 21.5656 14.796 20.524 14.8433C19.4844 14.891 18.7747 15.0556 18.1538 15.2971C17.5114 15.5465 16.9666 15.8802 16.4238 16.4231C15.8806 16.966 15.5469 17.5108 15.2967 18.1529C15.0545 18.774 14.8897 19.484 14.843 20.5231C14.7964 21.5648 14.7842 21.8978 14.7842 24.5501C14.7842 27.2023 14.7959 27.5342 14.8432 28.5758C14.891 29.6154 15.0556 30.3251 15.2969 30.946C15.5465 31.5884 15.8802 32.1332 16.4231 32.676C16.9658 33.2192 17.5106 33.5537 18.1525 33.8031C18.7739 34.0446 19.4837 34.2092 20.5231 34.2568C21.5648 34.3042 21.8975 34.3158 24.5495 34.3158C27.202 34.3158 27.5338 34.3042 28.5754 34.2568C29.615 34.2092 30.3255 34.0446 30.9469 33.8031C31.589 33.5537 32.133 33.2192 32.6756 32.676C33.2188 32.1332 33.5524 31.5884 33.8027 30.9463C34.0428 30.3251 34.2076 29.6152 34.2564 28.576C34.3032 27.5344 34.3154 27.2023 34.3154 24.5501C34.3154 21.8978 34.3032 21.565 34.2564 20.5233C34.2076 19.4837 34.0428 18.7741 33.8027 18.1532C33.5524 17.5108 33.2188 16.966 32.6756 16.4231C32.1324 15.88 31.5892 15.5463 30.9463 15.2972C30.3237 15.0556 29.6137 14.8909 28.574 14.8433C27.5323 14.796 27.2007 14.7844 24.5477 14.7844H24.5507ZM23.6746 16.5442C23.9347 16.5438 24.2248 16.5442 24.5507 16.5442C27.1582 16.5442 27.4672 16.5536 28.4969 16.6004C29.449 16.6439 29.9658 16.803 30.3101 16.9367C30.7658 17.1137 31.0907 17.3253 31.4323 17.6672C31.7741 18.009 31.9856 18.3345 32.1631 18.7902C32.2968 19.134 32.4561 19.6508 32.4994 20.6029C32.5462 21.6324 32.5563 21.9416 32.5563 24.5478C32.5563 27.1541 32.5462 27.4634 32.4994 28.4928C32.4559 29.4449 32.2968 29.9617 32.1631 30.3056C31.9861 30.7613 31.7741 31.0858 31.4323 31.4274C31.0905 31.7692 30.766 31.9807 30.3101 32.1578C29.9662 32.2921 29.449 32.4508 28.4969 32.4943C27.4674 32.5411 27.1582 32.5513 24.5507 32.5513C21.9431 32.5513 21.634 32.5411 20.6046 32.4943C19.6524 32.4504 19.1356 32.2913 18.7911 32.1576C18.3354 31.9806 18.0099 31.769 17.6681 31.4272C17.3263 31.0854 17.1147 30.7607 16.9373 30.3048C16.8036 29.9609 16.6443 29.4441 16.601 28.492C16.5542 27.4625 16.5448 27.1533 16.5448 24.5454C16.5448 21.9376 16.5542 21.63 16.601 20.6005C16.6445 19.6483 16.8036 19.1315 16.9373 18.7873C17.1144 18.3315 17.3263 18.006 17.6682 17.6642C18.01 17.3224 18.3354 17.1108 18.7912 16.9335C19.1354 16.7992 19.6524 16.6405 20.6046 16.5968C21.5055 16.556 21.8546 16.5438 23.6746 16.5418V16.5442ZM29.7636 18.1657C29.1166 18.1657 28.5917 18.6901 28.5917 19.3372C28.5917 19.9842 29.1166 20.5091 29.7636 20.5091C30.4105 20.5091 30.9354 19.9842 30.9354 19.3372C30.9354 18.6902 30.4105 18.1657 29.7636 18.1657ZM24.5507 19.5349C21.7812 19.5349 19.5356 21.7805 19.5356 24.5501C19.5356 27.3197 21.7812 29.5641 24.5507 29.5641C27.3203 29.5641 29.565 27.3197 29.565 24.5501C29.565 21.7806 27.3203 19.5349 24.5507 19.5349ZM24.5507 21.2948C26.3484 21.2948 27.806 22.7521 27.806 24.5501C27.806 26.3478 26.3484 27.8054 24.5507 27.8054C22.7528 27.8054 21.2955 26.3478 21.2955 24.5501C21.2955 22.7521 22.7528 21.2948 24.5507 21.2948Z" fill="white"/>
<defs>
<radialGradient id="paint0_radial_1_3254" cx="0" cy="0" r="1" gradientUnits="userSpaceOnUse" gradientTransform="translate(18.6904 38.9755) rotate(-90) scale(24.7769 23.0444)">
<stop stop-color="#FFDD55"/>
<stop offset="0.1" stop-color="#FFDD55"/>
<stop offset="0.5" stop-color="#FF543E"/>
<stop offset="1" stop-color="#C837AB"/>
</radialGradient>
<radialGradient id="paint1_radial_1_3254" cx="0" cy="0" r="1" gradientUnits="userSpaceOnUse" gradientTransform="translate(7.86221 13.8509) rotate(78.681) scale(11.0754 45.6531)">
<stop stop-color="#3771C8"/>
<stop offset="0.128" stop-color="#3771C8"/>
<stop offset="1" stop-color="#6600FF" stop-opacity="0"/>
</radialGradient>
</defs>
</svg>
