<svg width="23" height="23" viewBox="0 0 23 23" fill="none" xmlns="http://www.w3.org/2000/svg">
<path d="M4.49056 20.4114C4.39662 20.4105 4.30585 20.3773 4.23356 20.3174C2.0513 18.5471 0.59717 16.0354 0.148623 13.2615C-0.299923 10.4876 0.288514 7.64559 1.80166 5.27782C3.3148 2.91006 5.64673 1.18226 8.35248 0.424119C11.0582 -0.334027 13.9484 -0.0694538 16.4716 1.16736C16.5663 1.21708 16.6378 1.30187 16.6709 1.40362C16.704 1.50537 16.696 1.61602 16.6486 1.71195C16.6013 1.80788 16.5183 1.88149 16.4173 1.91707C16.3164 1.95264 16.2056 1.94737 16.1086 1.90236C13.766 0.751522 11.0816 0.504217 8.56822 1.20771C6.05486 1.91119 3.88885 3.51614 2.48414 5.71583C1.07942 7.91552 0.5345 10.5557 0.953519 13.1318C1.37254 15.7079 2.72611 18.0393 4.75556 19.6804C4.82051 19.7349 4.86714 19.8081 4.88913 19.8901C4.91111 19.972 4.9074 20.0587 4.87849 20.1385C4.84958 20.2182 4.79686 20.2872 4.72748 20.336C4.65809 20.3848 4.57539 20.4111 4.49056 20.4114ZM11.4306 22.8604C9.60679 22.8651 7.80885 22.4294 6.18956 21.5904C6.09315 21.5405 6.0205 21.4544 5.98759 21.351C5.95467 21.2475 5.9642 21.1353 6.01406 21.0389C6.06392 20.9425 6.15003 20.8698 6.25346 20.8369C6.35688 20.804 6.46915 20.8135 6.56556 20.8634C8.90033 22.0672 11.5986 22.3624 14.1384 21.692C16.6783 21.0217 18.8793 19.4333 20.3159 17.234C21.7524 15.0348 22.3224 12.381 21.9156 9.78582C21.5088 7.19066 20.1541 4.83855 18.1136 3.18436C18.0697 3.15141 18.0329 3.10994 18.0054 3.06243C17.9779 3.01493 17.9602 2.96236 17.9535 2.90788C17.9468 2.8534 17.9512 2.79813 17.9663 2.74537C17.9815 2.69262 18.0071 2.64346 18.0417 2.60085C18.0763 2.55824 18.1192 2.52305 18.1677 2.49738C18.2162 2.47172 18.2694 2.45611 18.3241 2.45148C18.3788 2.44686 18.4339 2.45333 18.486 2.47049C18.5382 2.48765 18.5863 2.51515 18.6276 2.55136C20.4621 4.03928 21.7906 6.05898 22.4305 8.33274C23.0704 10.6065 22.9902 13.0227 22.2009 15.249C21.4116 17.4753 19.952 19.4024 18.0229 20.7654C16.0937 22.1284 13.7896 22.8602 11.4276 22.8604H11.4306Z" fill="#204F38"/>
<path d="M11.024 22.4524C10.9227 22.4523 10.825 22.4145 10.75 22.3464C9.21695 20.9713 8.04876 19.2376 7.35002 17.3004C6.57434 15.4387 6.15834 13.4469 6.12402 11.4304C6.12865 9.40942 6.54549 7.41067 7.34902 5.55635C8.1153 3.65564 9.27385 1.93793 10.749 0.515352C10.8302 0.455015 10.9309 0.426985 11.0316 0.436702C11.1323 0.44642 11.2258 0.493191 11.2939 0.56794C11.3621 0.64269 11.4 0.740089 11.4004 0.841239C11.4008 0.942389 11.3636 1.04008 11.296 1.11535C9.90175 2.45731 8.80564 4.07779 8.07902 5.87135C7.32696 7.62709 6.93945 9.51732 6.94002 11.4274C6.96612 13.3363 7.35397 15.2229 8.08302 16.9874C8.74311 18.8134 9.8473 20.4465 11.296 21.7394C11.357 21.7947 11.3997 21.8672 11.4187 21.9473C11.4377 22.0275 11.432 22.1114 11.4023 22.1882C11.3727 22.2651 11.3205 22.3311 11.2526 22.3777C11.1847 22.4243 11.1044 22.4493 11.022 22.4494L11.024 22.4524Z" fill="#204F38"/>
<path d="M11.839 22.4524C11.7567 22.4523 11.6763 22.4273 11.6084 22.3807C11.5405 22.3341 11.4884 22.2681 11.4587 22.1912C11.4291 22.1144 11.4234 22.0305 11.4423 21.9503C11.4613 21.8702 11.5041 21.7977 11.565 21.7424C13.0137 20.4495 14.1179 18.8164 14.778 16.9904C15.5068 15.2266 15.8947 13.3406 15.921 11.4324C15.9216 9.52232 15.5341 7.63209 14.782 5.87635C14.0554 4.0828 12.9593 2.46233 11.565 1.12035C11.5193 1.08634 11.4811 1.04311 11.4531 0.993463C11.4251 0.943811 11.4078 0.888836 11.4023 0.832083C11.3968 0.775329 11.4033 0.718057 11.4213 0.663962C11.4393 0.609866 11.4685 0.560148 11.5069 0.518012C11.5453 0.475877 11.5921 0.442261 11.6443 0.419332C11.6965 0.396403 11.7529 0.38467 11.81 0.384891C11.867 0.385111 11.9233 0.39728 11.9753 0.420612C12.0274 0.443943 12.0739 0.477921 12.112 0.520352C13.5948 1.9409 14.7606 3.65876 15.533 5.56135C16.3293 7.41619 16.7393 9.41382 16.738 11.4324C16.704 13.4488 16.2884 15.4406 15.513 17.3024C14.8094 19.2414 13.6353 20.9753 12.096 22.3484C12.0251 22.412 11.9342 22.4487 11.839 22.4524Z" fill="#204F38"/>
<path d="M22.452 11.8384H0.408C0.299792 11.8384 0.196015 11.7954 0.1195 11.7189C0.0429853 11.6424 0 11.5386 0 11.4304C0 11.3222 0.0429853 11.2184 0.1195 11.1419C0.196015 11.0654 0.299792 11.0224 0.408 11.0224H22.452C22.5602 11.0224 22.664 11.0654 22.7405 11.1419C22.817 11.2184 22.86 11.3222 22.86 11.4304C22.86 11.5386 22.817 11.6424 22.7405 11.7189C22.664 11.7954 22.5602 11.8384 22.452 11.8384ZM20.819 6.12337H2.041C1.93279 6.12337 1.82902 6.08039 1.7525 6.00387C1.67599 5.92736 1.633 5.82358 1.633 5.71537C1.633 5.60717 1.67599 5.50339 1.7525 5.42687C1.82902 5.35036 1.93279 5.30737 2.041 5.30737H20.819C20.9272 5.30737 21.031 5.35036 21.1075 5.42687C21.184 5.50339 21.227 5.60717 21.227 5.71537C21.227 5.82358 21.184 5.92736 21.1075 6.00387C21.031 6.08039 20.9272 6.12337 20.819 6.12337ZM20.819 17.5534H2.041C1.93279 17.5534 1.82902 17.5104 1.7525 17.4339C1.67599 17.3574 1.633 17.2536 1.633 17.1454C1.633 17.0372 1.67599 16.9334 1.7525 16.8569C1.82902 16.7804 1.93279 16.7374 2.041 16.7374H20.819C20.9272 16.7374 21.031 16.7804 21.1075 16.8569C21.184 16.9334 21.227 17.0372 21.227 17.1454C21.227 17.2536 21.184 17.3574 21.1075 17.4339C21.031 17.5104 20.9272 17.5534 20.819 17.5534Z" fill="#204F38"/>
<path d="M11.4305 22.4524C11.3768 22.4524 11.3237 22.4418 11.2741 22.4212C11.2245 22.4007 11.1795 22.3705 11.1416 22.3325C11.1037 22.2945 11.0737 22.2494 11.0532 22.1998C11.0328 22.1502 11.0223 22.097 11.0225 22.0434V0.816386C11.0225 0.708178 11.0654 0.604401 11.142 0.527886C11.2185 0.451372 11.3223 0.408386 11.4305 0.408386C11.5387 0.408386 11.6424 0.451372 11.719 0.527886C11.7955 0.604401 11.8385 0.708178 11.8385 0.816386V22.0434C11.8386 22.097 11.8281 22.1502 11.8077 22.1998C11.7872 22.2494 11.7572 22.2945 11.7193 22.3325C11.6814 22.3705 11.6364 22.4007 11.5868 22.4212C11.5373 22.4418 11.4841 22.4524 11.4305 22.4524Z" fill="#204F38"/>
</svg>
