<svg width="18" height="20" viewBox="0 0 18 20" fill="none" xmlns="http://www.w3.org/2000/svg">
<g filter="url(#filter0_d_1_1275)">
<path d="M8.98993 5.23028C9.24894 5.2394 9.50502 5.17743 9.72528 5.05233C9.94554 4.92722 10.1199 4.74469 10.226 4.52817C10.3321 4.31166 10.3651 4.07105 10.3207 3.83725C10.2764 3.60344 10.1567 3.38712 9.97701 3.21606C9.79736 3.045 9.56595 2.92702 9.3125 2.87726C9.05906 2.8275 8.79516 2.84825 8.55469 2.93682C8.31421 3.0254 8.10816 3.17777 7.96298 3.37436C7.8178 3.57096 7.74012 3.80279 7.73993 4.0401C7.7335 4.34963 7.86154 4.64884 8.09592 4.872C8.3303 5.09516 8.65184 5.22402 8.98993 5.23028ZM8.54593 9.35012C8.60281 9.40578 8.67156 9.45015 8.74794 9.48049C8.82431 9.51083 8.90668 9.52648 8.98993 9.52648C9.07318 9.52648 9.15555 9.51083 9.23192 9.48049C9.3083 9.45015 9.37706 9.40578 9.43393 9.35012L11.9899 6.90385C12.7884 6.13102 13.2334 5.10758 13.2334 4.04376C13.2334 2.97994 12.7884 1.95651 11.9899 1.18368C11.6042 0.809848 11.1392 0.512048 10.6233 0.308515C10.1075 0.104982 9.55165 0 8.98993 0C8.42821 0 7.87241 0.104982 7.35656 0.308515C6.84071 0.512048 6.37567 0.809848 5.98993 1.18368C5.19142 1.95651 4.74647 2.97994 4.74647 4.04376C4.74647 5.10758 5.19142 6.13102 5.98993 6.90385L8.54593 9.35012ZM6.00893 3.76544C6.04853 3.34531 6.18822 2.93822 6.41818 2.57284C6.64814 2.20746 6.96277 1.89266 7.33993 1.65059C7.8252 1.34446 8.40061 1.18054 8.98993 1.18054C9.57925 1.18054 10.1547 1.34446 10.6399 1.65059C11.0152 1.89214 11.3285 2.20564 11.558 2.56929C11.7875 2.93293 11.9278 3.33799 11.9689 3.75629C12.0149 4.17567 11.9619 4.5992 11.8136 4.99819C11.6652 5.39719 11.4249 5.76233 11.1089 6.06889L8.98993 8.08304L6.87093 6.06432C6.55453 5.76076 6.31359 5.39815 6.16463 5.00135C6.01567 4.60454 5.96321 4.18294 6.00893 3.76544ZM13.3649 10.7106H4.61493C4.44877 10.719 4.29246 10.7854 4.17809 10.8961C4.06373 11.0068 4 11.1533 4 11.3057C4 11.458 4.06373 11.6046 4.17809 11.7153C4.29246 11.8259 4.44877 11.8923 4.61493 11.9008H13.3649C13.5311 11.8923 13.6874 11.8259 13.8018 11.7153C13.9161 11.6046 13.9799 11.458 13.9799 11.3057C13.9799 11.1533 13.9161 11.0068 13.8018 10.8961C13.6874 10.7854 13.5311 10.719 13.3649 10.7106Z" fill="#204F38"/>
</g>
<defs>
<filter id="filter0_d_1_1275" x="0" y="0" width="17.98" height="19.9008" filterUnits="userSpaceOnUse" color-interpolation-filters="sRGB">
<feFlood flood-opacity="0" result="BackgroundImageFix"/>
<feColorMatrix in="SourceAlpha" type="matrix" values="0 0 0 0 0 0 0 0 0 0 0 0 0 0 0 0 0 0 127 0" result="hardAlpha"/>
<feOffset dy="4"/>
<feGaussianBlur stdDeviation="2"/>
<feComposite in2="hardAlpha" operator="out"/>
<feColorMatrix type="matrix" values="0 0 0 0 0 0 0 0 0 0 0 0 0 0 0 0 0 0 0.25 0"/>
<feBlend mode="normal" in2="BackgroundImageFix" result="effect1_dropShadow_1_1275"/>
<feBlend mode="normal" in="SourceGraphic" in2="effect1_dropShadow_1_1275" result="shape"/>
</filter>
</defs>
</svg>
