<svg width="47" height="47" viewBox="0 0 47 47" fill="none" xmlns="http://www.w3.org/2000/svg">
<path d="M37 13.3744H10V10H37V13.3744ZM26.8754 20.1231H10V16.7487H26.8754V20.1231ZM37 26.9445H10V23.5702H37V26.9445Z" fill="white"/>
<path d="M11.6874 36.323C12.6194 36.323 13.3749 35.5676 13.3749 34.6358C13.3749 33.704 12.6194 32.9486 11.6874 32.9486C10.7555 32.9486 10 33.704 10 34.6358C10 35.5676 10.7555 36.323 11.6874 36.323Z" fill="white"/>
<path d="M19.7538 34.6317C19.7542 34.9659 19.6555 35.2928 19.47 35.5709C19.2846 35.8489 19.0208 36.0658 18.7121 36.1939C18.4033 36.3221 18.0635 36.3557 17.7356 36.2907C17.4077 36.2257 17.1065 36.0648 16.8701 35.8286C16.6336 35.5923 16.4726 35.2912 16.4074 34.9634C16.3421 34.6356 16.3756 34.2959 16.5036 33.9871C16.6315 33.6783 16.8482 33.4144 17.1263 33.2289C17.4043 33.0433 17.7311 32.9443 18.0654 32.9445C18.5135 32.9445 18.9432 33.1225 19.26 33.4393C19.5769 33.7561 19.7549 34.1857 19.7549 34.6338L19.7538 34.6317Z" fill="white"/>
<path d="M24.4423 36.323C25.3742 36.323 26.1297 35.5676 26.1297 34.6358C26.1297 33.704 25.3742 32.9486 24.4423 32.9486C23.5104 32.9486 22.7549 33.704 22.7549 34.6358C22.7549 35.5676 23.5104 36.323 24.4423 36.323Z" fill="white"/>
</svg>
