<svg width="27" height="27" viewBox="0 0 27 27" fill="none" xmlns="http://www.w3.org/2000/svg">
<path d="M3.25764 22.2228L4.1807 21.0096C4.36443 20.7757 4.46047 20.4688 4.44817 20.1549V19.9554C4.45849 19.8629 4.45012 19.7689 4.4237 19.6806C4.39728 19.5924 4.35352 19.5122 4.29578 19.4462C4.23803 19.3803 4.16782 19.3303 4.09054 19.3001C4.01327 19.27 3.93097 19.2604 3.84995 19.2722H0.843659C0.731771 19.2722 0.624465 19.323 0.545348 19.4133C0.46623 19.5037 0.421783 19.6262 0.421783 19.754V20.7176C0.421783 20.8454 0.46623 20.9679 0.545348 21.0583C0.624465 21.1487 0.731771 21.1994 0.843659 21.1994H2.04769C1.84298 21.4347 1.64921 21.682 1.46719 21.9404L1.17104 22.3625C1.06951 22.477 1.00098 22.6241 0.974601 22.7842C0.948218 22.9444 0.965234 23.1099 1.02338 23.2587L1.07907 23.3753C1.12766 23.5233 1.21683 23.6494 1.3333 23.7348C1.44977 23.8203 1.5873 23.8604 1.72538 23.8493H1.97851C2.52357 23.8493 2.82226 23.9968 2.82226 24.3967C2.82226 24.6858 2.60035 24.892 2.06288 24.892C1.7829 24.8894 1.50595 24.8256 1.24697 24.7041C0.904409 24.4699 0.627658 24.493 0.424314 24.892L0.129844 25.4528C0.078307 25.5241 0.0407256 25.6072 0.0196219 25.6965C-0.00148185 25.7858 -0.00561979 25.8792 0.00748574 25.9705C0.0205913 26.0617 0.0506371 26.1487 0.0956071 26.2257C0.140577 26.3026 0.199431 26.3676 0.26822 26.4164C0.861887 26.8036 1.53628 27.0001 2.21982 26.9849C2.54471 27.0247 2.87329 26.9854 3.1839 26.8696C3.4945 26.7537 3.78006 26.5639 4.02174 26.3128C4.26342 26.0617 4.45571 25.7548 4.58594 25.4126C4.71617 25.0703 4.78137 24.7004 4.77724 24.3273C4.77167 23.8313 4.61802 23.3524 4.34169 22.9697C4.06536 22.587 3.68292 22.3235 3.25764 22.2228ZM26.1562 11.5633H9.28119C9.05741 11.5633 8.8428 11.6648 8.68457 11.8456C8.52633 12.0263 8.43744 12.2714 8.43744 12.5269V14.4542C8.43744 14.7097 8.52633 14.9548 8.68457 15.1355C8.8428 15.3162 9.05741 15.4178 9.28119 15.4178H26.1562C26.38 15.4178 26.5946 15.3162 26.7529 15.1355C26.9111 14.9548 27 14.7097 27 14.4542V12.5269C27 12.2714 26.9111 12.0263 26.7529 11.8456C26.5946 11.6648 26.38 11.5633 26.1562 11.5633ZM26.1562 1.92722H9.28119C9.05741 1.92722 8.8428 2.02874 8.68457 2.20946C8.52633 2.39017 8.43744 2.63526 8.43744 2.89083V4.81805C8.43744 5.07362 8.52633 5.31871 8.68457 5.49943C8.8428 5.68014 9.05741 5.78166 9.28119 5.78166H26.1562C26.38 5.78166 26.5946 5.68014 26.7529 5.49943C26.9111 5.31871 27 5.07362 27 4.81805V2.89083C27 2.63526 26.9111 2.39017 26.7529 2.20946C26.5946 2.02874 26.38 1.92722 26.1562 1.92722ZM26.1562 21.1994H9.28119C9.05741 21.1994 8.8428 21.3009 8.68457 21.4817C8.52633 21.6624 8.43744 21.9075 8.43744 22.163V24.0903C8.43744 24.3458 8.52633 24.5909 8.68457 24.7716C8.8428 24.9523 9.05741 25.0539 9.28119 25.0539H26.1562C26.38 25.0539 26.5946 24.9523 26.7529 24.7716C26.9111 24.5909 27 24.3458 27 24.0903V22.163C27 21.9075 26.9111 21.6624 26.7529 21.4817C26.5946 21.3009 26.38 21.1994 26.1562 21.1994ZM0.843659 7.70888H4.21867C4.33056 7.70888 4.43787 7.65812 4.51698 7.56776C4.5961 7.47741 4.64055 7.35486 4.64055 7.22708V6.26347C4.64055 6.13568 4.5961 6.01313 4.51698 5.92278C4.43787 5.83242 4.33056 5.78166 4.21867 5.78166H3.37492V0.481805C3.37492 0.354022 3.33047 0.231473 3.25135 0.141118C3.17224 0.0507616 3.06493 0 2.95304 0H1.68741C1.60927 0.000181564 1.53271 0.0251434 1.46627 0.0721029C1.39982 0.119062 1.3461 0.186174 1.3111 0.265956L0.889222 1.22957C0.857024 1.30295 0.841775 1.38451 0.844921 1.46651C0.848068 1.54851 0.869505 1.62823 0.907201 1.69812C0.944896 1.768 0.9976 1.82573 1.06031 1.86583C1.12302 1.90592 1.19367 1.92705 1.26554 1.92722H1.68741V5.78166H0.843659C0.731771 5.78166 0.624465 5.83242 0.545348 5.92278C0.46623 6.01313 0.421783 6.13568 0.421783 6.26347V7.22708C0.421783 7.35486 0.46623 7.47741 0.545348 7.56776C0.624465 7.65812 0.731771 7.70888 0.843659 7.70888ZM0.637784 17.345H4.21867C4.33056 17.345 4.43787 17.2942 4.51698 17.2039C4.5961 17.1135 4.64055 16.991 4.64055 16.8632V15.8996C4.64055 15.7718 4.5961 15.6492 4.51698 15.5589C4.43787 15.4685 4.33056 15.4178 4.21867 15.4178H2.17848C2.35229 14.7982 4.72745 14.2932 4.72745 12.0181C4.72201 11.6815 4.65559 11.3499 4.5324 11.044C4.4092 10.7381 4.23189 10.4647 4.01162 10.2409C3.79136 10.0172 3.53292 9.84793 3.25257 9.74383C2.97222 9.63973 2.67604 9.60305 2.38266 9.6361C1.97451 9.61641 1.56817 9.70867 1.19765 9.90515C0.827134 10.1016 0.503222 10.3966 0.253032 10.7655C0.19992 10.8331 0.161057 10.9137 0.139418 11.0011C0.117779 11.0885 0.113938 11.1804 0.128189 11.2698C0.142439 11.3592 0.174403 11.4436 0.221634 11.5167C0.268866 11.5898 0.330113 11.6496 0.400689 11.6915L0.85294 12.1058C1.1491 12.3805 1.43344 12.2542 1.7026 11.9584C1.83573 11.8094 2.01488 11.7263 2.20126 11.7271C2.2646 11.7205 2.32844 11.7294 2.38856 11.7531C2.44868 11.7768 2.5037 11.8149 2.54997 11.8647C2.59624 11.9146 2.63271 11.9751 2.65696 12.0422C2.68121 12.1094 2.69269 12.1816 2.69063 12.2542C2.69063 13.0251 0.00243757 13.5696 0.00243757 16.417V16.6579C-0.00151785 16.7527 0.0124867 16.8473 0.0434941 16.9353C0.0745016 17.0233 0.121781 17.1027 0.182102 17.1679C0.242423 17.2331 0.314363 17.2827 0.393007 17.3133C0.471651 17.3438 0.555145 17.3547 0.637784 17.345Z" fill="white"/>
</svg>
