<svg width="16" height="16" viewBox="0 0 16 16" fill="none" xmlns="http://www.w3.org/2000/svg">
<path d="M3.131 6.737C4.38466 9.18888 6.37912 11.1833 8.831 12.437L10.731 10.537C10.8441 10.4237 10.9866 10.3442 11.1424 10.3074C11.2982 10.2707 11.4612 10.2781 11.613 10.329C12.6093 10.6564 13.6513 10.8228 14.7 10.822C14.9293 10.8225 15.149 10.9138 15.3111 11.0759C15.4732 11.238 15.5645 11.4578 15.565 11.687V14.7C15.5645 14.9293 15.4732 15.149 15.3111 15.3111C15.149 15.4732 14.9293 15.5645 14.7 15.565C10.8013 15.565 7.06231 14.0163 4.30553 11.2595C1.54875 8.50269 0 4.76368 0 0.865C0.000528228 0.63575 0.0918317 0.416041 0.253936 0.253936C0.416041 0.0918317 0.63575 0.000528228 0.865 0H3.892C4.12125 0.000528228 4.34096 0.0918317 4.50306 0.253936C4.66517 0.416041 4.75647 0.63575 4.757 0.865C4.75553 1.91372 4.92197 2.95591 5.25 3.952C5.29894 4.10462 5.30466 4.26782 5.26654 4.4235C5.22841 4.57918 5.14793 4.72126 5.034 4.834L3.134 6.734L3.131 6.737Z" fill="#656665"/>
</svg>
