<svg width="21" height="24" viewBox="0 0 21 24" fill="none" xmlns="http://www.w3.org/2000/svg">
<path d="M19.863 22.221V19.863C19.863 18.6122 19.3661 17.4127 18.4817 16.5283C17.5973 15.6439 16.3978 15.147 15.147 15.147H5.716C4.46524 15.147 3.26571 15.6439 2.38128 16.5283C1.49686 17.4127 1 18.6122 1 19.863V22.221" stroke="black" stroke-width="2" stroke-linecap="round" stroke-linejoin="round"/>
<path d="M15.1468 5.716C15.1468 6.64878 14.8702 7.56061 14.352 8.33617C13.8337 9.11174 13.0971 9.7162 12.2354 10.0731C11.3736 10.43 10.4253 10.5234 9.51043 10.3413C8.59559 10.1593 7.75528 9.71001 7.09578 9.05036C6.43627 8.39072 5.9872 7.55031 5.80534 6.63543C5.62349 5.72055 5.71702 4.77229 6.07412 3.91057C6.43121 3.04885 7.03583 2.31238 7.8115 1.7943C8.58718 1.27622 9.49907 0.999802 10.4318 1C11.6826 1 12.8821 1.49686 13.7666 2.38128C14.651 3.26571 15.1468 4.46524 15.1468 5.716Z" stroke="black" stroke-width="2" stroke-linecap="round" stroke-linejoin="round"/>
</svg>
