<svg width="28" height="25" viewBox="0 0 28 25" fill="none" xmlns="http://www.w3.org/2000/svg">
<path d="M23.276 11.1971C23.276 13.2139 22.6228 15.1854 21.3989 16.8623C20.1751 18.5392 18.4355 19.8461 16.4003 20.6179C14.3651 21.3897 12.1256 21.5917 9.96509 21.1982C7.80453 20.8047 5.81993 19.8336 4.26225 18.4075C2.70457 16.9814 1.64378 15.1645 1.21402 13.1864C0.784256 11.2084 1.00483 9.15809 1.84783 7.29482C2.69084 5.43155 4.11843 3.83898 5.95006 2.71852C7.7817 1.59805 9.93512 1 12.138 1C15.092 1 17.925 2.07433 20.0138 3.98665C22.1025 5.89897 23.276 8.49264 23.276 11.1971Z" stroke="#204F38" stroke-width="2" stroke-linecap="round" stroke-linejoin="round"/>
<path d="M26.0599 23.9428L20.0039 18.3984" stroke="black" stroke-width="2" stroke-linecap="round" stroke-linejoin="round"/>
</svg>
