<svg width="23" height="21" viewBox="0 0 23 21" fill="none" xmlns="http://www.w3.org/2000/svg">
<path d="M7.188 11.5H6.469C6.0911 11.5003 5.71696 11.575 5.36794 11.7199C5.01892 11.8647 4.70187 12.077 4.43489 12.3444C4.1679 12.6119 3.95623 12.9293 3.81195 13.2786C3.66766 13.6278 3.59361 14.0021 3.594 14.38V17.244C3.59347 18.0071 3.89604 18.7392 4.43518 19.2793C4.97432 19.8194 5.70588 20.1232 6.469 20.124H7.188C7.37697 20.1239 7.56407 20.0865 7.73861 20.0141C7.91314 19.9416 8.0717 19.8355 8.20523 19.7018C8.33876 19.5681 8.44465 19.4094 8.51685 19.2348C8.58904 19.0601 8.62613 18.873 8.626 18.684V12.94C8.62613 12.751 8.58904 12.5639 8.51685 12.3892C8.44465 12.2146 8.33876 12.0559 8.20523 11.9222C8.0717 11.7885 7.91314 11.6824 7.73861 11.6099C7.56407 11.5375 7.37697 11.5001 7.188 11.5ZM16.532 11.5H15.813C15.4315 11.5005 15.0659 11.6525 14.7964 11.9225C14.527 12.1926 14.3757 12.5585 14.376 12.94V18.685C14.3759 18.874 14.413 19.0611 14.4852 19.2358C14.5573 19.4104 14.6632 19.5691 14.7968 19.7028C14.9303 19.8365 15.0889 19.9426 15.2634 20.0151C15.4379 20.0875 15.625 20.1249 15.814 20.125H16.533C17.2961 20.1242 18.0277 19.8204 18.5668 19.2803C19.106 18.7402 19.4085 18.0081 19.408 17.245V14.38C19.4085 13.6169 19.106 12.8848 18.5668 12.3447C18.0277 11.8046 17.2961 11.5008 16.533 11.5H16.532ZM11.5 0C8.46758 0.0561585 5.57502 1.28579 3.43041 3.43041C1.28579 5.57502 0.0561585 8.46758 0 11.5L0 16.531C0 16.6254 0.0185975 16.7189 0.0547306 16.8061C0.0908637 16.8934 0.143825 16.9726 0.21059 17.0394C0.277356 17.1062 0.356618 17.1591 0.443851 17.1953C0.531084 17.2314 0.62458 17.25 0.719 17.25H1.438C1.53242 17.25 1.62592 17.2314 1.71315 17.1953C1.80038 17.1591 1.87964 17.1062 1.94641 17.0394C2.01318 16.9726 2.06614 16.8934 2.10227 16.8061C2.1384 16.7189 2.157 16.6254 2.157 16.531V11.5C2.157 9.02182 3.14145 6.64513 4.89379 4.89279C6.64613 3.14045 9.02282 2.156 11.501 2.156C13.9792 2.156 16.3559 3.14045 18.1082 4.89279C19.8605 6.64513 20.845 9.02182 20.845 11.5V16.531C20.845 16.6254 20.8636 16.7189 20.8997 16.8061C20.9359 16.8934 20.9888 16.9726 21.0556 17.0394C21.1224 17.1062 21.2016 17.1591 21.2889 17.1953C21.3761 17.2314 21.4696 17.25 21.564 17.25H22.283C22.4733 17.2495 22.6557 17.1735 22.7901 17.0387C22.9245 16.9039 23 16.7213 23 16.531V11.5C22.9438 8.46758 21.7142 5.57502 19.5696 3.43041C17.425 1.28579 14.5324 0.0561585 11.5 0Z" fill="#204F38"/>
</svg>
