<svg width="25" height="19" viewBox="0 0 25 19" fill="none" xmlns="http://www.w3.org/2000/svg">
<path d="M11.8936 18.9642C11.7262 18.964 11.5626 18.9142 11.4235 18.8211C11.2843 18.728 11.1758 18.5959 11.1116 18.4412C11.0475 18.2866 11.0305 18.1164 11.0629 17.9522C11.0953 17.7879 11.1756 17.6369 11.2936 17.5182L11.4436 17.3682C11.4633 17.3485 11.4867 17.3329 11.5124 17.3222C11.5382 17.3116 11.5658 17.3061 11.5936 17.3061C11.6215 17.3061 11.6491 17.3116 11.6748 17.3222C11.7005 17.3329 11.7239 17.3485 11.7436 17.3682C11.7633 17.3879 11.779 17.4113 11.7896 17.437C11.8003 17.4628 11.8058 17.4904 11.8058 17.5182C11.8058 17.5461 11.8003 17.5737 11.7896 17.5994C11.779 17.6251 11.7633 17.6485 11.7436 17.6682L11.5936 17.8182C11.5542 17.8576 11.5229 17.9044 11.5016 17.9558C11.4802 18.0073 11.4693 18.0625 11.4693 18.1182C11.4693 18.174 11.4802 18.2291 11.5016 18.2806C11.5229 18.3321 11.5542 18.3788 11.5936 18.4182C11.6744 18.4955 11.7819 18.5386 11.8936 18.5386C12.0054 18.5386 12.1129 18.4955 12.1936 18.4182L12.3436 18.2682C12.3633 18.2485 12.3867 18.2329 12.4124 18.2222C12.4382 18.2116 12.4658 18.2061 12.4936 18.2061C12.5215 18.2061 12.5491 18.2116 12.5748 18.2222C12.6005 18.2329 12.6239 18.2485 12.6436 18.2682C12.6633 18.2879 12.679 18.3113 12.6896 18.337C12.7003 18.3628 12.7058 18.3904 12.7058 18.4182C12.7058 18.4461 12.7003 18.4737 12.6896 18.4994C12.679 18.5251 12.6633 18.5485 12.6436 18.5682L12.4936 18.7182C12.4149 18.7969 12.3213 18.8592 12.2183 18.9015C12.1153 18.9437 12.0049 18.965 11.8936 18.9642Z" fill="#204F38"/>
<path d="M10.9956 18.0643C10.828 18.0645 10.6641 18.015 10.5246 17.922C10.3851 17.829 10.2764 17.6967 10.2121 17.5419C10.1479 17.387 10.131 17.2166 10.1637 17.0522C10.1964 16.8878 10.2771 16.7368 10.3956 16.6183L10.5456 16.4683C10.5653 16.4486 10.5887 16.4329 10.6144 16.4223C10.6402 16.4116 10.6678 16.4061 10.6956 16.4061C10.7235 16.4061 10.7511 16.4116 10.7768 16.4223C10.8025 16.4329 10.8259 16.4486 10.8456 16.4683C10.8653 16.488 10.8809 16.5113 10.8916 16.5371C10.9023 16.5628 10.9078 16.5904 10.9078 16.6183C10.9078 16.6461 10.9023 16.6737 10.8916 16.6994C10.8809 16.7252 10.8653 16.7486 10.8456 16.7683L10.6956 16.9183C10.6561 16.9576 10.6247 17.0043 10.6033 17.0558C10.5819 17.1073 10.5708 17.1625 10.5708 17.2183C10.5708 17.274 10.5819 17.3292 10.6033 17.3807C10.6247 17.4322 10.6561 17.4789 10.6956 17.5183C10.7765 17.5953 10.8839 17.6383 10.9956 17.6383C11.1073 17.6383 11.2147 17.5953 11.2956 17.5183L11.4456 17.3683C11.4653 17.3486 11.4887 17.3329 11.5144 17.3223C11.5402 17.3116 11.5678 17.3061 11.5956 17.3061C11.6235 17.3061 11.6511 17.3116 11.6768 17.3223C11.7025 17.3329 11.7259 17.3486 11.7456 17.3683C11.7653 17.388 11.7809 17.4113 11.7916 17.4371C11.8023 17.4628 11.8078 17.4904 11.8078 17.5183C11.8078 17.5461 11.8023 17.5737 11.7916 17.5994C11.7809 17.6252 11.7653 17.6486 11.7456 17.6683L11.5956 17.8183C11.5169 17.8971 11.4233 17.9596 11.3204 18.0021C11.2174 18.0447 11.107 18.0665 10.9956 18.0663V18.0643Z" fill="#204F38"/>
<path d="M10.0962 17.1653C9.92858 17.1655 9.76465 17.116 9.62518 17.023C9.48571 16.93 9.37697 16.7977 9.31272 16.6429C9.24848 16.4881 9.23162 16.3176 9.26428 16.1532C9.29695 15.9888 9.37766 15.8378 9.49621 15.7193L9.64621 15.5693C9.68599 15.5295 9.73995 15.5071 9.79621 15.5071C9.85247 15.5071 9.90643 15.5295 9.94621 15.5693C9.98599 15.6091 10.0083 15.663 10.0083 15.7193C10.0083 15.7755 9.98599 15.8295 9.94621 15.8693L9.79621 16.0193C9.71664 16.0988 9.67195 16.2067 9.67195 16.3193C9.67195 16.4318 9.71664 16.5397 9.79621 16.6193C9.87577 16.6988 9.98369 16.7435 10.0962 16.7435C10.2087 16.7435 10.3166 16.6988 10.3962 16.6193L10.5462 16.4693C10.5659 16.4496 10.5893 16.434 10.615 16.4233C10.6408 16.4126 10.6684 16.4071 10.6962 16.4071C10.7241 16.4071 10.7517 16.4126 10.7774 16.4233C10.8031 16.434 10.8265 16.4496 10.8462 16.4693C10.8659 16.489 10.8815 16.5124 10.8922 16.5381C10.9029 16.5638 10.9083 16.5914 10.9083 16.6193C10.9083 16.6471 10.9029 16.6747 10.8922 16.7005C10.8815 16.7262 10.8659 16.7496 10.8462 16.7693L10.6962 16.9193C10.6174 16.9979 10.5238 17.0603 10.4209 17.1027C10.3179 17.145 10.2076 17.1657 10.0962 17.1653Z" fill="#204F38"/>
<path d="M9.19659 16.2672C9.02918 16.267 8.86558 16.2172 8.72642 16.1241C8.58725 16.0311 8.47875 15.8989 8.41459 15.7442C8.35043 15.5896 8.33347 15.4194 8.36586 15.2552C8.39825 15.0909 8.47853 14.9399 8.59659 14.8212L8.74659 14.6712C8.76629 14.6515 8.78968 14.6359 8.81541 14.6253C8.84115 14.6146 8.86874 14.6091 8.89659 14.6091C8.92445 14.6091 8.95204 14.6146 8.97777 14.6253C9.00351 14.6359 9.02689 14.6515 9.04659 14.6712C9.06629 14.6909 9.08192 14.7143 9.09258 14.7401C9.10324 14.7658 9.10873 14.7934 9.10873 14.8212C9.10873 14.8491 9.10324 14.8767 9.09258 14.9024C9.08192 14.9282 9.06629 14.9515 9.04659 14.9712L8.89659 15.1212C8.8572 15.1606 8.82595 15.2074 8.80462 15.2589C8.7833 15.3104 8.77233 15.3655 8.77233 15.4212C8.77233 15.477 8.7833 15.5321 8.80462 15.5836C8.82595 15.6351 8.8572 15.6818 8.89659 15.7212C8.93599 15.7606 8.98276 15.7919 9.03423 15.8132C9.08571 15.8345 9.14088 15.8455 9.19659 15.8455C9.25231 15.8455 9.30748 15.8345 9.35895 15.8132C9.41043 15.7919 9.4572 15.7606 9.49659 15.7212L9.64659 15.5712C9.68638 15.5315 9.74033 15.5091 9.79659 15.5091C9.85285 15.5091 9.90681 15.5315 9.94659 15.5712C9.98638 15.611 10.0087 15.665 10.0087 15.7212C10.0087 15.7775 9.98638 15.8315 9.94659 15.8712L9.79659 16.0212C9.71781 16.1 9.62426 16.1625 9.5213 16.205C9.41834 16.2476 9.308 16.2694 9.19659 16.2692V16.2672ZM5.90159 12.0372C5.84537 12.0372 5.79145 12.0149 5.75159 11.9752L1.70959 7.93124C1.6899 7.91154 1.67427 7.88816 1.66361 7.86242C1.65295 7.83668 1.64746 7.8091 1.64746 7.78124C1.64746 7.72498 1.66981 7.67102 1.70959 7.63124C1.74938 7.59146 1.80333 7.56911 1.85959 7.56911C1.91585 7.56911 1.96981 7.59146 2.00959 7.63124L5.90359 11.5252L9.49659 7.93124L5.60259 4.03724C5.56281 3.99746 5.54046 3.9435 5.54046 3.88724C5.54046 3.83098 5.56281 3.77702 5.60259 3.73724C5.64238 3.69746 5.69633 3.67511 5.75259 3.67511C5.80885 3.67511 5.86281 3.69746 5.90259 3.73724L9.94659 7.78024C9.96631 7.79993 9.98195 7.82331 9.99262 7.84905C10.0033 7.87479 10.0088 7.90238 10.0088 7.93024C10.0088 7.9581 10.0033 7.98569 9.99262 8.01143C9.98195 8.03717 9.96631 8.06055 9.94659 8.08024L6.05259 11.9802C6.01205 12.0183 5.95715 12.0387 5.90159 12.0372Z" fill="#204F38"/>
<path d="M4.10519 10.2412C4.04896 10.2412 3.99504 10.2189 3.95519 10.1792L0.0621867 6.28524C0.0424727 6.26555 0.0268334 6.24217 0.0161629 6.21643C0.00549235 6.19069 0 6.1631 0 6.13524C0 6.10738 0.00549235 6.07979 0.0161629 6.05405C0.0268334 6.02831 0.0424727 6.00493 0.0621867 5.98524L3.95619 2.09124C3.97588 2.07153 3.99926 2.05589 4.025 2.04522C4.05073 2.03455 4.07832 2.02905 4.10619 2.02905C4.13405 2.02905 4.16164 2.03455 4.18738 2.04522C4.21312 2.05589 4.2365 2.07153 4.25619 2.09124L8.15019 5.98524C8.1699 6.00493 8.18554 6.02831 8.19621 6.05405C8.20688 6.07979 8.21237 6.10738 8.21237 6.13524C8.21237 6.1631 8.20688 6.19069 8.19621 6.21643C8.18554 6.24217 8.1699 6.26555 8.15019 6.28524L4.25519 10.1792C4.23552 10.199 4.21213 10.2146 4.18639 10.2252C4.16064 10.2359 4.13304 10.2413 4.10519 10.2412ZM0.511187 6.13524L4.10519 9.72924L7.70019 6.13524L4.10519 2.54124L0.511187 6.13524ZM7.09519 12.6352C7.03896 12.6352 6.98504 12.6129 6.94519 12.5732L6.04519 11.6732C6.02547 11.6536 6.00983 11.6302 5.99916 11.6044C5.98849 11.5787 5.983 11.5511 5.983 11.5232C5.983 11.4954 5.98849 11.4678 5.99916 11.442C6.00983 11.4163 6.02547 11.3929 6.04519 11.3732L9.33719 8.07624C9.35688 8.05653 9.38026 8.04089 9.406 8.03022C9.43174 8.01954 9.45932 8.01405 9.48719 8.01405C9.51505 8.01405 9.54264 8.01954 9.56838 8.03022C9.59411 8.04089 9.6175 8.05653 9.63719 8.07624L10.5372 8.97624C10.5569 8.99593 10.5725 9.01931 10.5832 9.04505C10.5939 9.07079 10.5994 9.09838 10.5994 9.12624C10.5994 9.1541 10.5939 9.18169 10.5832 9.20743C10.5725 9.23317 10.5569 9.25655 10.5372 9.27624L7.24219 12.5712C7.20211 12.6104 7.14825 12.6323 7.09219 12.6322L7.09519 12.6352ZM6.49519 11.5252L7.09519 12.1252L10.0952 9.12524L9.49519 8.52524L6.50019 11.5252H6.49519Z" fill="#204F38"/>
<path d="M11.8932 18.0292C11.837 18.0292 11.7831 18.0069 11.7432 17.9672L6.95121 13.1742C6.89207 13.1152 6.84515 13.045 6.81314 12.9678C6.78113 12.8906 6.76465 12.8078 6.76465 12.7242C6.76465 12.6407 6.78113 12.5579 6.81314 12.4807C6.84515 12.4035 6.89207 12.3333 6.95121 12.2742L10.2462 8.97924C10.2659 8.95953 10.2893 8.94389 10.315 8.93322C10.3408 8.92255 10.3683 8.91705 10.3962 8.91705C10.4241 8.91705 10.4517 8.92255 10.4774 8.93322C10.5031 8.94389 10.5265 8.95953 10.5462 8.97924L11.0832 9.51624H12.1942C12.2504 9.5163 12.3044 9.53859 12.3442 9.57824L12.6442 9.87824C12.6639 9.89794 12.6795 9.92132 12.6902 9.94706C12.7009 9.9728 12.7063 10.0004 12.7063 10.0282C12.7063 10.0561 12.7009 10.0837 12.6902 10.1094C12.6795 10.1352 12.6639 10.1585 12.6442 10.1782C12.6245 10.1979 12.6011 10.2136 12.5754 10.2242C12.5497 10.2349 12.5221 10.2404 12.4942 10.2404C12.4664 10.2404 12.4388 10.2349 12.413 10.2242C12.3873 10.2136 12.3639 10.1979 12.3442 10.1782L12.1062 9.94024H10.9952C10.9674 9.94026 10.9398 9.9348 10.914 9.92416C10.8883 9.91353 10.8649 9.89792 10.8452 9.87824L10.3962 9.42924L7.25121 12.5742C7.21164 12.6141 7.18943 12.6681 7.18943 12.7242C7.18943 12.7804 7.21164 12.8343 7.25121 12.8742L12.0442 17.6662C12.0739 17.6959 12.0941 17.7337 12.1023 17.7748C12.1105 17.816 12.1063 17.8586 12.0902 17.8974C12.0742 17.9362 12.047 17.9693 12.0121 17.9926C11.9772 18.0159 11.9362 18.0283 11.8942 18.0282L11.8932 18.0292Z" fill="#204F38"/>
<path d="M13.0911 18.9672C12.9797 18.9675 12.8693 18.9458 12.7663 18.9032C12.6633 18.8607 12.5698 18.7981 12.4911 18.7192L11.4381 17.6612C11.3983 17.6214 11.376 17.5675 11.376 17.5112C11.376 17.455 11.3983 17.401 11.4381 17.3612C11.4779 17.3214 11.5318 17.2991 11.5881 17.2991C11.6444 17.2991 11.6983 17.3214 11.7381 17.3612L12.7931 18.4152C12.8325 18.4546 12.8793 18.4859 12.9307 18.5072C12.9822 18.5285 13.0374 18.5395 13.0931 18.5395C13.1488 18.5395 13.204 18.5285 13.2555 18.5072C13.3069 18.4859 13.3537 18.4546 13.3931 18.4152C13.4325 18.3758 13.4638 18.3291 13.4851 18.2776C13.5064 18.2261 13.5174 18.1709 13.5174 18.1152C13.5174 18.0595 13.5064 18.0043 13.4851 17.9529C13.4638 17.9014 13.4325 17.8546 13.3931 17.8152L12.3361 16.7672C12.3164 16.7475 12.3008 16.7241 12.2901 16.6984C12.2795 16.6727 12.274 16.6451 12.274 16.6172C12.274 16.5894 12.2795 16.5618 12.2901 16.536C12.3008 16.5103 12.3164 16.4869 12.3361 16.4672C12.3558 16.4475 12.3792 16.4319 12.4049 16.4212C12.4307 16.4106 12.4582 16.4051 12.4861 16.4051C12.514 16.4051 12.5416 16.4106 12.5673 16.4212C12.593 16.4319 12.6164 16.4475 12.6361 16.4672L13.6911 17.5222C13.8101 17.6406 13.8913 17.7916 13.9242 17.9562C13.9572 18.1208 13.9404 18.2914 13.8761 18.4465C13.8118 18.6015 13.7028 18.7339 13.563 18.8268C13.4232 18.9197 13.259 18.9679 13.0911 18.9672Z" fill="#204F38"/>
<path d="M13.9898 18.0662C13.8783 18.0668 13.7678 18.0451 13.6648 18.0025C13.5618 17.96 13.4683 17.8973 13.3898 17.8182L12.0358 16.4642C11.996 16.4244 11.9736 16.3705 11.9736 16.3142C11.9736 16.258 11.996 16.204 12.0358 16.1642C12.0755 16.1244 12.1295 16.1021 12.1858 16.1021C12.242 16.1021 12.296 16.1244 12.3358 16.1642L13.6898 17.5182C13.7705 17.5955 13.878 17.6386 13.9898 17.6386C14.1015 17.6386 14.209 17.5955 14.2898 17.5182C14.3292 17.4789 14.3605 17.4321 14.3818 17.3806C14.4032 17.3291 14.4141 17.274 14.4141 17.2182C14.4141 17.1625 14.4032 17.1073 14.3818 17.0559C14.3605 17.0044 14.3292 16.9576 14.2898 16.9182L13.2348 15.8632C13.195 15.8234 13.1726 15.7695 13.1726 15.7132C13.1726 15.657 13.195 15.603 13.2348 15.5632C13.2745 15.5234 13.3285 15.5011 13.3848 15.5011C13.441 15.5011 13.495 15.5234 13.5348 15.5632L14.5898 16.6182C14.7083 16.7367 14.789 16.8878 14.8217 17.0522C14.8544 17.2166 14.8375 17.387 14.7733 17.5418C14.709 17.6967 14.6003 17.829 14.4608 17.922C14.3213 18.0149 14.1574 18.0645 13.9898 18.0642V18.0662Z" fill="#204F38"/>
<path d="M14.8892 17.1662C14.7778 17.1667 14.6675 17.1451 14.5645 17.1027C14.4615 17.0603 14.3679 16.9979 14.2892 16.9192L12.9352 15.5652C12.9155 15.5455 12.8999 15.5221 12.8892 15.4964C12.8785 15.4707 12.873 15.4431 12.873 15.4152C12.873 15.3874 12.8785 15.3598 12.8892 15.334C12.8999 15.3083 12.9155 15.2849 12.9352 15.2652C12.9549 15.2455 12.9783 15.2299 13.004 15.2192C13.0297 15.2086 13.0573 15.2031 13.0852 15.2031C13.113 15.2031 13.1406 15.2086 13.1664 15.2192C13.1921 15.2299 13.2155 15.2455 13.2352 15.2652L14.5892 16.6192C14.6687 16.6988 14.7767 16.7435 14.8892 16.7435C15.0017 16.7435 15.1096 16.6988 15.1892 16.6192C15.2687 16.5397 15.3134 16.4317 15.3134 16.3192C15.3134 16.2067 15.2687 16.0988 15.1892 16.0192L14.1342 14.9652C14.1145 14.9455 14.0989 14.9221 14.0882 14.8964C14.0775 14.8707 14.072 14.8431 14.072 14.8152C14.072 14.7874 14.0775 14.7598 14.0882 14.734C14.0989 14.7083 14.1145 14.6849 14.1342 14.6652C14.1539 14.6455 14.1773 14.6299 14.203 14.6192C14.2287 14.6086 14.2563 14.6031 14.2842 14.6031C14.312 14.6031 14.3396 14.6086 14.3654 14.6192C14.3911 14.6299 14.4145 14.6455 14.4342 14.6652L15.4892 15.7192C15.6077 15.8377 15.6884 15.9888 15.7211 16.1532C15.7538 16.3176 15.7369 16.488 15.6727 16.6428C15.6084 16.7977 15.4997 16.93 15.3602 17.0229C15.2207 17.1159 15.0568 17.1665 14.8892 17.1662Z" fill="#204F38"/>
<path d="M15.7874 16.2682C15.676 16.2688 15.5655 16.2471 15.4625 16.2045C15.3595 16.162 15.266 16.0993 15.1874 16.0202L13.8334 14.6662C13.7936 14.6264 13.7713 14.5725 13.7713 14.5162C13.7713 14.46 13.7936 14.406 13.8334 14.3662C13.8732 14.3264 13.9272 14.3041 13.9834 14.3041C14.0397 14.3041 14.0936 14.3264 14.1334 14.3662L15.4874 15.7202C15.5681 15.7977 15.6756 15.841 15.7874 15.841C15.8993 15.841 16.0068 15.7977 16.0874 15.7202C16.127 15.6809 16.1584 15.6342 16.1798 15.5827C16.2012 15.5312 16.2122 15.476 16.2122 15.4202C16.2122 15.3645 16.2012 15.3093 16.1798 15.2578C16.1584 15.2063 16.127 15.1595 16.0874 15.1202L12.6364 11.6732C12.6167 11.6535 12.6011 11.6301 12.5904 11.6044C12.5798 11.5787 12.5743 11.5511 12.5743 11.5232C12.5743 11.4954 12.5798 11.4678 12.5904 11.4421C12.6011 11.4163 12.6167 11.3929 12.6364 11.3732C12.6561 11.3535 12.6795 11.3379 12.7053 11.3272C12.731 11.3166 12.7586 11.3111 12.7864 11.3111C12.8143 11.3111 12.8419 11.3166 12.8676 11.3272C12.8933 11.3379 12.9167 11.3535 12.9364 11.3732L16.3874 14.8242C16.506 14.9427 16.5867 15.0938 16.6194 15.2582C16.652 15.4226 16.6352 15.593 16.5709 15.7478C16.5067 15.9027 16.3979 16.035 16.2585 16.128C16.119 16.2209 15.9551 16.2705 15.7874 16.2702V16.2682ZM5.89343 10.6552C5.75726 10.6549 5.62479 10.6109 5.51556 10.5296C5.40633 10.4483 5.32614 10.334 5.28682 10.2036C5.2475 10.0732 5.25112 9.93368 5.29717 9.80552C5.34321 9.67737 5.42923 9.56742 5.54253 9.49188C5.65583 9.41635 5.79042 9.37923 5.92642 9.38602C6.06242 9.39281 6.19264 9.44314 6.29786 9.52958C6.40308 9.61602 6.47772 9.734 6.51078 9.8661C6.54383 9.9982 6.53354 10.1374 6.48143 10.2632C6.43324 10.3794 6.35161 10.4785 6.2469 10.5482C6.1422 10.6178 6.01917 10.6557 5.89343 10.6552ZM5.89343 9.80823C5.85107 9.80583 5.80897 9.81619 5.77256 9.83798C5.73616 9.85977 5.70713 9.89198 5.68923 9.93044C5.67133 9.96891 5.66538 10.0119 5.67215 10.0537C5.67893 10.0956 5.69811 10.1345 5.72722 10.1654C5.75634 10.1962 5.79404 10.2176 5.83546 10.2268C5.87688 10.236 5.9201 10.2326 5.95954 10.217C5.99898 10.2013 6.03283 10.1742 6.0567 10.1392C6.08057 10.1041 6.09336 10.0627 6.09343 10.0202C6.09352 9.96602 6.07284 9.91384 6.03564 9.87441C5.99844 9.83498 5.94755 9.8113 5.89343 9.80823ZM18.7834 12.3372C18.7272 12.3372 18.6733 12.3149 18.6334 12.2752L14.7394 8.38123C14.7197 8.36154 14.7041 8.33816 14.6934 8.31242C14.6827 8.28668 14.6772 8.25909 14.6772 8.23123C14.6772 8.20337 14.6827 8.17578 14.6934 8.15004C14.7041 8.1243 14.7197 8.10092 14.7394 8.08123L18.7834 4.03723C18.8031 4.01753 18.8265 4.00191 18.8523 3.99125C18.878 3.98058 18.9056 3.9751 18.9334 3.9751C18.9613 3.9751 18.9889 3.98058 19.0146 3.99125C19.0403 4.00191 19.0637 4.01753 19.0834 4.03723C19.1031 4.05693 19.1188 4.08031 19.1294 4.10605C19.1401 4.13179 19.1456 4.15937 19.1456 4.18723C19.1456 4.21509 19.1401 4.24267 19.1294 4.26841C19.1188 4.29415 19.1031 4.31753 19.0834 4.33723L15.1894 8.23123L18.7834 11.8252L22.6774 7.93123C22.6971 7.91153 22.7205 7.89591 22.7463 7.88525C22.772 7.87459 22.7996 7.8691 22.8274 7.8691C22.8553 7.8691 22.8829 7.87459 22.9086 7.88525C22.9343 7.89591 22.9577 7.91153 22.9774 7.93123C22.9971 7.95093 23.0128 7.97431 23.0234 8.00005C23.0341 8.02579 23.0396 8.05337 23.0396 8.08123C23.0396 8.10909 23.0341 8.13667 23.0234 8.16241C23.0128 8.18815 22.9971 8.21153 22.9774 8.23123L18.9324 12.2732C18.913 12.2934 18.8897 12.3095 18.8639 12.3205C18.8382 12.3315 18.8114 12.3372 18.7834 12.3372Z" fill="#204F38"/>
<path d="M20.5802 10.5403C20.5239 10.5402 20.47 10.5179 20.4302 10.4783L16.5362 6.58425C16.5165 6.56456 16.5008 6.54118 16.4901 6.51544C16.4795 6.4897 16.474 6.46211 16.474 6.43425C16.474 6.40639 16.4795 6.3788 16.4901 6.35306C16.5008 6.32732 16.5165 6.30394 16.5362 6.28425L20.4302 2.39025C20.4499 2.37054 20.4732 2.3549 20.499 2.34423C20.5247 2.33356 20.5523 2.32806 20.5802 2.32806C20.608 2.32806 20.6356 2.33356 20.6614 2.34423C20.6871 2.3549 20.7105 2.37054 20.7302 2.39025L24.6242 6.28425C24.6439 6.30394 24.6595 6.32732 24.6702 6.35306C24.6809 6.3788 24.6864 6.40639 24.6864 6.43425C24.6864 6.46211 24.6809 6.4897 24.6702 6.51544C24.6595 6.54118 24.6439 6.56456 24.6242 6.58425L20.7302 10.4783C20.7105 10.498 20.6871 10.5136 20.6614 10.5243C20.6356 10.5349 20.608 10.5403 20.5802 10.5403ZM16.9862 6.43425L20.5802 10.0283L24.1742 6.43425L20.5802 2.84025L16.9862 6.43425ZM17.5912 12.9343C17.5349 12.9342 17.481 12.9119 17.4412 12.8723L14.1462 9.57325C14.1265 9.55356 14.1108 9.53018 14.1001 9.50444C14.0895 9.4787 14.084 9.45111 14.084 9.42325C14.084 9.39539 14.0895 9.3678 14.1001 9.34206C14.1108 9.31632 14.1265 9.29294 14.1462 9.27325L15.0462 8.37325C15.0659 8.35354 15.0892 8.3379 15.115 8.32723C15.1407 8.31656 15.1683 8.31106 15.1962 8.31106C15.224 8.31106 15.2516 8.31656 15.2774 8.32723C15.3031 8.3379 15.3265 8.35354 15.3462 8.37325L18.6412 11.6683C18.6609 11.6879 18.6765 11.7113 18.6872 11.7371C18.6979 11.7628 18.7034 11.7904 18.7034 11.8183C18.7034 11.8461 18.6979 11.8737 18.6872 11.8994C18.6765 11.9252 18.6609 11.9486 18.6412 11.9683L17.7412 12.8683C17.7215 12.8879 17.6981 12.9035 17.6723 12.9142C17.6466 12.9248 17.619 12.9303 17.5912 12.9303V12.9343ZM14.5912 9.42725L17.5912 12.4273L18.1912 11.8273L15.1912 8.82725L14.5912 9.42725Z" fill="#204F38"/>
<path d="M16.0867 15.0373C16.045 15.0371 16.0042 15.0246 15.9695 15.0014C15.9348 14.9781 15.9078 14.9452 15.8918 14.9066C15.8757 14.868 15.8715 14.8256 15.8795 14.7846C15.8875 14.7437 15.9074 14.706 15.9367 14.6763L17.4367 13.1763C17.4566 13.1566 17.4723 13.1333 17.4831 13.1075C17.4938 13.0818 17.4993 13.0542 17.4993 13.0263C17.4993 12.9984 17.4938 12.9707 17.4831 12.945C17.4723 12.9192 17.4566 12.8959 17.4367 12.8763L14.2917 9.73125L13.8427 10.1803C13.823 10.1999 13.7996 10.2155 13.7739 10.2262C13.7482 10.2368 13.7206 10.2423 13.6927 10.2423H12.5807L10.5457 12.2773C10.526 12.297 10.5026 12.3126 10.4769 12.3232C10.4512 12.3339 10.4236 12.3394 10.3957 12.3394C10.3679 12.3394 10.3403 12.3339 10.3145 12.3232C10.2888 12.3126 10.2654 12.297 10.2457 12.2773C10.226 12.2576 10.2104 12.2342 10.1997 12.2084C10.1891 12.1827 10.1836 12.1551 10.1836 12.1273C10.1836 12.0994 10.1891 12.0718 10.1997 12.0461C10.2104 12.0203 10.226 11.997 10.2457 11.9773L12.3457 9.87726C12.3654 9.85758 12.3888 9.84197 12.4146 9.83133C12.4403 9.82069 12.4679 9.81523 12.4957 9.81526H13.6067L14.1437 9.27826C14.1842 9.23985 14.2379 9.21844 14.2937 9.21844C14.3495 9.21844 14.4032 9.23985 14.4437 9.27826L17.7387 12.5783C17.7979 12.6373 17.8448 12.7075 17.8768 12.7847C17.9088 12.8619 17.9253 12.9447 17.9253 13.0283C17.9253 13.1118 17.9088 13.1946 17.8768 13.2718C17.8448 13.349 17.7979 13.4192 17.7387 13.4783L16.2387 14.9783C16.1988 15.0176 16.1448 15.0396 16.0887 15.0393L16.0867 15.0373ZM18.7917 10.9583C18.6448 10.958 18.5025 10.9069 18.3891 10.8135C18.2756 10.7201 18.1981 10.5902 18.1697 10.4461C18.1413 10.3019 18.1637 10.1524 18.2332 10.0229C18.3027 9.89346 18.4149 9.79211 18.5508 9.73614C18.6866 9.68017 18.8377 9.67303 18.9782 9.71596C19.1187 9.75888 19.24 9.84921 19.3214 9.97154C19.4028 10.0939 19.4392 10.2406 19.4245 10.3868C19.4098 10.533 19.3448 10.6696 19.2407 10.7733C19.1215 10.892 18.96 10.9585 18.7917 10.9583ZM18.6417 10.4733C18.6714 10.5029 18.7092 10.523 18.7503 10.5312C18.7914 10.5394 18.834 10.5351 18.8727 10.5191C18.9115 10.503 18.9445 10.4759 18.9678 10.441C18.9911 10.4062 19.0035 10.3652 19.0035 10.3233C19.0035 10.2813 18.9911 10.2404 18.9678 10.2055C18.9445 10.1706 18.9115 10.1435 18.8727 10.1274C18.834 10.1114 18.7914 10.1072 18.7503 10.1153C18.7092 10.1235 18.6714 10.1436 18.6417 10.1733C18.6034 10.2128 18.582 10.2657 18.582 10.3208C18.582 10.3758 18.6034 10.4287 18.6417 10.4683V10.4733Z" fill="#204F38"/>
<path d="M11.2878 12.7032C11.0931 12.7038 10.9002 12.6657 10.7204 12.5912C10.5405 12.5167 10.3771 12.4073 10.2398 12.2692C10.2201 12.2496 10.2045 12.2262 10.1938 12.2004C10.1832 12.1747 10.1777 12.1471 10.1777 12.1192C10.1777 12.0914 10.1832 12.0638 10.1938 12.0381C10.2045 12.0123 10.2201 11.9889 10.2398 11.9692C10.2595 11.9496 10.2829 11.9339 10.3086 11.9233C10.3344 11.9126 10.362 11.9071 10.3898 11.9071C10.4177 11.9071 10.4453 11.9126 10.471 11.9233C10.4967 11.9339 10.5201 11.9496 10.5398 11.9692C10.7416 12.1626 11.0103 12.2706 11.2898 12.2706C11.5693 12.2706 11.838 12.1626 12.0398 11.9692L12.9398 11.0693C12.9595 11.0496 12.9829 11.0339 13.0086 11.0233C13.0344 11.0126 13.062 11.0071 13.0898 11.0071C13.1177 11.0071 13.1453 11.0126 13.171 11.0233C13.1967 11.0339 13.2201 11.0496 13.2398 11.0693C13.2595 11.0889 13.2751 11.1123 13.2858 11.1381C13.2965 11.1638 13.3019 11.1914 13.3019 11.2192C13.3019 11.2471 13.2965 11.2747 13.2858 11.3004C13.2751 11.3262 13.2595 11.3496 13.2398 11.3692L12.3398 12.2692C12.2025 12.4073 12.0391 12.5167 11.8593 12.5912C11.6794 12.6657 11.4865 12.7038 11.2918 12.7032H11.2878ZM17.2138 5.95425C17.1576 5.95425 17.1037 5.93191 17.0639 5.89216C17.0241 5.8524 17.0018 5.79848 17.0018 5.74225V3.14225L12.3418 0.45225L7.68181 3.14225V5.60225C7.68181 5.65847 7.65948 5.7124 7.61972 5.75216C7.57996 5.79191 7.52604 5.81425 7.46981 5.81425C7.41359 5.81425 7.35966 5.79191 7.31991 5.75216C7.28015 5.7124 7.25781 5.65847 7.25781 5.60225V3.02425C7.25782 2.98712 7.26762 2.95064 7.28623 2.91851C7.30484 2.88638 7.3316 2.85973 7.36381 2.84125L12.2358 0.0282497C12.2681 0.0097402 12.3046 0 12.3418 0C12.379 0 12.4156 0.0097402 12.4478 0.0282497L17.3198 2.84125C17.352 2.85973 17.3788 2.88638 17.3974 2.91851C17.416 2.95064 17.4258 2.98712 17.4258 3.02425V5.74225C17.4258 5.77009 17.4203 5.79766 17.4097 5.82338C17.399 5.8491 17.3834 5.87247 17.3637 5.89216C17.344 5.91184 17.3207 5.92746 17.2949 5.93811C17.2692 5.94877 17.2417 5.95425 17.2138 5.95425Z" fill="#204F38"/>
<path d="M10.0228 4.73526C9.98558 4.73553 9.94899 4.72586 9.91678 4.70726L7.37778 3.24126C7.35285 3.22778 7.33087 3.20944 7.31315 3.18732C7.29543 3.1652 7.28232 3.13975 7.27461 3.11248C7.26689 3.08521 7.26472 3.05666 7.26823 3.02854C7.27174 3.00041 7.28085 2.97327 7.29503 2.94873C7.30921 2.92419 7.32816 2.90274 7.35077 2.88565C7.37338 2.86856 7.39919 2.85617 7.42667 2.84923C7.45415 2.84229 7.48275 2.84093 7.51076 2.84523C7.53878 2.84953 7.56565 2.8594 7.58978 2.87426L10.1288 4.34026C10.1716 4.36247 10.2055 4.39858 10.225 4.44266C10.2445 4.48674 10.2484 4.53614 10.236 4.58273C10.2237 4.62932 10.1958 4.67031 10.1571 4.69895C10.1183 4.72759 10.0709 4.74216 10.0228 4.74026V4.73526ZM14.6608 4.68326C14.6126 4.68516 14.5653 4.67059 14.5265 4.64195C14.4877 4.61331 14.4599 4.57232 14.4475 4.52573C14.4352 4.47914 14.4391 4.42974 14.4586 4.38566C14.4781 4.34158 14.512 4.30547 14.5548 4.28326L17.0628 2.83526C17.1113 2.80902 17.1682 2.80274 17.2213 2.81776C17.2744 2.83278 17.3196 2.86792 17.3472 2.91571C17.3748 2.9635 17.3827 3.02017 17.3691 3.07368C17.3556 3.12719 17.3218 3.17332 17.2748 3.20226L14.7658 4.65626C14.7338 4.67443 14.6976 4.68375 14.6608 4.68326ZM12.3408 8.72126C12.2846 8.72126 12.2306 8.69893 12.1909 8.65917C12.1511 8.61941 12.1288 8.56549 12.1288 8.50926V3.17426C12.1288 3.14642 12.1343 3.11886 12.1449 3.09313C12.1556 3.06741 12.1712 3.04404 12.1909 3.02436C12.2106 3.00467 12.2339 2.98906 12.2597 2.9784C12.2854 2.96775 12.3129 2.96226 12.3408 2.96226C12.3686 2.96226 12.3962 2.96775 12.4219 2.9784C12.4476 2.98906 12.471 3.00467 12.4907 3.02436C12.5104 3.04404 12.526 3.06741 12.5366 3.09313C12.5473 3.11886 12.5528 3.14642 12.5528 3.17426V8.50926C12.5528 8.56549 12.5304 8.61941 12.4907 8.65917C12.4509 8.69893 12.397 8.72126 12.3408 8.72126Z" fill="#204F38"/>
<path d="M12.7079 5.93724H12.0079C11.7362 5.93724 11.4756 5.82931 11.2835 5.63717C11.0913 5.44504 10.9834 5.18446 10.9834 4.91274C10.9834 4.64103 11.0913 4.38044 11.2835 4.18831C11.4756 3.99618 11.7362 3.88824 12.0079 3.88824H13.4999C13.5277 3.88824 13.5553 3.89373 13.581 3.90438C13.6067 3.91503 13.6301 3.93065 13.6498 3.95034C13.6695 3.97002 13.6851 3.99339 13.6958 4.01912C13.7064 4.04484 13.7119 4.0724 13.7119 4.10024C13.7119 4.12808 13.7064 4.15565 13.6958 4.18137C13.6851 4.20709 13.6695 4.23046 13.6498 4.25015C13.6301 4.26984 13.6067 4.28545 13.581 4.29611C13.5553 4.30676 13.5277 4.31224 13.4999 4.31224H12.0079C11.8488 4.31224 11.6962 4.37546 11.5836 4.48798C11.4711 4.6005 11.4079 4.75311 11.4079 4.91224C11.4079 5.07137 11.4711 5.22399 11.5836 5.33651C11.6962 5.44903 11.8488 5.51224 12.0079 5.51224H12.7079C12.7641 5.51224 12.818 5.53458 12.8578 5.57434C12.8976 5.61409 12.9199 5.66802 12.9199 5.72424C12.9199 5.78047 12.8976 5.83439 12.8578 5.87415C12.818 5.91391 12.7641 5.93624 12.7079 5.93624V5.93724Z" fill="#204F38"/>
<path d="M12.6876 7.55823H11.1876C11.1314 7.55823 11.0774 7.53589 11.0377 7.49613C10.9979 7.45638 10.9756 7.40245 10.9756 7.34623C10.9756 7.29 10.9979 7.23608 11.0377 7.19632C11.0774 7.15656 11.1314 7.13423 11.1876 7.13423H12.6876C12.8467 7.13423 12.9993 7.07101 13.1119 6.95849C13.2244 6.84597 13.2876 6.69336 13.2876 6.53423C13.2876 6.3751 13.2244 6.22248 13.1119 6.10996C12.9993 5.99744 12.8467 5.93423 12.6876 5.93423H12.2246C12.1684 5.93423 12.1144 5.91189 12.0747 5.87213C12.0349 5.83238 12.0126 5.77845 12.0126 5.72223C12.0126 5.666 12.0349 5.61208 12.0747 5.57232C12.1144 5.53256 12.1684 5.51023 12.2246 5.51023H12.6876C12.9586 5.51023 13.2186 5.6179 13.4102 5.80956C13.6019 6.00123 13.7096 6.26118 13.7096 6.53223C13.7096 6.80328 13.6019 7.06323 13.4102 7.25489C13.2186 7.44655 12.9586 7.55423 12.6876 7.55423V7.55823ZM12.3436 2.56523C12.218 2.56523 12.0952 2.52799 11.9908 2.45821C11.8864 2.38844 11.805 2.28926 11.7569 2.17323C11.7089 2.0572 11.6963 1.92952 11.7208 1.80634C11.7453 1.68317 11.8058 1.57002 11.8946 1.48121C11.9834 1.39241 12.0965 1.33193 12.2197 1.30743C12.3429 1.28293 12.4706 1.2955 12.5866 1.34356C12.7026 1.39163 12.8018 1.47301 12.8716 1.57744C12.9413 1.68186 12.9786 1.80464 12.9786 1.93023C12.9783 2.09856 12.9113 2.25992 12.7923 2.37895C12.6733 2.49798 12.5119 2.56496 12.3436 2.56523ZM12.3436 1.71823C12.3017 1.71823 12.2607 1.73066 12.2258 1.75396C12.1909 1.77725 12.1638 1.81036 12.1477 1.8491C12.1317 1.88784 12.1275 1.93046 12.1357 1.97159C12.1438 2.01271 12.164 2.05049 12.1937 2.08013C12.2233 2.10978 12.2611 2.12997 12.3022 2.13815C12.3434 2.14633 12.386 2.14214 12.4247 2.12609C12.4635 2.11004 12.4966 2.08287 12.5199 2.04801C12.5432 2.01315 12.5556 1.97216 12.5556 1.93023C12.5545 1.8747 12.5317 1.8218 12.4921 1.7829C12.4525 1.744 12.3991 1.72222 12.3436 1.72223V1.71823Z" fill="#204F38"/>
<path d="M8.75106 6.80126C8.86815 6.80126 8.96306 6.70634 8.96306 6.58926C8.96306 6.47217 8.86815 6.37726 8.75106 6.37726C8.63398 6.37726 8.53906 6.47217 8.53906 6.58926C8.53906 6.70634 8.63398 6.80126 8.75106 6.80126Z" fill="#204F38"/>
<path d="M15.9522 6.80126C16.0693 6.80126 16.1642 6.70634 16.1642 6.58926C16.1642 6.47217 16.0693 6.37726 15.9522 6.37726C15.8352 6.37726 15.7402 6.47217 15.7402 6.58926C15.7402 6.70634 15.8352 6.80126 15.9522 6.80126Z" fill="#204F38"/>
<path d="M8.75106 5.95427C8.86815 5.95427 8.96306 5.85936 8.96306 5.74227C8.96306 5.62519 8.86815 5.53027 8.75106 5.53027C8.63398 5.53027 8.53906 5.62519 8.53906 5.74227C8.53906 5.85936 8.63398 5.95427 8.75106 5.95427Z" fill="#204F38"/>
<path d="M8.75106 5.10723C8.86815 5.10723 8.96306 5.01231 8.96306 4.89523C8.96306 4.77814 8.86815 4.68323 8.75106 4.68323C8.63398 4.68323 8.53906 4.77814 8.53906 4.89523C8.53906 5.01231 8.63398 5.10723 8.75106 5.10723Z" fill="#204F38"/>
<path d="M15.9522 5.95427C16.0693 5.95427 16.1642 5.85936 16.1642 5.74227C16.1642 5.62519 16.0693 5.53027 15.9522 5.53027C15.8352 5.53027 15.7402 5.62519 15.7402 5.74227C15.7402 5.85936 15.8352 5.95427 15.9522 5.95427Z" fill="#204F38"/>
<path d="M15.9522 5.10723C16.0693 5.10723 16.1642 5.01231 16.1642 4.89523C16.1642 4.77814 16.0693 4.68323 15.9522 4.68323C15.8352 4.68323 15.7402 4.77814 15.7402 4.89523C15.7402 5.01231 15.8352 5.10723 15.9522 5.10723Z" fill="#204F38"/>
<path d="M9.81622 3.43984C9.91768 3.3814 9.95256 3.25178 9.89412 3.15032C9.83569 3.04886 9.70607 3.01398 9.60461 3.07242C9.50315 3.13085 9.46827 3.26047 9.5267 3.36193C9.58514 3.46339 9.71476 3.49827 9.81622 3.43984Z" fill="#204F38"/>
<path d="M10.5506 3.01686C10.6521 2.95843 10.6869 2.82881 10.6285 2.72735C10.5701 2.62589 10.4404 2.59101 10.339 2.64944C10.2375 2.70788 10.2026 2.8375 10.2611 2.93896C10.3195 3.04042 10.4491 3.0753 10.5506 3.01686Z" fill="#204F38"/>
<path d="M11.285 2.59389C11.3864 2.53546 11.4213 2.40584 11.3629 2.30438C11.3044 2.20292 11.1748 2.16804 11.0734 2.22647C10.9719 2.28491 10.937 2.41453 10.9955 2.51599C11.0539 2.61745 11.1835 2.65233 11.285 2.59389Z" fill="#204F38"/>
<path d="M15.1637 3.36115C15.2221 3.25969 15.1872 3.13007 15.0857 3.07164C14.9843 3.0132 14.8547 3.04808 14.7962 3.14954C14.7378 3.251 14.7727 3.38062 14.8741 3.43906C14.9756 3.49749 15.1052 3.46261 15.1637 3.36115Z" fill="#204F38"/>
<path d="M14.4293 2.93818C14.4877 2.83672 14.4528 2.7071 14.3514 2.64866C14.2499 2.59023 14.1203 2.62511 14.0619 2.72657C14.0034 2.82803 14.0383 2.95765 14.1398 3.01608C14.2412 3.07452 14.3708 3.03964 14.4293 2.93818Z" fill="#204F38"/>
<path d="M13.6959 2.51514C13.7543 2.41368 13.7194 2.28406 13.618 2.22563C13.5165 2.16719 13.3869 2.20207 13.3285 2.30353C13.27 2.40499 13.3049 2.53461 13.4064 2.59305C13.5078 2.65148 13.6374 2.6166 13.6959 2.51514Z" fill="#204F38"/>
</svg>
