<svg width="50" height="50" viewBox="0 0 50 50" fill="none" xmlns="http://www.w3.org/2000/svg">
<rect x="0.274805" y="0.274988" width="48.55" height="48.55" rx="24.275" stroke="black" stroke-width="0.55"/>
<path d="M29.2013 29.1326L29.7858 28.5204L28.4283 27.0825L27.8463 27.6947L29.2013 29.1326ZM31.7459 28.2636L34.1957 29.6677L35.1123 27.8866L32.6638 26.4839L31.7459 28.2636ZM34.6662 32.457L32.8458 34.3665L34.2008 35.803L36.0212 33.8949L34.6662 32.457ZM31.7357 34.98C29.8769 35.1638 25.0696 35.0003 19.8624 29.5434L18.5061 30.9799C24.1877 36.9355 29.5961 37.2274 31.9151 36.999L31.7357 34.98ZM19.8624 29.5434C14.9001 24.3406 14.0771 19.9661 13.9745 18.0674L12.0542 18.1823C12.1824 20.5715 13.2015 25.4203 18.5061 30.9799L19.8624 29.5434ZM21.6251 21.1918L21.993 20.8053L20.6393 19.3688L20.2714 19.754L21.6251 21.1918ZM22.2853 15.893L20.67 13.6173L19.1304 14.8336L20.7457 17.1079L22.2853 15.893ZM15.2334 13.1213L13.2207 15.2295L14.577 16.6674L16.5884 14.5592L15.2334 13.1213ZM20.9482 20.4729C20.2688 19.754 20.2688 19.754 20.2688 19.7567H20.2662L20.2624 19.7621C20.2019 19.8272 20.1473 19.8982 20.0996 19.9742C20.0304 20.0823 19.9547 20.2242 19.8906 20.404C19.7345 20.8679 19.6956 21.3667 19.7778 21.8513C19.9496 23.0203 20.7136 24.5649 22.6698 26.6163L24.0261 25.1784C22.1943 23.2594 21.7584 22.0919 21.6776 21.5405C21.6392 21.2783 21.6789 21.1486 21.6905 21.1189C21.6969 21.0999 21.6994 21.0986 21.6905 21.1107C21.6791 21.1295 21.6663 21.1471 21.652 21.1634L21.6392 21.177C21.635 21.1812 21.6308 21.1852 21.6264 21.1891L20.9482 20.4729ZM22.6698 26.6163C24.6274 28.6677 26.1003 29.4677 27.2104 29.6461C27.7783 29.738 28.236 29.665 28.5834 29.5285C28.7777 29.4527 28.9594 29.3451 29.1218 29.2096C29.1439 29.1902 29.1652 29.1699 29.1859 29.1488L29.1949 29.1407L29.1987 29.1366L29.2 29.1339C29.2 29.1339 29.2013 29.1326 28.5231 28.4136C27.8437 27.6947 27.8476 27.6933 27.8476 27.6933L27.8501 27.6906L27.8527 27.6879L27.8604 27.6812L27.8732 27.6677C27.8886 27.6531 27.9049 27.6395 27.9219 27.6271C27.9347 27.6177 27.9309 27.6217 27.9129 27.6298C27.8809 27.642 27.7553 27.6839 27.5027 27.6433C26.972 27.5569 25.8567 27.0974 24.0261 25.1784L22.6698 26.6163ZM20.67 13.616C19.3625 11.7781 16.7935 11.4862 15.2334 13.1213L16.5884 14.5592C17.2704 13.8443 18.4805 13.9187 19.1304 14.8336L20.67 13.616ZM13.9758 18.0688C13.9502 17.6012 14.154 17.112 14.577 16.6687L13.2195 15.2309C12.5311 15.9525 11.9888 16.9741 12.0542 18.1823L13.9758 18.0688ZM32.8458 34.3665C32.4946 34.7368 32.1151 34.9449 31.7369 34.9814L31.9151 36.999C32.8574 36.9057 33.6278 36.4057 34.2021 35.8044L32.8458 34.3665ZM21.993 20.8053C23.2557 19.4823 23.3493 17.3917 22.2866 15.8944L20.747 17.1093C21.2636 17.8377 21.1867 18.7931 20.638 19.3702L21.993 20.8053ZM34.197 29.6691C35.2443 30.2691 35.4071 31.6826 34.6674 32.4583L36.0237 33.8949C37.7415 32.0935 37.2121 29.0893 35.1136 27.8879L34.197 29.6691ZM29.7858 28.5217C30.2781 28.0055 31.0703 27.8785 31.7472 28.265L32.6651 26.4852C31.2754 25.6879 29.5525 25.9082 28.4296 27.0839L29.7858 28.5217Z" fill="#29A814"/>
</svg>
