<svg width="50" height="50" viewBox="0 0 50 50" fill="none" xmlns="http://www.w3.org/2000/svg">
<rect x="0.274805" y="0.274988" width="48.55" height="48.55" rx="24.275" stroke="black" stroke-width="0.55"/>
<path d="M35.1996 17.0425C35.0932 16.5955 34.7908 16.258 34.445 16.1545C33.8318 15.97 30.8512 15.55 24.5512 15.55C18.2512 15.55 15.272 15.97 14.6546 16.1545C14.313 16.2565 14.0106 16.594 13.9028 17.0425C13.7502 17.6785 13.3512 20.3425 13.3512 24.55C13.3512 28.756 13.7502 31.42 13.9028 32.059C14.0092 32.5045 14.3116 32.842 14.656 32.944C15.272 33.13 18.2498 33.55 24.5498 33.55C30.8498 33.55 33.8304 33.13 34.4464 32.9455C34.788 32.8435 35.0904 32.506 35.1982 32.0575C35.3522 31.4215 35.7498 28.75 35.7498 24.55C35.7498 20.35 35.3522 17.68 35.1996 17.0425ZM37.91 16.297C38.5498 18.97 38.5498 24.55 38.5498 24.55C38.5498 24.55 38.5498 30.13 37.91 32.803C37.5544 34.2805 36.5142 35.443 35.1968 35.836C32.8056 36.55 24.5498 36.55 24.5498 36.55C24.5498 36.55 16.2996 36.55 13.9028 35.836C12.5798 35.437 11.541 34.276 11.1896 32.803C10.5498 30.13 10.5498 24.55 10.5498 24.55C10.5498 24.55 10.5498 18.97 11.1896 16.297C11.5452 14.8195 12.5854 13.657 13.9028 13.264C16.301 12.55 24.5512 12.55 24.5512 12.55C24.5512 12.55 32.8056 12.55 35.1982 13.264C36.5198 13.663 37.56 14.824 37.9114 16.297M21.7512 29.8V19.3L30.1512 24.55L21.7512 29.8Z" fill="#C5221F"/>
</svg>
